<?xml version="1.0" encoding="UTF-8"?>
<svg width="21px" height="37px" viewBox="0 0 21 37" version="1.1" xmlns="http://www.w3.org/2000/svg" xmlns:xlink="http://www.w3.org/1999/xlink">
    <!-- Generator: Sketch 49.1 (51147) - http://www.bohemiancoding.com/sketch -->
    <title>back_arrow_green</title>
    <desc>Created with Sketch.</desc>
    <defs></defs>
    <g id="Assets" stroke="none" stroke-width="1" fill="none" fill-rule="evenodd">
        <g id="Artboard-3" transform="translate(-15.000000, -5.000000)" fill="#449694" fill-rule="nonzero">
            <path d="M33.6620265,5.38537957 L15.4023032,22.5857024 C14.8658989,23.0909853 14.8658989,23.9100483 15.4023032,24.4153312 L33.6620265,41.615654 C34.2075143,42.1294934 35.0588579,42.1294934 35.6043457,41.615654 L35.6043457,41.615654 C36.1095932,41.1397201 36.1333567,40.3443154 35.6574228,39.8390678 C35.6402682,39.8208567 35.6225737,39.8031618 35.6043629,39.7860069 L18.3164688,23.5005168 L35.6043629,7.21502666 C36.1096015,6.73908329 36.13335,5.94367812 35.6574066,5.4384395 C35.6402517,5.42022867 35.6225568,5.40253414 35.6043457,5.38537957 L35.6043457,5.38537957 C35.0588579,4.87154014 34.2075143,4.87154014 33.6620265,5.38537957 Z" id="back_arrow_green"></path>
        </g>
    </g>
</svg>