<?xml version="1.0" encoding="UTF-8"?>
<svg width="48px" height="46px" viewBox="0 0 48 46" version="1.1" xmlns="http://www.w3.org/2000/svg" xmlns:xlink="http://www.w3.org/1999/xlink">
    <!-- Generator: Sketch 49.1 (51147) - http://www.bohemiancoding.com/sketch -->
    <title>face_1</title>
    <desc>Created with Sketch.</desc>
    <defs></defs>
    <g id="Assets" stroke="none" stroke-width="1" fill="none" fill-rule="evenodd">
        <g id="Artboard-3" transform="translate(-12.000000, -10.000000)">
            <g id="how-are-you" transform="translate(12.000000, 10.000000)">
                <path d="M5.15630302,6.66809622 C28.2768922,-10.2769786 56.0789063,7.41459703 45.7997378,33.4786179 C40.4045417,47.1587619 14.5618284,50.1293057 5.87177339,38.6454608 C-0.701537131,29.9588785 -0.451428868,28.0897147 0.505036229,19.0616173 C1.14267963,13.0428857 2.69310189,8.91171203 5.15630302,6.66809622 Z" id="Path-6" fill="#BDF0E6"></path>
                <path d="M32.6808511,34.907234 C32.6808511,37.163376 29.4801633,38.9923404 25.5319149,38.9923404 C21.5836665,38.9923404 18.3829787,37.163376 18.3829787,34.907234" id="Combined-Shape" stroke="#CC5C61" stroke-width="2" transform="translate(25.531915, 36.949787) scale(1, -1) translate(-25.531915, -36.949787) "></path>
                <ellipse id="Oval-6" fill="#27221B" cx="35.2340426" cy="19.5880851" rx="1.53191489" ry="2.04255319"></ellipse>
                <ellipse id="Oval-6" fill="#27221B" cx="15.8297872" cy="19.5880851" rx="1.53191489" ry="2.04255319"></ellipse>
                <path d="M25.787234,21.6873759 L25.787234,29.7640668" id="Line" stroke="#27221B" stroke-width="2" stroke-linecap="square"></path>
            </g>
        </g>
    </g>
</svg>