<?xml version="1.0" encoding="UTF-8"?>
<svg width="345px" height="934px" viewBox="0 0 345 934" version="1.1" xmlns="http://www.w3.org/2000/svg" xmlns:xlink="http://www.w3.org/1999/xlink">
    <!-- Generator: Sketch 49.1 (51147) - http://www.bohemiancoding.com/sketch -->
    <title>zigzag_how_you_feel_before_bg</title>
    <desc>Created with Sketch.</desc>
    <defs></defs>
    <g id="Assets" stroke="none" stroke-width="1" fill="none" fill-rule="evenodd">
        <g id="Artboard-2" transform="translate(-1876.000000, -14.000000)" fill="#FFFFFF">
            <path d="M2221,14 L2221,943.903171 C2221,946.165787 2219.20914,948 2217,948 L1880,948 C1877.79086,948 1876,946.165787 1876,943.903171 L1876,14.9261322 L1892.64049,37.5454914 L1906.649,15.1801872 L1920.09717,36.1329499 L1932.42466,15.1801872 L1944.75215,36.1329499 L1957.0955,14.9261322 L1969.96747,36.1329499 L1982.73676,15.1801872 L1994.62245,36.1819861 L2006.94994,15.1801872 L2019.27743,36.1329499 L2030.48424,15.1801872 L2043.37207,36.1819861 L2055.69956,15.1801872 L2068.02705,36.1819861 L2082.03556,15.1801872 L2095.13736,37.2016729 L2108.93661,14.0079062 L2122.95163,37.5643252 L2136.96014,14.0188276 L2150.95745,37.5454839 L2164.96595,14 L2178.97447,37.5454914 L2192.98298,14 L2206.99149,37.5454914 L2221,14 Z" id="zigzag_how_you_feel_before_bg"></path>
        </g>
    </g>
</svg>