<?xml version="1.0" encoding="UTF-8"?>
<svg width="78px" height="86px" viewBox="0 0 78 86" version="1.1" xmlns="http://www.w3.org/2000/svg" xmlns:xlink="http://www.w3.org/1999/xlink">
    <!-- Generator: Sketch 49.1 (51147) - http://www.bohemiancoding.com/sketch -->
    <title>moodboard_btn</title>
    <desc>Created with Sketch.</desc>
    <defs>
        <filter x="-22.6%" y="-14.3%" width="145.2%" height="140.0%" filterUnits="objectBoundingBox" id="filter-1">
            <feOffset dx="0" dy="4" in="SourceAlpha" result="shadowOffsetOuter1"></feOffset>
            <feGaussianBlur stdDeviation="4" in="shadowOffsetOuter1" result="shadowBlurOuter1"></feGaussianBlur>
            <feColorMatrix values="0 0 0 0 0.0470588235   0 0 0 0 0   0 0 0 0 0.2  0 0 0 0.1 0" type="matrix" in="shadowBlurOuter1" result="shadowMatrixOuter1"></feColorMatrix>
            <feMerge>
                <feMergeNode in="shadowMatrixOuter1"></feMergeNode>
                <feMergeNode in="SourceGraphic"></feMergeNode>
            </feMerge>
        </filter>
    </defs>
    <g id="Assets" stroke="none" stroke-width="1" fill="none" fill-rule="evenodd">
        <g id="Artboard-3" transform="translate(-5.000000, -2.000000)">
            <g id="moodboard_btn" filter="url(#filter-1)" transform="translate(44.000000, 41.000000) scale(-1, 1) translate(-44.000000, -41.000000) translate(13.000000, 6.000000)">
                <path d="M2.76195972,23.2949779 C-6.69250985,50.8525367 9.10248798,76.1297171 35.2555745,68.6789163 C38.3335711,67.8020202 54.1080308,58.6843238 56.2106575,54.1833051 C59.777721,46.547418 62.4891018,37.7573995 61.9256801,33.3852542 C57.8105494,1.45189395 28.8151822,-11.4096397 10.4904765,11.9569594 C8.79583617,14.1178662 4.82868133,18.6110446 3.38922607,21.3670674 C4.23261369,18.9751748 4.02352491,19.6178116 2.76195972,23.2949779 Z" id="Path-4" fill="#FFFFFF" transform="translate(31.000000, 35.000000) scale(-1, 1) translate(-31.000000, -35.000000) "></path>
                <g id="searching-love-magnifier-looking-dating" transform="translate(11.000000, 14.000000)" fill="#449694" fill-rule="nonzero">
                    <path d="M12.9833333,2.73333333 C7.33148333,2.73333333 2.73333333,7.33148333 2.73333333,12.9833333 C2.73333333,18.6351833 7.33148333,23.2333333 12.9833333,23.2333333 C18.6351833,23.2333333 23.2333333,18.6351833 23.2333333,12.9833333 C23.2333333,7.33148333 18.6351833,2.73333333 12.9833333,2.73333333 Z M12.9833333,21.8666667 C8.0852,21.8666667 4.1,17.8814667 4.1,12.9833333 C4.1,8.0852 8.0852,4.1 12.9833333,4.1 C17.8814667,4.1 21.8666667,8.0852 21.8666667,12.9833333 C21.8666667,17.8814667 17.8814667,21.8666667 12.9833333,21.8666667 Z" id="Shape"></path>
                    <path d="M29.1831167,25.48355 C29.0550618,25.3552772 28.8812512,25.2831959 28.7,25.2831959 C28.5187488,25.2831959 28.3449382,25.3552772 28.2168833,25.48355 L27.3333333,26.3671 L22.6197,21.6534667 C24.6929333,19.352 25.9666667,16.3173167 25.9666667,12.9833333 C25.9666667,5.82405 20.1426167,0 12.9833333,0 C5.82405,0 0,5.82405 0,12.9833333 C0,20.1426167 5.82405,25.9666667 12.9833333,25.9666667 C16.3173167,25.9666667 19.352,24.6929333 21.6534667,22.6197 L26.3671,27.3333333 L25.48355,28.2168833 C25.3552772,28.3449382 25.2831959,28.5187488 25.2831959,28.7 C25.2831959,28.8812512 25.3552772,29.0550618 25.48355,29.1831167 L37.1002167,40.7997833 C37.2280923,40.928393 37.4019701,41.0007071 37.5833333,41.0007071 C37.7646966,41.0007071 37.9385743,40.928393 38.06645,40.7997833 L40.7997833,38.06645 C40.9280562,37.9383951 41.0001375,37.7645845 41.0001375,37.5833333 C41.0001375,37.4020822 40.9280562,37.2282716 40.7997833,37.1002167 L29.1831167,25.48355 Z M12.9833333,24.6 C6.57776667,24.6 1.36666667,19.3889 1.36666667,12.9833333 C1.36666667,6.57776667 6.57776667,1.36666667 12.9833333,1.36666667 C19.3889,1.36666667 24.6,6.57776667 24.6,12.9833333 C24.6,19.3889 19.3889,24.6 12.9833333,24.6 Z M37.5833333,39.3504333 L26.9329,28.7 L28.7,26.9329 L39.3504333,37.5833333 L37.5833333,39.3504333 Z" id="Shape"></path>
                    <path d="M15.7166667,8.88333333 C14.6408086,8.88349408 13.6279439,9.39068609 12.9833333,10.25205 C12.3387228,9.39068609 11.325858,8.88349408 10.25,8.88333333 C8.36605,8.88333333 6.83333333,10.41605 6.83333333,12.3 C6.83333333,14.18395 8.36605,15.7166667 10.25,15.7166667 C11.3802333,15.7166667 12.3,16.6364333 12.3,17.7666667 C12.3,18.1440612 12.6059388,18.45 12.9833333,18.45 C13.3607279,18.45 13.6666667,18.1440612 13.6666667,17.7666667 C13.6666667,16.6364333 14.5864333,15.7166667 15.7166667,15.7166667 C17.6006167,15.7166667 19.1333333,14.18395 19.1333333,12.3 C19.1333333,10.41605 17.6006167,8.88333333 15.7166667,8.88333333 Z M15.7166667,14.35 C14.6408086,14.3501607 13.6279439,14.8573528 12.9833333,15.7187167 C12.3387228,14.8573528 11.325858,14.3501607 10.25,14.35 C9.11976667,14.35 8.2,13.4302333 8.2,12.3 C8.2,11.1697667 9.11976667,10.25 10.25,10.25 C11.3802333,10.25 12.3,11.1697667 12.3,12.3 C12.3,12.6773946 12.6059388,12.9833333 12.9833333,12.9833333 C13.3607279,12.9833333 13.6666667,12.6773946 13.6666667,12.3 C13.6666667,11.1697667 14.5864333,10.25 15.7166667,10.25 C16.8469,10.25 17.7666667,11.1697667 17.7666667,12.3 C17.7666667,13.4302333 16.8469,14.35 15.7166667,14.35 Z" id="Shape"></path>
                </g>
            </g>
        </g>
    </g>
</svg>