<?xml version="1.0" encoding="UTF-8"?>
<svg viewBox="0 0 212 203" version="1.1" xmlns="http://www.w3.org/2000/svg" xmlns:xlink="http://www.w3.org/1999/xlink">
    <!-- Generator: Sketch 49.3 (51167) - http://www.bohemiancoding.com/sketch -->
    <defs>
        <path d="M22.7987485,29.5778843 C124.635712,-45.0584044 247.092484,32.8659223 201.816851,147.667528 C178.053166,207.9231 64.2263325,221.007159 25.9501098,170.425408 C-3.00269852,132.164481 -1.90107148,123.931561 2.31177538,84.1663963 C5.12033995,57.6562868 11.949331,39.4601161 22.7987485,29.5778843 Z" id="path-1"></path>
        <linearGradient x1="0%" y1="0%" x2="100%" y2="100%" id="linearGradient-3">
            <stop stop-color="#9155C7" offset="0%"></stop>
            <stop stop-color="#C965A6" offset="52.9829208%"></stop>
            <stop stop-color="#FF8077" offset="100%"></stop>
        </linearGradient>
        <rect id="path-4" x="0" y="0" width="254.076336" height="268.641221"></rect>
        <filter x="-5.5%" y="-3.7%" width="111.0%" height="110.4%" filterUnits="objectBoundingBox" id="filter-5">
            <feOffset dx="0" dy="4" in="SourceAlpha" result="shadowOffsetOuter1"></feOffset>
            <feGaussianBlur stdDeviation="4" in="shadowOffsetOuter1" result="shadowBlurOuter1"></feGaussianBlur>
            <feComposite in="shadowBlurOuter1" in2="SourceAlpha" operator="out" result="shadowBlurOuter1"></feComposite>
            <feColorMatrix values="0 0 0 0 0.0470588235   0 0 0 0 0   0 0 0 0 0.2  0 0 0 0.1 0" type="matrix" in="shadowBlurOuter1"></feColorMatrix>
        </filter>
        <path d="M2.41798004,32.7566472 C14.0985522,33.1911517 13.9302574,33.7061197 25.8998721,31.920263 C30.85875,31.1804025 35.3749698,29.2508292 39.5552009,26.3604346 C43.3666665,23.7250207 47.1141516,20.9025051 50.3254252,17.5344551 C63.9382031,3.25709269 26.4265127,-0.847548171 19.3636325,0.139081726 C11.1142421,1.29145793 5.45681802,8.82456855 2.11684119,16.1367012 C-0.795191868,22.5119466 0.114957813,24.2780723 0.203152325,31.5275877 L2.41798004,32.7566472 Z" id="path-6"></path>
        <path d="M9.50686412,105.18667 C5.79046631,102.814599 3.2852546,98.7185108 3.11095656,94.0203803 C3.02497597,91.7028099 -0.30481009,56.078075 0.158772902,31.2203174 C0.385590436,19.0581472 2.44669301,9.51281992 4.44564127,7.63081085 C6.74480104,5.46615274 8.30887112,3.7467776 13.1407747,2.49767983 C19.5181212,0.849068868 33.1208569,0.957524254 40.4870901,0.848649498 C52.4621276,0.671655472 60.2777118,0.973149023 64.5931184,0.848649498 C73.5743327,0.589541371 82.1519743,4.10870217 85.6801444,7.63081085 C93.6255001,15.5625163 91.5370885,23.5799671 91.5364842,25.17456 C91.5344335,30.5852435 91.9228557,41.2301996 91.5364842,52.4365549 C90.8265086,73.0287499 89.1353729,96.2346781 89.146023,97.4149783 C89.1808568,101.275449 87.4156139,104.732582 84.6333896,106.989021 L84.6333896,115.4363 L79.2872181,120.508229 C70.1329953,121.741779 62.2605055,122.307545 55.6697489,122.205528 C49.0789922,122.10351 38.6760594,121.254861 24.4609503,119.659579 L9.84266101,117.499444 L8.92336948,105.184269 L9.50686412,105.18667 Z" id="path-8"></path>
    </defs>
    <g id="App" stroke="none" stroke-width="1" fill="none" fill-rule="evenodd">
        <g id="Onboarding:-3" transform="translate(-82.000000, -125.000000)">
            <g id="main" transform="translate(14.000000, 72.000000)">
                <g id="charachters" transform="translate(68.000000, 53.709924)">
                    <mask id="mask-2" fill="white">
                        <use xlink:href="#path-1"></use>
                    </mask>
                    <use id="Mask" fill="#BDF0E6" xlink:href="#path-1"></use>
                    <g id="inside" mask="url(#mask-2)">
                        <g transform="translate(-302.625954, -237.893130)">
                            <g id="bg" transform="translate(286.442748, 208.763359)">
                                <g id="Rectangle">
                                    <use fill="black" fill-opacity="1" filter="url(#filter-5)" xlink:href="#path-4"></use>
                                    <use fill-opacity="0.66" fill="url(#linearGradient-3)" fill-rule="evenodd" xlink:href="#path-4"></use>
                                </g>
                            </g>
                            <g id="charachters">
                                <g id="avatar_1" transform="translate(582.090461, 486.210707) rotate(-45.000000) translate(-582.090461, -486.210707) translate(457.884355, 283.920630)">
                                    <path d="M101.938535,26.0123123 C103.783437,15.0920859 110.21135,13.5622137 121.327369,13.2093085 C129.733146,12.9424465 138.146714,12.9071714 146.556452,12.9790014 C150.824148,13.0154529 156.410755,12.9839954 160.096524,15.817572 C164.384145,19.1138457 164.106942,30.0802183 164.171314,33.4730387 C164.332458,41.9663955 164.409201,77.226136 163.141266,89.4560382 C163.024936,90.5781034 159.506954,91.7222151 159.142145,91.8226911 C153.635968,93.3392059 152.131484,93.4674887 146.468014,93.6359476 C130.122417,94.1221446 128.240194,93.8558199 109.360746,92.5475228 C106.83169,92.3722657 103.611674,91.0592233 102.056769,89.0429924 C100.636707,87.2016132 100.565048,85.9720315 100.568448,83.4967824 C100.596067,63.3939819 99.1838058,42.1926359 103.007837,22.1606729" id="hair" fill="#6471E8"></path>
                                    <g id="upper" transform="translate(124.129452, 202.631301) rotate(-345.000000) translate(-124.129452, -202.631301) translate(43.213421, 25.020614)">
                                        <g id="top" transform="translate(75.884157, 137.344356) rotate(-15.000000) translate(-75.884157, -137.344356) translate(18.838355, 57.237485)">
                                            <path d="M86.3132378,8.43742281 C90.3434469,11.8428168 96.6215691,74.0145149 99.301638,117.534799 C99.301638,117.534799 99.301638,117.534799 99.301638,117.534799 L99.301638,117.534799 C99.8841418,126.993784 92.6883323,135.134019 83.2293476,135.716522 C82.6797288,135.750369 82.1287993,135.75774 81.5784718,135.738608 L31.8009725,134.008199 C22.9697511,133.701196 16.0595064,126.293202 16.366509,117.461981 C16.3834641,116.97425 16.4227252,116.48755 16.4841692,116.003408 C20.8131191,81.8938392 22.935697,63.8831753 22.8519027,61.9714158 C22.7177461,58.910641 19.3882061,15.5541276 25.7629732,10.4740421 C36.5195466,1.90207199 82.6167626,5.31402305 86.3132378,8.43742281 Z" id="shirt" fill="#FEFEFE"></path>
                                            <path d="M86.3132378,8.43742281 C90.3434469,11.8428168 90.0375238,57.292371 92.7175927,100.812655 C92.7175927,100.812655 92.7175927,100.812655 92.7175927,100.812655 L92.7175927,100.812655 C92.7934927,102.045157 91.8558814,103.105827 90.6233793,103.181727 C89.5676904,103.246738 88.6108686,102.563122 88.3302238,101.543345 C75.5799966,55.2128779 68.7187697,28.8811933 67.7465668,22.5482851 C67.3253471,19.8044691 68.6584288,14.7519204 68.7012618,13.5289711 C68.865963,8.82648561 65.3620342,5.26113833 67.7465668,5.4094075 C77.247037,6.00014248 84.8960997,7.23998782 86.3132378,8.43742281 Z" id="Rectangle-5" fill="#E0AAAA"></path>
                                            <path d="M64.9023149,0.290945614 C68.4309899,4.63832902 71.1383248,7.4818304 73.0243197,8.82144975 C74.9103145,10.1610691 77.7146851,11.2044664 81.4374315,11.9516416 L69.744632,25.3260977 L99.6896063,147.119017 L91.6934719,159.656035 L64.6112078,22.4804687 C66.3223492,18.8127692 67.1779199,15.9671402 67.1779199,13.9435819 C67.1779199,11.9200235 66.4193849,7.36914475 64.9023149,0.290945614 Z" id="Path-30" fill="#F67089"></path>
                                            <path d="M16.0149157,119.723006 L2.57258603,119.723006 C1.65210211,104.224832 0.927002336,94.997015 0.397286715,92.0395548 C-0.132428905,89.0820947 -0.132428905,84.3957163 0.397286715,77.9804198 C7.58347532,45.0488382 11.9887095,26.1583853 13.6129891,21.3090609 C15.2372688,16.4597365 20.4516917,12.1598636 29.2562577,8.4094421 L29.2540917,8.52819667 C33.4017763,6.83983165 39.4209718,5.8647928 46.0161027,5.39855694 C47.7569977,5.27548619 47.7601232,14.0619322 48.9059829,16.0020088 C53.1192877,23.1356337 50.8687164,62.5910022 42.1542693,134.368114 C40.25244,138.54222 38.9212487,141.331273 38.1606956,142.735273 C37.3177141,144.291438 35.319925,145.428771 32.1673281,146.147272 L14.5553521,136.30802 L14.97656,132.475399 C14.7051673,132.079555 14.5534286,131.596635 14.5713991,131.080269 C15.0766433,127.111958 15.5576642,123.328066 16.0149157,119.723006 Z" id="Combined-Shape" fill="#E0AAAA"></path>
                                            <path d="M48.1496415,0 C47.0579981,2.53153815 46.6774668,4.52187065 47.0080477,5.97099749 C47.3386286,7.42012434 49.1461521,11.6851225 52.4306183,18.7659921 C53.5532453,48.0192941 53.5532453,69.6286183 52.4306183,83.5939649 C51.3079913,97.5593115 47.788077,119.737302 41.8708755,150.127937 L32.1673281,146.147272 C35.319925,145.428771 37.3177141,144.291438 38.1606956,142.735273 C39.0036771,141.179108 40.2404037,136.345444 41.8708755,128.234279 L50.1474307,22.7466571 C46.2189761,17.5263852 44.1260541,13.4509424 43.8686647,10.5203289 C43.6112753,7.58971539 45.0382676,4.08293908 48.1496415,0 Z" id="Path-31" fill="#F67089"></path>
                                        </g>
                                        <g id="body_change_colour" transform="translate(20.997102, 0.752178)" fill="#E8E8E8">
                                            <path d="M4.37489826,42.6005594 C2.82956422,42.656552 1.22496926,41.1211429 0.63226338,38.9091345 C-0.0079422921,36.5198544 0.768955191,34.2239195 2.37035508,33.6946503 C1.90625399,31.6470376 1.40048371,29.4672563 0.959280815,27.1187876 C0.61030959,25.2612568 13.3075245,18.4896375 26.0398785,13.4278959 C26.8870728,13.0910942 28.1734222,0.474468865 29.0172236,0.154524549 C29.9280702,-0.190841283 32.9073355,11.507367 33.7976139,11.3486655 C39.0376366,10.4145763 44.6918318,5.45846505 45.4342171,8.22981989 C46.1766025,11.0011747 54.5890552,28.4061024 54.5890552,38.7661666 C54.5890552,47.4255938 49.4667385,53.239976 42.1018994,56.4383235 L44.1013543,65.0989141 C44.7045204,67.7115134 43.0755529,70.3184063 40.4629536,70.9215723 L33.6143683,72.5026928 C31.001769,73.1058589 28.3948761,71.4768914 27.7917101,68.8642921 L25.6201469,59.4582186 C25.6172089,59.4454927 25.6143238,59.4327669 25.6114916,59.4200416 C13.2059151,59.2102838 7.36188136,53.0372437 4.37489826,42.6005594 Z" id="head"></path>
                                        </g>
                                        <g id="face" transform="translate(41.337200, 22.339136)">
                                            <path d="M14.0640275,9.16478685 C15.9361841,19.3095227 16.7707757,14.6491974 12.3063412,15.9524585 C11.9893999,16.0449802 12.7049235,16.4704014 12.9042146,16.7293728" id="Path-2" stroke="#55383C" stroke-width="0.5"></path>
                                            <path d="M15.4286732,19.0569377 C10.8818621,21.5117605 13.2660821,21.0501706 8.29655068,20.5524985" id="Path-3" stroke="#CC5C61" stroke-width="0.5"></path>
                                            <g id="eyes" fill="#55383C">
                                                <ellipse id="eye" cx="19.5041718" cy="1.74567369" rx="1.74664225" ry="1.74567369"></ellipse>
                                                <ellipse id="eye" cx="1.74664225" cy="6.25533071" rx="1.74664225" ry="1.74567369"></ellipse>
                                            </g>
                                        </g>
                                    </g>
                                    <path d="M127.117757,59.8778626 C122.604932,59.8778626 118.946565,56.2551285 118.946565,51.7862595 C118.946565,47.3173906 122.604932,43.6946565 127.117757,43.6946565 C131.630583,43.6946565 135.28895,47.3173906 135.28895,51.7862595 C135.28895,56.2551285 131.630583,59.8778626 127.117757,59.8778626 Z M135.289607,51.7862595 C135.312983,50.5029615 135.957021,49.474373 136.748092,49.474373 C137.539162,49.474373 138.1832,50.5029615 138.206576,51.7862595 M146.378426,59.8778626 C141.865601,59.8778626 138.207233,56.2551285 138.207233,51.7862595 C138.207233,47.3173906 141.865601,43.6946565 146.378426,43.6946565 C150.891251,43.6946565 154.549618,47.3173906 154.549618,51.7862595 C154.549618,56.2551285 150.891251,59.8778626 146.378426,59.8778626 Z" id="glasses" stroke="#8F8DC2"></path>
                                    <g id="hat" transform="translate(123.801527, 20.633588) rotate(-8.000000) translate(-123.801527, -20.633588) translate(97.099237, 4.045802)">
                                        <mask id="mask-7" fill="white">
                                            <use xlink:href="#path-6"></use>
                                        </mask>
                                        <use id="Mask" fill="#8F8DC2" xlink:href="#path-6"></use>
                                        <path d="M0,13.30975 C8.96463984,10.632882 17.6911246,6.90725387 26.8939195,5.27914593 C32.4251086,4.30059833 38.1203929,5.72109606 43.7320456,5.57291658 C45.6989408,5.52097939 47.6237997,4.97789036 49.5696768,4.68037725" id="Path-7" stroke="#504D6B" mask="url(#mask-7)"></path>
                                        <path d="M0,19.1058693 C9.99505822,16.4290013 19.7245872,12.7033732 29.9851747,11.0752653 C36.1521325,10.0967177 42.5020473,11.5172154 48.7587175,11.3690359 C50.9516926,11.3170987 53.0977997,10.7740097 55.2673408,10.4764966" id="Path-7" stroke="#504D6B" mask="url(#mask-7)"></path>
                                        <path d="M0,25.5081728 C9.99505822,22.8313048 19.7245872,19.1056767 29.9851747,17.4775687 C36.1521325,16.4990211 42.5020473,17.9195189 48.7587175,17.7713394 C50.9516926,17.7194022 53.0977997,17.1763132 55.2673408,16.8788001" id="Path-7" stroke="#504D6B" mask="url(#mask-7)"></path>
                                        <path d="M0,33.0745314 C9.99505822,30.3976634 19.7245872,26.6720353 29.9851747,25.0439274 C36.1521325,24.0653798 42.5020473,25.4858775 48.7587175,25.337698 C50.9516926,25.2857608 53.0977997,24.7426718 55.2673408,24.4451587" id="Path-7" stroke="#504D6B" mask="url(#mask-7)"></path>
                                        <path d="M-2.848832,6.88328995 C7.14622622,4.20642194 16.8757552,0.480793853 27.1363427,-1.14731409 C33.3033006,-2.12586168 39.6532153,-0.705363958 45.9098855,-0.853543436 C48.1028606,-0.90548063 50.2489677,-1.44856965 52.4185088,-1.74608276" id="Path-7" stroke="#504D6B" mask="url(#mask-7)"></path>
                                    </g>
                                </g>
                                <g id="charachter_5" transform="translate(409.435115, 200.267176) scale(-1, 1) rotate(-180.000000) translate(-409.435115, -200.267176) translate(336.610687, 66.351145)">
                                    <g id="body_change_colour" transform="translate(8.900763, 8.091603)" fill="#30A1D2">
                                        <path d="M90.2496687,97.260647 C88.1801196,93.8579421 86.2729483,90.2661981 84.5281547,86.485415 C83.2041333,83.6164007 90.2692585,76.1927687 91.3939715,56.9953063 C91.6322597,52.928021 89.7250883,44.7993372 85.6724575,32.6092548 C85.69988,27.3568611 85.69988,23.4815584 85.6724575,20.9833466 C85.636085,17.6697784 86.2645556,13.4932922 85.6724575,11.0587908 C84.4107549,5.87110923 81.0732051,2.18484564 75.659808,0 C74.5418714,0.443315423 73.8743614,0.82139374 73.6572781,1.13423495 C73.0796608,1.9666458 72.9716488,3.63474394 73.0851267,4.25338106 C73.1918253,4.83506006 73.7199395,5.90821388 74.8015809,7.08896844 C75.2797338,7.6109355 76.4240366,8.27257256 78.2344893,9.0738796 C80.1374472,12.5350539 80.9956743,15.5596804 80.8091706,18.1477592 C80.6226669,20.735838 79.287647,24.327582 76.8041108,28.9229912 C71.0811379,28.5708443 66.7900024,27.3420897 63.9307043,25.2367276 C61.0714062,23.1313655 58.6874421,19.445102 56.7788118,14.1779369 C55.2393981,9.70054478 53.4275853,6.67591824 51.3433735,5.10405728 C49.2591617,3.53219631 46.6844804,3.24863757 43.6193296,4.25338106 C42.1418263,5.3898143 41.4743163,6.24049051 41.6167998,6.8054097 C41.6965123,7.12145467 41.994587,8.50751759 42.7611025,9.35743834 C43.1635051,9.80362668 44.0217322,10.3707442 45.3357838,11.0587908 C49.8152612,13.7392254 52.5806596,16.1022149 53.6319791,18.1477592 C54.6832986,20.1933035 54.4925815,22.8398517 53.0598277,26.0874039 C51.9068242,28.7613147 50.5718043,30.9352651 49.0547679,32.6092548 C45.1693471,36.8966634 38.4302858,42.2115594 36.7535129,45.369398 C34.0947128,50.3766718 33.8086371,54.7245725 35.8952858,58.4130999 C32.9409353,60.6164137 31.5105568,61.9396878 31.6041503,62.3829223 C31.6482586,62.5918079 31.4432411,64.8395989 32.4623774,66.0691859 C32.889935,66.5850337 34.6872692,66.8817516 35.8952858,67.7705383 C36.5257024,68.2343613 37.3839295,69.1795571 38.4699671,70.6061257 C38.8683386,76.033167 39.5358486,79.624911 40.472497,81.3813577 C41.4091453,83.1378044 44.2699023,86.4459897 49.0547679,91.3059135 L49.0547679,101.797587 L90.2496687,97.260647 Z" id="head"></path>
                                    </g>
                                    <g id="right_arm" transform="translate(17.396947, 141.603053) scale(-1, 1) translate(-17.396947, -141.603053) translate(0.000000, 84.961832)">
                                        <g id="Group-3">
                                            <ellipse id="Oval-4" fill="#FFEA80" cx="16.3735968" cy="18.2753721" rx="16.3735968" ry="16.2447752"></ellipse>
                                            <path d="M34.5380557,17.7677229 C34.5380557,8.79598128 27.9748591,0.253824613 18.9319713,0.253824613 C9.88908347,0.253824613 0,1.68889212 0,10.6606337 C0,19.6323754 34.5380557,26.7394645 34.5380557,17.7677229 Z" id="Oval-4" fill="#FF7D68"></path>
                                        </g>
                                    </g>
                                    <g id="head-whole" transform="translate(52.595420, 42.076336)">
                                        <path d="M25.8578948,35.8599787 C18.0810176,39.6782387 12.1853908,41.154009 5.37351831,35.385983" id="mouth" stroke="#CC5C61" stroke-width="2"></path>
                                        <g id="eyes">
                                            <g id="left_eye" transform="translate(14.677792, 12.285561)">
                                                <ellipse id="Oval-11" fill="#FFFFFF" cx="6.49210012" cy="6.42199763" rx="6.49210012" ry="6.42199763"></ellipse>
                                                <ellipse id="eye" fill="#27221B" cx="6.58618853" cy="6.78871805" rx="2.54038701" ry="2.74291652"></ellipse>
                                            </g>
                                            <g id="right_eye" transform="translate(0.000000, 10.051822)">
                                                <ellipse id="Oval-11" fill="#FFFFFF" cx="4.79850879" cy="4.7466939" rx="4.79850879" ry="4.7466939"></ellipse>
                                                <ellipse id="eye" fill="#27221B" cx="4.40333748" cy="4.56086043" rx="1.97585656" ry="2.13337952"></ellipse>
                                            </g>
                                            <g id="top-eye" transform="translate(11.290609, 0.000000)">
                                                <ellipse id="Oval-11" fill="#FFFFFF" cx="3.6694479" cy="3.62982475" rx="3.6694479" ry="3.62982475"></ellipse>
                                                <ellipse id="eye" fill="#27221B" cx="3.4285251" cy="3.57284163" rx="1.81020449" ry="1.95452102"></ellipse>
                                            </g>
                                        </g>
                                    </g>
                                    <path d="M117.192594,101.916561 C119.57089,123.86786 120.470207,139.874465 119.890545,149.936375 C119.310883,159.998286 116.697901,188.323248 112.051598,234.911261 L112.051598,246.544927 C117.868066,249.695957 121.874116,252.336222 124.069746,254.465721 C126.265376,256.59522 128.064011,260.390601 129.465649,265.851863 L105.184086,267.832061 L102.113444,257.322776 L99.5429143,248.525125 C89.0416886,232.950483 79.1491998,223.792065 69.8654481,221.049871 C60.5816963,218.307677 53.5535274,225.32088 48.7809412,242.08948 L48.7809412,265.851863 L10.519084,267.337011 C11.5653309,263.56923 12.6281603,261.093982 13.7075721,259.911267 C14.7869839,258.728552 16.5856182,258.068486 19.103475,257.931068 C23.9989242,259.85139 27.5144367,260.511456 29.6500126,259.911267 C31.7855885,259.311078 34.7288083,256.83583 38.479672,252.485523 C29.4897149,208.382561 24.5986292,179.687111 23.8064147,166.399174 C23.2263419,156.669524 24.1053093,137.815584 26.4433168,109.837355 L31.8392198,95.480916 C53.5360566,99.9172587 69.9401156,102.554325 81.051397,103.392116 C92.1626783,104.229907 104.209744,103.738055 117.192594,101.916561 Z" id="body-vest" fill="#FF7D68"></path>
                                    <ellipse id="air_bubble" fill="#DCEBF0" opacity="0.37035779" cx="76.4656489" cy="59.0687023" rx="59.4732824" ry="59.0687023"></ellipse>
                                    <g id="left_arm" transform="translate(110.854962, 95.480916)" fill="#FF7D68">
                                        <g id="shoulder">
                                            <path d="M34.5380557,17.7677229 C34.5380557,8.79598128 27.9748591,0.253824613 18.9319713,0.253824613 C9.88908347,0.253824613 0,1.68889212 0,10.6606337 C0,19.6323754 34.5380557,26.7394645 34.5380557,17.7677229 Z" id="Oval-4"></path>
                                        </g>
                                    </g>
                                </g>
                                <g id="charachter" transform="translate(564.486529, 246.707514) scale(-1, 1) rotate(-240.000000) translate(-564.486529, -246.707514) translate(492.875842, 82.852552)">
                                    <g id="body_change_colour" transform="translate(6.191094, 26.312148)" fill="#B1D159">
                                        <path d="M92.6078766,27.8110718 L92.6078766,67.2377843 C92.6078766,82.5648671 80.2262472,94.9899226 64.9527334,94.9899226 C49.6792195,94.9899226 37.2975901,82.5648671 37.2975901,67.2377843 L37.2975901,27.8110718 C37.2975901,12.537558 49.6792195,0.155928575 64.9527334,0.155928575 L64.9527334,0.155928575 C80.2262472,0.155928575 92.6078766,12.537558 92.6078766,27.8110718 Z" id="head"></path>
                                    </g>
                                    <g id="top_body" transform="translate(28.633808, 0.000000)">
                                        <g id="eye-whole" transform="translate(27.730940, 45.342260)">
                                            <ellipse id="Oval" fill="#FFFFFF" cx="15.1653577" cy="15.1440204" rx="14.9638247" ry="15.0380255"></ellipse>
                                            <ellipse id="eye" fill="#27221B" cx="15.8304166" cy="14.8098421" rx="3.65782382" ry="4.01014014"></ellipse>
                                        </g>
                                        <g id="right_ear" transform="translate(22.240627, 29.233071) scale(-1, 1) translate(-22.240627, -29.233071) translate(14.553604, 18.713987)">
                                            <polygon id="Path-10" fill="#B1D159" points="0.270949913 13.2083991 5.96089808 7.76964651 8.94134712 9.32357582 5.96089808 20.4600692"></polygon>
                                            <ellipse id="Oval-2" fill="#A0BE53" cx="9.21229703" cy="5.17976434" rx="5.41899825" ry="5.17976434"></ellipse>
                                        </g>
                                        <g id="left_ear" transform="translate(56.530005, 18.713987)">
                                            <polygon id="Path-10" fill="#B1D159" points="0.270949913 13.2083991 5.96089808 7.76964651 8.94134712 9.32357582 5.96089808 20.4600692"></polygon>
                                            <ellipse id="Oval-2" fill="#A0BE53" cx="9.21229703" cy="5.17976434" rx="5.41899825" ry="5.17976434"></ellipse>
                                        </g>
                                        <path d="M85.1275362,42.5637681 L85.1275362,104.00926 C85.1275362,127.773637 66.0710881,147.038472 42.5637681,147.038472 C19.0564481,147.038472 0,127.773637 0,104.00926 L0,42.5637681 C-2.87881642e-15,19.0564481 19.0564481,4.31822463e-15 42.5637681,0 L42.5637681,0 C66.0710881,-4.31822463e-15 85.1275362,19.0564481 85.1275362,42.5637681 Z" id="head_bubble" fill="#DCEBF0" opacity="0.455785779"></path>
                                        <path d="M44.5589447,86.2277713 C53.6669778,90.5496544 58.2420854,83.6125481 58.5251812,75.5243059" id="mouth" stroke="#CC5C61" stroke-width="2"></path>
                                    </g>
                                    <g id="shirt" transform="translate(0.000000, 95.188063)" fill="#163A4D">
                                        <path d="M23.9507583,46.6298537 C31.5995143,55.8549027 36.9561211,62.9604042 40.0205787,67.9463583 C43.0850364,72.9323124 48.1068553,83.3685177 55.0860354,99.2549744 C61.8561912,101.253397 66.989606,102.252608 70.4862799,102.252608 C73.9829538,102.252608 80.6787123,101.253397 90.5735554,99.2549744 C100.217726,85.0543596 107.02508,73.84099 110.995619,65.6148656 C114.966157,57.3887412 118.983612,46.1753716 123.047984,31.9747568 C120.186569,22.3491996 117.39667,15.9098388 114.678286,12.6566746 C111.959902,9.40351034 107.049679,6.6279238 99.9476173,4.32991499 C87.9704818,7.4298246 79.1543998,8.76210614 73.4993713,8.3267596 C67.8443428,7.89141305 57.912301,5.11582652 43.7032459,0 L43.7032459,8.3267596 C27.7219858,5.2868048 16.2276004,3.95452327 9.22008964,4.32991499 C2.21257892,4.70530671 -0.800512406,6.81475247 0.180815661,10.6582523 L23.9507583,46.6298537 Z"></path>
                                    </g>
                                    <g id="right_arm" transform="translate(0.000000, 98.283610)">
                                        <ellipse id="Oval-4" fill="#FBA945" cx="21.4867364" cy="24.0499897" rx="21.4867364" ry="21.3777686"></ellipse>
                                        <path d="M45.3235846,23.3819344 C45.3235846,11.5753188 36.7108358,0.334027634 24.844039,0.334027634 C12.9772421,0.334027634 0,2.22254506 0,14.0291606 C0,25.8357762 45.3235846,35.18855 45.3235846,23.3819344 Z" id="Oval-4" fill="#FAC859"></path>
                                    </g>
                                    <path d="M98.8245282,97.5097233 C85.4062094,129.771571 74.5556556,153.00291 66.272867,167.20374 C57.9900784,181.404571 51.789762,187.406926 47.6719177,185.210807 C47.5440549,184.103918 47.5440549,183.325835 47.6719177,182.876558 C47.7997806,182.42728 48.3533803,180.871114 49.3327168,178.208059 L44.0181599,166.536812 C41.0662533,178.823776 40.2912138,186.715762 41.6930412,190.21277 C43.0948686,193.709778 47.5236661,194.93248 54.9794335,193.880876 C70.6275736,180.682473 81.0352476,169.344691 86.2024555,159.867528 C91.3696634,150.390365 98.2342995,130.04905 106.796364,98.8435801 L98.8245282,97.5097233 Z" id="band_across_body" fill="#F9F082"></path>
                                </g>
                                <g id="avatar_2" transform="translate(313.954198, 363.312977)">
                                    <g id="body_change_colour" transform="translate(44.503817, 15.374046)" fill="#885B3E">
                                        <path d="M75.5239813,40.2618732 C73.2076759,51.3074641 66.0504181,60.0766096 56.8854208,63.2017938 C56.957698,63.6245375 56.995348,64.0590977 56.995348,64.5024516 L56.995348,71.2392584 C56.995348,74.7068604 54.1843011,77.5179073 50.7166991,77.5179073 C50.2508692,77.5179073 49.7864861,77.466066 49.3321239,77.3633407 C44.8508939,76.350193 41.6688999,72.3684809 41.6688999,67.7741484 L41.6688999,64.5024516 C41.6688999,64.0285492 41.7119171,63.564694 41.7942597,63.1145777 C32.74426,59.9139638 25.693315,51.1957419 23.4026146,40.2418223 C23.1234705,40.2888407 22.8366728,40.3133182 22.5441581,40.3133182 C19.7103694,40.3133182 17.4131298,38.0160786 17.4131298,35.1822899 C17.4131298,32.3485013 19.7103694,30.0512617 22.5441581,30.0512617 C22.5927973,30.0512617 22.6412784,30.0519384 22.6895925,30.0532831 C23.7477396,13.57607 35.3314264,0.597826536 49.4653974,0.597826536 C63.5987946,0.597826536 75.1821146,13.5750161 76.2410733,30.0512761 L76.2533633,30.0512617 C79.087152,30.0512617 81.3843916,32.3485013 81.3843916,35.1822899 C81.3843916,38.0160786 79.087152,40.3133182 76.2533633,40.3133182 C76.0057477,40.3133182 75.7622289,40.2957783 75.5239813,40.2618732 Z" id="head"></path>
                                    </g>
                                    <g id="face" transform="translate(61.610418, 0.000000)">
                                        <path d="M26.5214189,64.6281096 C28.2025984,65.3126222 29.4909086,65.7124426 30.3863493,65.8275707 C31.2817901,65.9426988 33.1031941,65.9426988 35.8505613,65.8275707" id="Path-27" stroke="#CC5C61"></path>
                                        <g id="eyes" transform="translate(21.038168, 45.312977)" fill="#27221B">
                                            <ellipse id="eye" cx="23.3418949" cy="2.39892232" rx="1.86582847" ry="1.99910193"></ellipse>
                                            <ellipse id="eye" cx="2.15141446" cy="2.39892232" rx="1.86582847" ry="1.99910193"></ellipse>
                                        </g>
                                        <path d="M4.52129183,27.3309603 C-1.65604967,19.7025788 -1.48509886,8.18634397 6.14328258,2.00900248 C11.251395,-2.12746541 15.7620182,0.695733371 20.0396571,5.30312181 C18.9494445,2.55313409 27.0225455,6.63486469 29.4434292,4.67447172 C33.7735194,1.16803386 41.3013582,4.44575015 44.807796,8.77584029 C47.0453374,11.5389737 45.4291819,9.45860168 46.272322,8.77584029 C49.5614227,6.11237906 51.302285,8.04904413 53.9657462,11.3381448 C55.3169321,13.0067204 56.7218667,8.26114112 58.0972236,10.0054102 C58.7531542,7.77527391 62.8654092,11.3381448 65.2939905,11.3381448 C69.5262723,11.3381448 72.0909371,16.3017319 72.0909371,20.5340137 C72.0909371,20.7010065 72.0885004,20.8656106 72.0835595,21.0277544 C71.8381912,28.0892897 71.2606729,33.7311996 70.4916555,37.9928372 C70.2025278,39.5950867 69.8023187,41.4677976 69.2910283,43.6109699 C69.2921944,44.6608122 69.0503413,45.5415405 68.6256419,46.3067743 C67.8693121,49.2806674 66.9364596,52.6843588 65.8270844,56.5178485 C65.5864466,54.6774463 65.1866263,53.1892259 64.6276232,52.0531875 C64.156541,51.0958269 63.2306219,49.951454 61.8498658,48.6200689 C59.9558787,47.8022698 58.6303174,45.9177337 58.6303174,43.7235961 C58.6303174,42.3226817 59.1706925,41.0479787 60.0543743,40.0965554 C56.5774328,39.3704042 53.9657462,36.2878292 53.9657462,32.595262 C53.9657462,29.9095419 55.3473572,27.5465144 57.4386109,26.1781474 C51.2653673,27.6310476 43.4121535,28.8736972 41.0382204,30.7960703 C36.1592354,34.7469945 26.2623478,35.3948569 17.3155442,33.3183655 C17.1168437,34.2205506 15.8157637,35.2581903 15.7162626,36.5268292 C15.4749355,39.6037499 13.3425601,44.7915144 13.5838872,51.3102829 C11.9678726,43.4790686 13.2117582,38.557851 13.0507934,37.3264699 C12.9220023,36.3412182 12.8962595,34.6938378 12.9735648,32.3843286 C9.31500697,31.1840251 6.26183602,29.4803533 4.52129183,27.3309603 Z" id="Combined-Shape" fill="#27221B" transform="translate(36.112105, 28.258924) scale(-1, 1) translate(-36.112105, -28.258924) "></path>
                                        <path d="M25.8931298,56.6412214 C29.2488682,57.6321057 31.6763491,58.0366859 33.1755725,57.8549618 C34.5435027,57.6891521 36.2301062,57.3299386 37.6259542,56.6412214 C38.5248374,56.1977086 39.3151364,54.6891822 38.8396947,54.2137405 C38.3033867,53.6774325 37.4224717,53.4092074 36.4122137,50.9770992 C36.0695607,50.1521919 35.6649806,48.5338713 35.1984733,46.1221374" id="Path-5" stroke="#363636"></path>
                                    </g>
                                </g>
                                <g id="character_2" transform="translate(225.083865, 464.089606) rotate(-315.000000) translate(-225.083865, -464.089606) translate(108.969362, 263.013270)">
                                    <g id="upper" transform="translate(116.114504, 230.610687) rotate(-345.000000) translate(-116.114504, -230.610687) translate(35.603053, 83.343511)">
                                        <g id="top" transform="translate(74.545129, 75.360929) rotate(-15.000000) translate(-74.545129, -75.360929) translate(14.667266, 13.864746)">
                                            <g id="sleeve" transform="translate(92.765342, 3.394598)" fill="#163747">
                                                <path d="M0,0 C8.27210742,3.28585847 13.4958467,6.66436691 15.6712178,10.1355253 C21.5956056,19.5888494 21.3845547,34.2661264 21.6725012,37.9196564 C22.1222039,43.6255862 23.4651581,53.8293484 25.7013636,68.530943 C26.2088208,74.717761 26.2088208,79.2372356 25.7013636,82.0893668 C25.1939063,84.941498 24.4893516,95.5645929 23.5876993,113.958651 L3.01900217,113.958651 L0.0694631448,58.6766247 L0,3.39459799 L0,0 Z" id="Path-16"></path>
                                            </g>
                                            <g id="shirt" transform="translate(14.321605, 0.000000)">
                                                <mask id="mask-9" fill="white">
                                                    <use xlink:href="#path-8"></use>
                                                </mask>
                                                <use id="Mask" fill="#163747" xlink:href="#path-8"></use>
                                                <path d="M71.4675348,122.364614 C71.8553615,120.621002 72.0440823,119.173792 72.0336969,118.022984 C71.7027096,81.3460005 70.9456455,56.7444087 70.6284247,44.5886221 C69.9975449,20.4135354 68.6364402,7.48098472 68.590241,6.24688649 C68.5075567,4.03818072 67.9402973,1.60837171 66.8884625,-1.04254053 L73.4600926,-0.359813871 C77.3977334,4.54472661 78.2637893,41.633614 78.1809219,44.5886221 C77.9944297,51.2388295 79.6884129,103.406392 79.6202697,118.725214 C79.6083981,121.393995 78.9432004,122.510975 78.8276427,122.517254 L71.4675348,122.364614 Z M24.7762408,121.311482 L17.4944997,121.033461 C17.3819047,121.027247 16.7337611,119.921684 16.7221939,117.280181 C16.6557978,102.117939 18.592048,50.1869212 18.410337,43.6046883 C18.3295941,40.6798845 19.2846109,3.6977602 23.1212996,-1.15664901 L29.6307348,-1.85170083 C28.4608992,0.966542569 27.8356993,3.46872913 27.7551348,5.65485884 C27.7101201,6.87634286 26.3839109,19.6767047 25.7692055,43.6046883 C25.4601175,55.6362258 24.4367659,80.2830359 24.1142643,116.58513 C24.1041452,117.724175 24.3248041,119.299625 24.7762408,121.311482 Z" id="Combined-Shape" stroke="#67B1AC" stroke-width="2" fill="#67B1AC" mask="url(#mask-9)"></path>
                                            </g>
                                        </g>
                                    </g>
                                    <g id="face+hair" transform="translate(119.755725, 52.595420)">
                                        <g id="face" transform="translate(0.291063, 0.009435)">
                                            <g id="eyes" fill="#4C2F1C">
                                                <ellipse id="eye" cx="1.58459177" cy="2.96811624" rx="1.58459177" ry="2.96811624"></ellipse>
                                                <ellipse id="eye" cx="20.1863213" cy="2.96811624" rx="1.58459177" ry="2.96811624"></ellipse>
                                            </g>
                                            <path d="M8.18092646,2.80842813 C9.14002283,8.29251419 7.90022626,9.49620447 7.67289523,15.2500761 C7.66167843,15.5339795 8.10641952,15.6840616 8.38330535,15.6923339 C9.37628291,15.7220004 10.3539471,15.3033072 11.3458174,15.3598092 C12.8832089,15.447387 14.3696859,16.002655 15.9051313,16.1208157 C16.8441688,16.1930796 16.2822197,14.3098554 14.8751756,13.2639538" id="Path-29" stroke="#979797"></path>
                                            <path d="M6.06278592,22.614219 C8.73792115,25.8094635 16.1073516,27.9652371 18.007787,22.6570695" id="Path-2" stroke="#CC5C61"></path>
                                        </g>
                                    </g>
                                    <g id="head_whole" transform="translate(95.497759, 0.433333)">
                                        <g transform="translate(36.877660, 53.981322) scale(-1, 1) translate(-36.877660, -53.981322) translate(0.465446, 0.172162)">
                                            <g id="body_change_colour" transform="translate(0.000000, 33.984733)" fill="#EFDD93">
                                                <path d="M38.0667417,67.0053814 C39.9489525,67.1224511 41.8062215,67.2533907 43.6209308,67.3955682 C42.1274809,70.6916693 36.202113,73.7027751 29.1229895,73.6237838 C21.6167682,73.5400269 15.059931,71.0481023 13.9686078,67.421621 C15.8938581,67.3717372 18.1893079,66.9972805 20.2072208,67.0023892 L21.1049721,66.9989386 C21.0837973,66.780034 21.0744207,66.557792 21.0774732,66.3328751 L21.1399656,61.7282866 C21.1484653,61.1020091 21.2526225,60.4994471 21.438347,59.9343135 C12.9018328,56.3128697 6.35455547,46.6946354 4.56655801,35.3289303 C4.25892087,35.463634 3.93469713,35.5356339 3.59979155,35.5356339 C1.61168157,35.5356339 0,32.9983599 0,29.8684738 C0,26.7385878 1.61168157,24.2013138 3.59979155,24.2013138 C4.07573479,24.2013138 4.53010497,24.3467247 4.94595479,24.6108663 C5.38747233,23.0339544 5.81474143,21.4709516 5.72498818,20.0568459 C5.64965359,18.8699132 4.16216553,17.8276383 4.51124772,16.8202046 C8.19412107,6.1916172 18.4773346,0.761644051 28.8783278,0.761644051 C37.4119573,0.761644051 47.615285,-0.17963058 52.0769844,7.23839836 C54.0420898,10.5055858 53.9937934,17.1596292 53.8222311,23.0436659 C55.101429,23.9128681 55.9967574,25.9164714 55.9967574,28.2492853 C55.9967574,30.7926847 54.9324886,32.9447546 53.4667993,33.6619715 C52.9435666,39.2024717 51.4311559,44.3336341 48.7971743,48.9903793 C45.9967899,53.9413163 42.0763967,57.5324376 37.6326477,59.5584664 C37.9718676,60.3247321 38.1550787,61.1742887 38.1429783,62.0658804 L38.0804859,66.6704689 C38.0789601,66.7828971 38.0743515,66.894561 38.0667417,67.0053814 Z" id="head"></path>
                                            </g>
                                            <g id="face" transform="translate(30.949851, 71.015221) scale(-1, 1) translate(-30.949851, -71.015221) translate(19.621606, 58.877816)">
                                                <path d="M5.10377686,20.3270519 C7.81557483,23.487998 15.2860034,25.6206309 17.2124843,20.3694424" id="Path-2" stroke="#CC5C61"></path>
                                                <ellipse id="Oval-7" fill="#4C2F1C" cx="1.90136111" cy="3.23576164" rx="1.60630861" ry="2.93625583"></ellipse>
                                                <ellipse id="Oval-7" fill="#4C2F1C" cx="20.7580274" cy="3.23576164" rx="1.60630861" ry="2.93625583"></ellipse>
                                                <path d="M9.02149953,0.850504263 C9.99374033,6.27572294 8.73695234,7.46649254 8.50650574,13.1586008 C8.49513521,13.4394567 8.94597148,13.5879278 9.22665203,13.5961114 C10.2332384,13.6254594 11.2243014,13.2112606 12.2297653,13.2671561 C13.7882268,13.3537937 15.295076,13.9031014 16.8515647,14.0199937 C17.8034716,14.091482 17.2338211,12.2284727 15.8074934,11.193798" id="Path-29" stroke="#979797"></path>
                                            </g>
                                            <path d="M33.4789332,45.0774013 C26.5702524,45.0774013 19.0942491,44.7032511 13.4790891,43.2222124 C11.5700565,45.4374811 9.99129733,47.7863908 8.74281219,50.2689417 C8.5063899,50.7390558 9.42682685,56.3103434 8.74281219,58.0479028 C7.55816499,61.0571876 4.55482639,60.901129 3.93934628,62.8046126 C3.47255469,53.4277434 3.25896404,47.6875036 3.29857433,45.583893 C3.33818461,43.4802825 3.59449339,38.4997802 4.06750067,30.6423863 C4.06750067,29.8296741 4.06750067,28.8691762 4.06750067,27.7300587 C4.06750067,18.988569 17.0231144,14.5612731 33.4789332,14.5612731 C34.1906286,14.5612731 34.8964962,14.5723963 35.5957088,14.5943878 C38.4224609,14.0192318 40.9420879,13.2062483 43.1545896,12.1554373 C47.918389,9.89290668 52.1474838,5.97135692 55.8418739,0.390787998 L55.8418737,0 C55.925176,0.0009554447 56.0087186,0.0037695274 56.0924853,0.00841765832 C63.4411149,0.424330789 72.501945,14.9215993 72.501945,26.9488049 C72.501945,38.5356165 64.0925178,43.6638623 56.9118171,44.1523286 C56.0944727,44.2728266 55.2378008,44.3778754 54.3524171,44.4694312 C54.4994699,46.0874748 54.6114925,47.3453226 54.6884847,48.2429747 C54.7737133,49.2366531 53.7248472,62.5325224 52.7028305,59.9122949 C52.0182209,58.1571056 51.1360946,49.6065349 50.7476593,48.8760894 C49.9022699,47.2863497 48.9430094,45.965243 47.8698777,44.9127693 C42.6194673,45.1287205 37.2461466,45.0774013 33.4789332,45.0774013 Z" id="hair" fill="#FFC194" transform="translate(37.897936, 31.402306) rotate(-360.000000) translate(-37.897936, -31.402306) "></path>
                                        </g>
                                        <g id="glasses" transform="translate(14.027832, 51.657503)">
                                            <path d="M10.5062948,5.60302558 C9.67786763,5.60302558 9.00629476,6.27459845 9.00629476,7.10302558 L9.00629476,11.0565554 C9.00629476,14.0684568 11.4479232,16.5100853 14.4598246,16.5100853 L19.5653544,16.5100853 C22.5772558,16.5100853 25.0188843,14.0684568 25.0188843,11.0565554 L25.0188843,8.10302558 C25.0188843,6.7223137 23.8995962,5.60302558 22.5188843,5.60302558 L10.5062948,5.60302558 Z" id="Rectangle-3" stroke="#333333"></path>
                                            <path d="M33.4732906,5.60302558 C32.6448635,5.60302558 31.9732906,6.27459845 31.9732906,7.10302558 L31.9732906,11.0565554 C31.9732906,14.0684568 34.4149191,16.5100853 37.4268204,16.5100853 L42.5323503,16.5100853 C45.5442517,16.5100853 47.9858801,14.0684568 47.9858801,11.0565554 L47.9858801,8.10302558 C47.9858801,6.7223137 46.866592,5.60302558 45.4858801,5.60302558 L33.4732906,5.60302558 Z" id="Rectangle-3" stroke="#333333"></path>
                                            <path d="M32.1061091,5.95352984 L32.3239201,5.95352984 L32.3239201,10.2060512 L31.4137358,10.2060512 C31.1378858,9.23552359 29.9364333,8.50504263 28.4960874,8.50504263 C27.0557416,8.50504263 25.8542891,9.23552359 25.5784391,10.2060512 L24.6682548,10.2060512 L24.6682548,5.95352984 L24.8860658,5.95352984 C25.411546,6.44903038 26.8294251,6.8040341 28.4960874,6.8040341 C30.1627498,6.8040341 31.5806288,6.44903038 32.1061091,5.95352984 Z" id="Combined-Shape" fill="#333333"></path>
                                        </g>
                                    </g>
                                </g>
                                <g id="avatar_3" transform="translate(229.517870, 186.931996) rotate(-225.000000) translate(-229.517870, -186.931996) translate(168.830847, -16.571821)">
                                    <g id="top" transform="translate(63.923664, 147.267176) rotate(-360.000000) translate(-63.923664, -147.267176) translate(6.473282, 72.015267)">
                                        <path d="M86.3132378,9.19577772 C90.3434469,12.5824607 96.6215691,74.4125561 99.301638,117.693718 C99.301638,117.693718 99.301638,117.693718 99.301638,117.693718 L99.301638,117.693718 C99.8840545,127.09932 92.7314495,135.196209 83.3258476,135.778625 C82.778489,135.812519 82.2298147,135.820004 81.6817352,135.801056 L31.8165926,134.077142 C22.9853144,133.771824 16.0736579,126.36515 16.3789756,117.533871 C16.3959982,117.041494 16.4357536,116.550166 16.4981147,116.061458 C20.8176776,82.2101171 22.935607,64.3348405 22.8519027,62.4356279 C22.7177461,59.3916705 19.3882061,16.2733797 25.7629732,11.2212068 C36.5195466,2.69633541 82.6167626,6.08953949 86.3132378,9.19577772 Z" id="shirt" fill="#FBE7E9"></path>
                                        <g id="sleeve" transform="translate(0.000000, 8.851858)" fill="#8295B5">
                                            <path d="M29.2562577,0.316092683 C20.4516917,4.04590744 15.2372688,8.32215469 13.6129891,13.1448344 C11.9887095,17.9675142 7.58347532,36.7541734 0.397286715,69.5048122 C-0.132428905,75.8848599 -0.132428905,80.5454889 0.397286715,83.4866993 C0.927002336,86.4279097 1.65210211,95.6050245 2.57258603,111.018044 L27.2259783,111.018044 L29.2562577,0.316092683 Z" id="Path-16"></path>
                                        </g>
                                        <g id="gilet_left" transform="translate(13.755725, 0.804714)" fill="#445B67">
                                            <path d="M24.4049704,141.951014 C23.561989,143.498628 21.5641998,144.629712 18.4116029,145.344265 L0.799626877,135.559075 L1.22083486,131.747512 C0.94944209,131.353844 3.94963839,105.814276 5.12033218,96.4604815 L9.05304576,60.8728725 C8.65039065,54.3277072 5.9545134,15.213446 12.007248,10.4164924 C15.6757126,7.50913636 23.4546825,5.98798353 32.2603776,5.36889453 C34.0012725,5.24650001 34.004398,13.9846688 35.1502578,15.9140857 C39.3635625,23.0085149 37.1129912,62.2470956 28.3985441,133.629828 C26.4967148,137.780999 25.1655236,140.554728 24.4049704,141.951014 Z" id="Combined-Shape"></path>
                                            <path d="M34.3939163,0 C33.3022729,2.5176286 32.9217416,4.49702521 33.2523225,5.93818981 C33.5829034,7.37935442 35.3904269,11.6209186 38.6748931,18.6628823 C39.7975201,47.7554518 39.7975201,69.2460435 38.6748931,83.1346574 C37.5522661,97.0232713 34.0323518,119.079405 28.1151503,149.303058 L18.4116029,145.344265 C21.5641998,144.629712 23.561989,143.498628 24.4049704,141.951014 C25.2479519,140.403399 26.4846785,135.596293 28.1151503,127.529696 L36.3917055,22.6216755 C32.4632509,17.4300864 30.3703289,13.3770362 30.1129395,10.4625249 C29.8555501,7.54801366 31.2825424,4.06050535 34.3939163,0 Z" id="Path-31"></path>
                                        </g>
                                        <g id="gilet_right" transform="translate(87.712977, 75.330157) scale(-1, 1) translate(-87.712977, -75.330157) translate(61.010687, 0.482829)" fill="#445B67">
                                            <g id="gilet" transform="translate(14.564885, 0.000000)">
                                                <path d="M23.6065334,142.258991 C22.7635095,143.807089 20.7656196,144.938525 17.6128638,145.653301 L0,135.865059 L0.421229212,132.052308 C0.149822765,131.658516 3.1501703,106.110983 4.32092309,96.7542713 L8.25383491,61.1555631 C7.85115951,54.6083564 5.15514637,15.4818961 11.208186,10.6834464 C14.8768356,7.77518355 22.6561976,6.25355629 31.4623365,5.63427421 C33.2033192,5.51184151 33.2064449,14.2527356 34.3523624,16.1827542 C38.5658795,23.2793961 36.3151948,62.5302148 27.6003084,133.93521 C25.6983832,138.087676 24.3671249,140.86227 23.6065334,142.258991 Z" id="Combined-Shape"></path>
                                                <path d="M33.7330332,0 C32.64486,2.52393206 32.2655384,4.50828454 32.5950684,5.95305744 C32.9245984,7.39783033 34.7263759,11.6500142 38.000401,18.7096091 C39.1194592,47.8750186 39.1194592,69.4194169 38.000401,83.3428041 C36.8813427,97.2661914 33.3726181,119.377548 27.4742271,149.676873 L17.8015267,145.708168 C20.9441017,144.991826 22.93554,143.85791 23.7758416,142.306421 C24.6161433,140.754931 25.8489384,135.93579 27.4742271,127.848995 L35.7244715,22.6783141 C31.8085052,17.4737266 29.7222365,13.4105287 29.4656654,10.4887202 C29.2090942,7.56691185 30.6315502,4.07067176 33.7330332,0 Z" id="Path-31"></path>
                                            </g>
                                        </g>
                                    </g>
                                    <g id="scarf" transform="translate(54.618321, 130.274809) rotate(-16.000000) translate(-54.618321, -130.274809) translate(16.992366, 65.541985)" fill="#8D4763" stroke="#7FB7B5">
                                        <path d="M40.6594237,7.98478698 C45.0832085,2.96738999 49.3156001,0.305794327 53.3565985,0 C54.5846179,3.56043641 55.2567386,6.02763191 55.3729607,7.40158649 C55.5094045,9.01459799 53.938345,10.5228063 54.1846751,11.5641742 C54.9117303,14.6378224 56.5678835,18.951443 59.1531348,24.5050359 C55.2929248,30.6789109 52.8086949,35.2678689 51.7004453,38.27191 C50.5921956,41.2759511 40.3792506,71.1041783 21.0616104,127.756592 C15.5901765,128.44013 11.7258189,128.44013 9.4685377,127.756592 C7.21125649,127.073054 6.47518839,125.879925 7.26033338,124.177204 L32.3786575,55.3428339 L5.60418014,126.379904 C4.4886609,127.716803 3.69547924,128.502671 3.22463518,128.737506 C2.75379112,128.972341 1.89081953,129.012486 0.635720433,128.857942 C-0.211906811,118.397212 -0.211906811,110.137088 0.635720433,104.077568 C1.48334768,98.0180488 3.69155199,90.4921576 7.26033338,81.4998947 C10.7775825,69.8699396 13.8138634,61.2426985 16.3691762,55.6181714 C18.9244889,49.9936442 27.0212381,34.1158494 40.6594237,7.98478698 Z" id="Path-6"></path>
                                        <path d="M64.2061089,22.6835375 C67.0781242,16.1943657 68.9766114,8.40076288 71.2351694,9.81838176 C73.2665397,11.0934027 73.9873843,18.3948442 72.5806821,24.7867067 C72.9474433,24.8134057 73.2807479,24.9172276 73.5766574,25.1029597 C76.8126348,27.134071 73.7377355,37.9404067 66.7086776,49.2395862 C63.4982872,54.4002745 60.0627087,62.9687794 56.9207778,66.0013142 C55.6071254,67.2692277 53.9443633,68.0051851 52.2638762,68.3785762 C47.6501395,77.4150322 44.2934336,84.4943102 42.1937587,89.61641 C39.9239116,95.1536401 38.71603,104.380124 38.5701138,117.295862 C38.5628504,118.665526 38.4716579,119.586056 38.2965363,120.057454 C38.1214147,120.528852 37.6654523,121.081171 36.9286491,121.714409 C35.6949499,120.535624 34.6006402,119.983306 33.6457198,120.057454 C32.6907994,120.131603 31.4141046,120.868027 29.8156355,122.266728 L34.2273329,96.6766751 L29.8156355,120.609773 C28.5997358,121.346197 27.6878109,121.714409 27.0798611,121.714409 C26.4719112,121.714409 25.4687939,121.346197 24.0705091,120.609773 L36.9957872,64.2097641 C38.5092761,57.8951666 41.3362431,51.9117174 45.476688,46.2594164 C49.3901346,40.9170009 55.6332748,33.0583746 64.2061089,22.6835375 Z" id="Combined-Shape"></path>
                                    </g>
                                    <g id="body_change_colour" transform="translate(33.984733, 13.755725)" fill="#EDB597">
                                        <path d="M3.4373059,22.7373074 C2.9784187,20.1966603 2.5168067,17.7245771 3.22276992,15.716766 C6.8415933,5.42456722 18.1559897,0.0373440804 28.376096,0.0373440804 C36.7613146,0.0373440804 46.7871931,-0.874139749 51.1712977,6.30911284 C53.1022273,9.47289567 53.0547709,15.9163424 52.8861923,21.6141527 C54.1431433,22.4558452 55.0229008,24.3960356 55.0229008,26.6550172 C55.0229008,29.1179195 53.977141,31.2018776 52.536942,31.8963951 C52.0228089,37.2615417 50.536701,42.2303056 47.9485278,46.7396675 C45.2266694,51.4819485 41.4280074,54.9358398 37.1199609,56.9089554 C37.3094769,57.4628059 37.4028913,58.0595168 37.3811067,58.678759 L37.0522579,68.026513 C36.9558455,70.767103 34.6395437,72.9112071 31.878653,72.8155036 L25.1728289,72.5830529 C22.4119383,72.4873494 20.2519519,70.1880792 20.3483643,67.4474892 L20.6772131,58.0997352 C20.6878266,57.7980388 20.7253421,57.5035709 20.7873911,57.2185239 C12.5354528,53.6237886 6.2245736,44.3946276 4.48713961,33.5105956 C4.18485268,33.641036 3.86626762,33.7107571 3.53718648,33.7107571 C1.58365233,33.7107571 0,31.2537864 0,28.2229594 C0,25.2439569 1.52995727,22.8193536 3.4373059,22.7373074 Z" id="head"></path>
                                    </g>
                                    <g id="scarf_part_2" transform="translate(46.122137, 67.969466)">
                                        <path d="M24.2748092,16.9923664 C28.4225187,10.3546436 29.0438624,4.97658981 26.2593626,3.23664122 C24.4591912,2.11176931 25.4741678,6.9236122 23.4656489,12.1374046 C22.3673966,14.988291 16.8402727,16.8633607 15.3740458,19.2098142 C15.3415158,19.2618731 12.2837589,33.2996666 13.7557252,34.7938931 C15.9950868,37.0671202 21.7721411,20.9974724 24.2748092,16.9923664 Z" id="Oval-10" fill="#8D4763"></path>
                                        <path d="M15.3740458,18.610687 L15.3740458,19.2098142 C13.3138546,28.6030491 12.7744144,33.7977421 13.7557252,34.7938931" id="Oval-10" stroke="#7FB7B5"></path>
                                        <path d="M4.20763363,0.323664199 C5.42969088,5.75530789 6.77829139,9.53138931 8.25343515,11.6519085 C9.72857892,13.7724276 12.1021158,16.0920205 15.3740458,18.610687 C14.5963483,19.095658 14.0569081,19.3653781 13.7557252,19.4198473 C13.4545423,19.4743166 8.92324461,20.1216448 0.1618321,21.3618321 L4.20763363,0.323664199 Z" id="Path-11" fill="#8D4763"></path>
                                    </g>
                                    <g id="face" transform="translate(55.022901, 38.030534)">
                                        <path d="M14.2818655,3.35223555 C16.3181072,13.5546264 20.1507792,17.1299569 10.9398473,16.731545" id="Path-9" stroke="#55383C"></path>
                                        <path d="M5.04916031,20.9514722 C12.170879,24.0868538 8.78837641,24.0843606 15.1474809,22.0752788" id="Path-8" stroke="#CC5C61"></path>
                                        <g id="eyes" fill="#55383C">
                                            <ellipse id="eye" cx="19.3551145" cy="1.67611778" rx="1.68305344" ry="1.67611778"></ellipse>
                                            <ellipse id="eye" cx="1.68305344" cy="1.67611778" rx="1.68305344" ry="1.67611778"></ellipse>
                                        </g>
                                    </g>
                                    <g id="hair" transform="translate(29.938931, 0.000000)">
                                        <path d="M54.2137405,25.0839695 C55.0209948,26.0379974 55.5604351,31.7021195 55.8320611,42.0763359 C56.6409427,38.445895 57.1165732,36.0184141 57.2589526,34.7938931 C57.5283955,32.4765735 57.0292229,31.5451832 57.2589526,30.1007634 C57.3386689,29.5995492 57.4015268,28.8137399 57.4503817,28.3206107 C57.5860706,26.9510001 57.5222609,25.0629594 57.2589526,22.6564885 C54.8130661,23.783474 53.7979954,24.5926343 54.2137405,25.0839695 Z" id="Path-13" fill="#87857C"></path>
                                        <path d="M4.76735834,37.768716 C6.1980718,38.3328098 7.22523735,38.9833581 7.848855,39.7203608 C8.65610939,40.6743887 9.60012975,43.6174745 10.6809161,48.5496183 C10.8014508,43.2409667 10.8014508,39.1951652 10.6809161,36.4122137 C10.5603813,33.6292623 10.8301014,31.2017814 11.4900764,29.129771 C8.75130394,30.0413556 6.86326323,30.8743512 5.82595424,31.6287577 C4.85353844,32.3359692 4.08161863,34.0394131 3.51019482,36.7390894 C3.47206142,36.9192496 4.34605603,37.6026073 4.76735834,37.768716 Z" id="Path-13" fill="#87857C"></path>
                                        <path d="M28.8853078,0 C20.9992593,1.94442948 15.7582839,3.83247019 13.1623815,5.66412214 C10.9548189,7.22176405 7.50365362,10.965818 2.8088857,16.896284 L2.80888516,16.8962835 C1.02024003,19.1557135 0.0330204066,21.9454074 0.00237023561,24.8269583 C-0.0142880323,26.3930718 0.0568607584,27.5576226 0.215816608,28.3206107 C0.503572085,29.701837 2.04995383,33.7476385 4.85496183,40.4580153 C4.75994585,38.4774954 4.83188472,37.1288949 5.07077844,36.4122137 C5.30967216,35.6955326 6.11883246,34.3469321 7.49825936,32.3664122 C8.06611054,32.9342634 8.60555074,33.4737036 9.11657997,33.9847328 C9.62760919,34.4957621 10.4367695,35.5746425 11.5440609,37.221374 C11.0673566,37.2087826 11.0673566,36.1299022 11.5440609,33.9847328 C12.0207652,31.8395634 13.0996456,30.4909629 14.7807021,29.9389313 L16.3990227,33.9847328 C16.8698242,32.1236403 17.4092644,30.7750398 18.0173433,29.9389313 C18.6254222,29.1028228 20.2437428,27.4845022 22.8723052,25.0839695 L20.4448242,31.5572519 C26.8091742,24.8038783 31.664136,20.7580768 35.0097097,19.4198473 C38.3552835,18.0816178 42.6708051,18.0816178 47.9562746,19.4198473 C47.0873399,20.4083308 46.5478997,21.2174911 46.337954,21.8473282 C46.1280083,22.4771654 45.8582882,24.095486 45.5287937,26.7022901 C46.4011335,25.3572179 47.0754338,24.5480576 47.5516945,24.2748092 C49.7455477,23.016114 51.2714095,23.4050783 51.7862595,23.4656489 C52.8100129,23.5860904 53.8645542,24.9154081 54.2137405,25.8931298 C54.4465313,26.5449442 55.5254117,29.5118653 57.4503817,34.7938931 L58.4753586,16.1832061 C54.1380587,9.52486524 50.6316974,5.47906372 47.9562746,4.04580153 C45.2808519,2.61253934 41.5047704,1.80337903 36.6280303,1.61832061 L28.8853078,0 Z" id="Path-12" fill="#FAF389"></path>
                                    </g>
                                </g>
                            </g>
                        </g>
                    </g>
                </g>
            </g>
        </g>
    </g>
</svg>
