<svg viewBox="0 0 212 202" xmlns="http://www.w3.org/2000/svg" xmlns:xlink="http://www.w3.org/1999/xlink">
  <defs>
    <path d="M22.799 29.578c101.837-74.636 224.293 3.288 179.018 118.09-23.764 60.255-137.59 73.34-175.867 22.757C-3.003 132.165-1.9 123.932 2.312 84.166c2.808-26.51 9.637-44.706 20.487-54.588z" id="path-1"/>
    <linearGradient x1="0%" y1="0%" y2="100%" id="linearGradient-3">
      <stop stop-color="#9155C7" offset="0%"/>
      <stop stop-color="#C965A6" offset="52.983%"/>
      <stop stop-color="#FF8077" offset="100%"/>
    </linearGradient>
    <path id="path-4" d="M0 0h254.076v268.641H0z"/>
    <filter x="-5.5%" y="-3.7%" width="111%" height="110.4%" filterUnits="objectBoundingBox" id="filter-5">
      <feOffset dy="4" in="SourceAlpha" result="shadowOffsetOuter1"/>
      <feGaussianBlur stdDeviation="4" in="shadowOffsetOuter1" result="shadowBlurOuter1"/>
      <feComposite in="shadowBlurOuter1" in2="SourceAlpha" operator="out" result="shadowBlurOuter1"/>
      <feColorMatrix values="0 0 0 0 0.0470588235 0 0 0 0 0 0 0 0 0 0.2 0 0 0 0.1 0" in="shadowBlurOuter1"/>
    </filter>
    <path d="M2.418 32.757c11.68.434 11.512.95 23.482-.837 4.959-.74 9.475-2.67 13.655-5.56 3.812-2.635 7.56-5.457 10.77-8.826C63.938 3.257 26.427-.848 19.364.14 11.114 1.291 5.457 8.825 2.117 16.137-.795 22.512.115 24.278.203 31.527l2.215 1.23z" id="path-6"/>
    <path d="M9.507 105.187A13.84 13.84 0 0 1 3.11 94.02C3.025 91.703-.305 56.078.159 31.22.386 19.058 2.447 9.513 4.446 7.63c2.299-2.164 3.863-3.883 8.695-5.132C19.518.849 33.12.958 40.487.848c11.975-.176 19.79.125 24.106 0C73.574.59 82.152 4.109 85.68 7.632c7.946 7.932 5.857 15.949 5.856 17.544-.002 5.41.387 16.055 0 27.262-.71 20.592-2.4 43.798-2.39 44.978a12.156 12.156 0 0 1-4.513 9.574v8.447l-5.346 5.072c-9.154 1.234-17.026 1.8-23.617 1.698-6.591-.102-16.994-.951-31.209-2.546L9.843 117.5l-.92-12.316.584.003z" id="path-8"/>
  </defs>
  <g id="Assets" fill="none" fill-rule="evenodd">
    <g id="onboarding" transform="translate(-494 -320)">
      <g id="charachters" transform="translate(494 320)">
        <mask id="mask-2" fill="#fff">
          <use xlink:href="#path-1"/>
        </mask>
        <use id="Mask" fill="#BDF0E6" xlink:href="#path-1"/>
        <g id="inside" mask="url(#mask-2)">
          <g transform="translate(-294.626 -157.542)">
            <g id="bg" transform="translate(278.443 128.412)">
              <g id="Rectangle">
                <use fill="#000" filter="url(#filter-5)" xlink:href="#path-4"/>
                <use fill-opacity=".66" fill="url(#linearGradient-3)" xlink:href="#path-4"/>
              </g>
            </g>
            <g id="charachters">
              <g id="avatar_1" transform="rotate(-45 580.994 -224.07)">
                <path d="M101.939 26.012c1.844-10.92 8.272-12.45 19.388-12.803 8.406-.267 16.82-.302 25.23-.23 4.267.036 9.854.005 13.54 2.839 4.287 3.296 4.01 14.262 4.074 17.655.161 8.493.238 43.753-1.03 55.983-.116 1.122-3.634 2.266-3.999 2.367-5.506 1.516-7.01 1.644-12.674 1.813-16.346.486-18.228.22-37.107-1.088-2.53-.176-5.75-1.489-7.304-3.505-1.42-1.841-1.492-3.071-1.489-5.546.028-20.103-1.384-41.304 2.44-61.336" id="hair" fill="#6471E8"/>
                <g id="upper" transform="rotate(15 7.498 354.24)">
                  <g id="top" transform="rotate(-15 283.846 37.18)">
                    <path d="M86.313 8.437c4.03 3.406 10.309 65.578 12.989 109.098.582 9.459-6.614 17.599-16.073 18.182-.55.033-1.1.04-1.65.022l-49.778-1.73c-8.831-.308-15.741-7.716-15.434-16.547a16 16 0 0 1 .117-1.459c4.33-34.11 6.452-52.12 6.368-54.032-.134-3.06-3.464-46.417 2.911-51.497 10.757-8.572 56.854-5.16 60.55-2.037z" id="shirt" fill="#FEFEFE"/>
                    <path d="M86.313 8.437c4.03 3.406 3.725 48.855 6.405 92.376a2.236 2.236 0 0 1-4.388.73C75.58 55.213 68.72 28.881 67.747 22.548c-.422-2.744.911-7.796.954-9.019.165-4.703-3.339-8.268-.954-8.12 9.5.591 17.15 1.831 18.566 3.028z" id="Rectangle-5" fill="#E0AAAA"/>
                    <path d="M64.902.29c3.529 4.348 6.236 7.192 8.122 8.531 1.886 1.34 4.69 2.383 8.413 3.13L69.745 25.327 99.69 147.12l-7.997 12.537L64.611 22.48c1.711-3.667 2.567-6.513 2.567-8.536 0-2.024-.759-6.575-2.276-13.653z" id="Path-30" fill="#F67089"/>
                    <path d="M16.015 119.723H2.573C1.653 104.225.927 94.997.397 92.04c-.53-2.958-.53-7.644 0-14.06C7.583 45.05 11.99 26.158 13.613 21.31c1.624-4.85 6.839-9.15 15.643-12.9l-.002.118c4.148-1.688 10.167-2.663 16.762-3.13 1.741-.123 1.744 8.664 2.89 10.604 4.213 7.134 1.963 46.589-6.752 118.366-1.902 4.174-3.233 6.963-3.993 8.367-.843 1.556-2.841 2.694-5.994 3.412l-17.612-9.839.422-3.833a2.316 2.316 0 0 1-.406-1.395c.506-3.968.987-7.752 1.444-11.357z" id="Combined-Shape" fill="#E0AAAA"/>
                    <path d="M48.15 0c-1.092 2.532-1.473 4.522-1.142 5.971.33 1.45 2.138 5.714 5.423 12.795 1.122 29.253 1.122 50.863 0 64.828-1.123 13.965-4.643 36.143-10.56 66.534l-9.704-3.98c3.153-.72 5.15-1.857 5.994-3.413.843-1.556 2.08-6.39 3.71-14.5l8.276-105.488c-3.928-5.22-6.02-9.296-6.278-12.227-.258-2.93 1.17-6.437 4.28-10.52z" id="Path-31" fill="#F67089"/>
                    <path d="M84.567 7.42c8.837 3.763 14.07 8.079 15.7 12.946 1.63 4.867 6.052 23.827 13.265 56.88.531 6.439.531 11.143 0 14.11-.532 2.97-1.116 14.68-1.752 35.132H87.036L84.566 7.42z" id="Path-16" fill="#E0AAAA"/>
                  </g>
                  <g id="body_change_colour" transform="translate(20.997 .752)" fill="#E8E8E8">
                    <path d="M4.375 42.6c-1.545.057-3.15-1.479-3.743-3.69-.64-2.39.137-4.686 1.738-5.215-.464-2.048-.97-4.228-1.41-6.576-.35-1.858 12.348-8.63 25.08-13.691.847-.337 2.133-12.954 2.977-13.273.911-.346 3.89 11.352 4.78 11.194 5.24-.934 10.895-5.89 11.637-3.12.743 2.772 9.155 20.177 9.155 30.537 0 8.66-5.122 14.474-12.487 17.672l2 8.66a4.855 4.855 0 0 1-3.639 5.824l-6.849 1.58a4.855 4.855 0 0 1-5.822-3.638l-2.172-9.406a4.957 4.957 0 0 1-.009-.038c-12.405-.21-18.25-6.383-21.236-16.82z" id="head"/>
                  </g>
                  <g id="face" transform="translate(41.337 22.34)">
                    <path d="M14.064 9.165c1.872 10.145 2.707 5.484-1.758 6.787-.317.093.399.518.598.777" id="Path-2" stroke="#55383C" stroke-width=".5"/>
                    <path d="M15.429 19.057c-4.547 2.455-2.163 1.993-7.132 1.495" id="Path-3" stroke="#CC5C61" stroke-width=".5"/>
                    <g id="eyes" fill="#55383C">
                      <ellipse id="eye" cx="19.504" cy="1.746" rx="1.747" ry="1.746"/>
                      <ellipse id="eye" cx="1.747" cy="6.255" rx="1.747" ry="1.746"/>
                    </g>
                  </g>
                </g>
                <path d="M127.118 59.878c-4.513 0-8.171-3.623-8.171-8.092s3.658-8.091 8.17-8.091c4.514 0 8.172 3.622 8.172 8.091 0 4.47-3.658 8.092-8.171 8.092zm8.172-8.092c.023-1.283.667-2.312 1.458-2.312.791 0 1.435 1.029 1.459 2.312m8.171 8.092c-4.512 0-8.17-3.623-8.17-8.092s3.658-8.091 8.17-8.091c4.513 0 8.172 3.622 8.172 8.091 0 4.47-3.659 8.092-8.172 8.092z" id="glasses" stroke="#8F8DC2"/>
                <g id="hat" transform="rotate(-8 104.18 -675.681)">
                  <mask id="mask-7" fill="#fff">
                    <use xlink:href="#path-6"/>
                  </mask>
                  <use id="Mask" fill="#8F8DC2" xlink:href="#path-6"/>
                  <path d="M0 13.31c8.965-2.677 17.691-6.403 26.894-8.03 5.531-.98 11.226.441 16.838.293 1.967-.052 3.892-.595 5.838-.893M0 19.106c9.995-2.677 19.725-6.403 29.985-8.03 6.167-.98 12.517.441 18.774.293 2.193-.052 4.339-.595 6.508-.893M0 25.508c9.995-2.677 19.725-6.402 29.985-8.03 6.167-.979 12.517.442 18.774.293 2.193-.052 4.339-.595 6.508-.892M0 33.075c9.995-2.677 19.725-6.403 29.985-8.031 6.167-.979 12.517.442 18.774.294 2.193-.052 4.339-.595 6.508-.893M-2.849 6.883C7.146 4.206 16.876.481 27.136-1.147c6.167-.979 12.517.442 18.774.293 2.193-.051 4.339-.595 6.509-.892" id="Path-7" stroke="#504D6B" mask="url(#mask-7)"/>
                </g>
              </g>
              <g id="charachter_5" transform="matrix(1 0 0 -1 325.61 268.374)">
                <g id="body_change_colour" transform="translate(8.9 8.092)" fill="#30A1D2">
                  <path d="M90.25 97.26a106.968 106.968 0 0 1-5.722-10.775c-1.324-2.869 5.741-10.292 6.866-29.49.238-4.067-1.669-12.196-5.722-24.386.028-5.252.028-9.127 0-11.626-.036-3.313.593-7.49 0-9.924C84.411 5.87 81.073 2.185 75.66 0c-1.118.443-1.786.821-2.003 1.134-.577.833-.685 2.5-.572 3.12.107.581.635 1.654 1.717 2.835.478.522 1.622 1.184 3.432 1.985 1.903 3.461 2.762 6.486 2.575 9.074-.186 2.588-1.521 6.18-4.005 10.775-5.723-.352-10.014-1.58-12.873-3.686-2.86-2.106-5.244-5.792-7.152-11.06-1.54-4.476-3.351-7.501-5.436-9.073-2.084-1.572-4.659-1.855-7.724-.85-1.477 1.136-2.145 1.986-2.002 2.551.08.316.378 1.703 1.144 2.552.403.447 1.26 1.014 2.575 1.702 4.48 2.68 7.245 5.043 8.296 7.089 1.051 2.045.86 4.692-.572 7.94-1.153 2.673-2.488 4.847-4.005 6.521-3.886 4.288-10.625 9.603-12.301 12.76-2.66 5.008-2.945 9.356-.859 13.044-2.954 2.203-4.384 3.527-4.29 3.97.043.209-.162 2.457.857 3.686.428.516 2.225.813 3.433 1.702.63.463 1.489 1.409 2.575 2.835.398 5.427 1.066 9.019 2.002 10.775.937 1.757 3.798 5.065 8.583 9.925v10.492L90.25 97.26z" id="head"/>
                </g>
                <g id="right_arm" transform="matrix(-1 0 0 1 34.794 84.962)">
                  <g id="Group-3">
                    <ellipse id="Oval-4" fill="#FFEA80" cx="16.374" cy="18.275" rx="16.374" ry="16.245"/>
                    <path d="M34.538 17.768c0-8.972-6.563-17.514-15.606-17.514S0 1.689 0 10.66c0 8.971 34.538 16.078 34.538 7.107z" id="Oval-4" fill="#FF7D68"/>
                  </g>
                </g>
                <g id="head-whole" transform="translate(52.595 42.076)">
                  <path d="M25.858 35.86c-7.777 3.818-13.673 5.294-20.484-.474" id="mouth" stroke="#CC5C61" stroke-width="2"/>
                  <g id="eyes">
                    <g id="left_eye" transform="translate(14.678 12.286)">
                      <ellipse id="Oval-11" fill="#FFF" cx="6.492" cy="6.422" rx="6.492" ry="6.422"/>
                      <ellipse id="eye" fill="#27221B" cx="6.54" cy="6.743" rx="2.54" ry="2.743"/>
                    </g>
                    <g id="right_eye" transform="translate(0 10.052)">
                      <ellipse id="Oval-11" fill="#FFF" cx="4.799" cy="4.747" rx="4.799" ry="4.747"/>
                      <ellipse id="eye" fill="#27221B" cx="4.976" cy="5.133" rx="1.976" ry="2.133"/>
                    </g>
                    <g id="top-eye" transform="translate(11.29)">
                      <ellipse id="Oval-11" fill="#FFF" cx="3.669" cy="3.63" rx="3.669" ry="3.63"/>
                      <ellipse id="eye" fill="#27221B" cx="3.81" cy="3.955" rx="1.81" ry="1.955"/>
                    </g>
                  </g>
                </g>
                <path d="M117.193 101.917c2.378 21.95 3.277 37.957 2.698 48.02-.58 10.061-3.193 38.386-7.84 84.974v11.634c5.817 3.151 9.823 5.791 12.019 7.92 2.195 2.13 3.994 5.926 5.396 11.387l-24.282 1.98-3.07-10.51-2.571-8.797c-10.501-15.575-20.394-24.733-29.678-27.475-9.283-2.742-16.311 4.27-21.084 21.04v23.762l-38.262 1.485c1.046-3.768 2.11-6.243 3.189-7.426 1.079-1.182 2.878-1.843 5.395-1.98 4.896 1.92 8.411 2.58 10.547 1.98 2.136-.6 5.079-3.075 8.83-7.425-8.99-44.103-13.881-72.799-14.674-86.087-.58-9.73.3-28.583 2.637-56.562l5.396-14.356c21.697 4.436 38.101 7.073 49.212 7.911 11.112.838 23.159.346 36.142-1.475z" id="body-vest" fill="#FF7D68"/>
                <ellipse id="air_bubble" fill="#DCEBF0" opacity=".37" cx="76.466" cy="59.069" rx="59.473" ry="59.069"/>
                <g id="left_arm" transform="translate(110.855 95.48)">
                  <g id="shoulder">
                    <ellipse id="Oval-4" fill="#FFEA80" cx="16.374" cy="18.275" rx="16.374" ry="16.245"/>
                    <path d="M34.538 17.768c0-8.972-6.563-17.514-15.606-17.514S0 1.689 0 10.66c0 8.971 34.538 16.078 34.538 7.107z" id="Oval-4" fill="#FF7D68"/>
                  </g>
                </g>
              </g>
              <g id="character_2" transform="rotate(45 -51.296 424.285)">
                <g id="upper" transform="rotate(15 -218.215 324.155)">
                  <g id="top" transform="rotate(-15 119.868 12.724)">
                    <g id="sleeve" transform="translate(92.765 3.395)" fill="#163747">
                      <path d="M0 0c8.272 3.286 13.496 6.664 15.671 10.136 5.925 9.453 5.714 24.13 6.002 27.784.45 5.706 1.792 15.91 4.028 30.61.508 6.188.508 10.707 0 13.56-.507 2.851-1.212 13.475-2.113 31.869H3.019L.069 58.677 0 3.395V0z" id="Path-16"/>
                    </g>
                    <g id="shirt" transform="translate(14.322)">
                      <mask id="mask-9" fill="#fff">
                        <use xlink:href="#path-8"/>
                      </mask>
                      <use id="Mask" fill="#163747" xlink:href="#path-8"/>
                      <path d="M71.468 122.365c.387-1.744.576-3.191.566-4.342-.331-36.677-1.088-61.279-1.406-73.434-.63-24.175-1.992-37.108-2.038-38.342-.082-2.209-.65-4.639-1.702-7.29l6.572.683c3.938 4.905 4.804 41.994 4.72 44.949-.186 6.65 1.508 58.817 1.44 74.136-.012 2.669-.677 3.786-.792 3.792l-7.36-.152zm-46.692-1.054l-7.282-.278c-.112-.006-.76-1.111-.772-3.753-.066-15.162 1.87-67.093 1.688-73.675-.08-2.925.875-39.907 4.711-44.762l6.51-.695c-1.17 2.819-1.795 5.32-1.876 7.507-.045 1.221-1.371 14.022-1.986 37.95-.309 12.031-1.332 36.678-1.655 72.98-.01 1.14.21 2.715.662 4.726z" id="Combined-Shape" stroke="#67B1AC" stroke-width="2" fill="#67B1AC" mask="url(#mask-9)"/>
                    </g>
                  </g>
                </g>
                <g id="face+hair" transform="translate(119.756 52.595)">
                  <g id="face" transform="translate(.291 .01)">
                    <g id="eyes" fill="#4C2F1C">
                      <ellipse id="eye" cx="1.585" cy="2.968" rx="1.585" ry="2.968"/>
                      <ellipse id="eye" cx="20.186" cy="2.968" rx="1.585" ry="2.968"/>
                    </g>
                    <path d="M8.18 2.808c.96 5.485-.28 6.688-.507 12.442-.011.284.433.434.71.442.993.03 1.97-.389 2.963-.332 1.537.087 3.024.643 4.56.76.938.073.376-1.81-1.03-2.856" id="Path-29" stroke="#979797"/>
                    <path d="M6.063 22.614c2.675 3.195 10.044 5.351 11.945.043" id="Path-2" stroke="#CC5C61"/>
                  </g>
                </g>
                <g id="head_whole" transform="translate(95.498 .433)">
                  <g transform="matrix(-1 0 0 1 73.29 .172)">
                    <g id="body_change_colour" transform="translate(0 33.985)" fill="#EFDD93">
                      <path d="M38.067 67.005c1.882.117 3.74.248 5.554.39-1.494 3.297-7.419 6.308-14.498 6.229-7.506-.084-14.063-2.576-15.154-6.202 1.925-.05 4.22-.425 6.238-.42l.898-.003a6.062 6.062 0 0 1-.028-.666l.063-4.605a5.998 5.998 0 0 1 .298-1.794C12.902 56.313 6.355 46.694 4.567 35.33a2.396 2.396 0 0 1-.967.207c-1.988 0-3.6-2.538-3.6-5.668 0-3.13 1.612-5.667 3.6-5.667.476 0 .93.146 1.346.41.441-1.577.869-3.14.779-4.554-.075-1.187-1.563-2.23-1.214-3.237C8.194 6.192 18.477.762 28.878.762c8.534 0 18.737-.942 23.199 6.476 1.965 3.268 1.917 9.922 1.745 15.806 1.28.869 2.175 2.872 2.175 5.205 0 2.544-1.065 4.696-2.53 5.413-.523 5.54-2.036 10.672-4.67 15.328-2.8 4.951-6.72 8.542-11.164 10.568.339.767.522 1.616.51 2.508l-.063 4.604a6.096 6.096 0 0 1-.013.335z" id="head"/>
                    </g>
                    <g id="face" transform="matrix(-1 0 0 1 42.278 58.878)">
                      <path d="M5.104 20.327c2.712 3.161 10.182 5.294 12.108.042" id="Path-2" stroke="#CC5C61"/>
                      <ellipse id="Oval-7" fill="#4C2F1C" cx="1.901" cy="3.236" rx="1.606" ry="2.936"/>
                      <ellipse id="Oval-7" fill="#4C2F1C" cx="20.758" cy="3.236" rx="1.606" ry="2.936"/>
                      <path d="M9.021.85c.973 5.426-.284 6.616-.514 12.309-.012.28.439.429.72.437 1.006.03 1.997-.385 3.003-.329 1.558.087 3.065.636 4.622.753.951.071.382-1.792-1.045-2.826" id="Path-29" stroke="#979797"/>
                    </g>
                    <path d="M33.479 45.077c-6.909 0-14.385-.374-20-1.855-1.909 2.215-3.488 4.564-4.736 7.047-.237.47.684 6.041 0 7.779-1.185 3.01-4.188 2.853-4.804 4.757-.466-9.377-.68-15.117-.64-17.221.04-2.104.295-7.084.769-14.942V27.73c0-8.741 12.955-13.169 29.41-13.169.713 0 1.418.011 2.118.033 2.826-.575 5.346-1.388 7.559-2.439C47.918 9.893 52.147 5.971 55.842.391V0c.083.001.167.004.25.008 7.35.416 16.41 14.914 16.41 26.94 0 11.588-8.41 16.716-15.59 17.204-.818.12-1.674.226-2.56.317.147 1.618.26 2.876.336 3.774.086.994-.963 14.29-1.985 11.67-.685-1.756-1.567-10.306-1.955-11.037-.846-1.59-1.805-2.91-2.878-3.963-5.25.216-10.624.164-14.391.164z" id="hair" fill="#FFC194"/>
                  </g>
                  <g id="glasses" transform="translate(14.028 51.658)">
                    <path d="M10.506 5.603a1.5 1.5 0 0 0-1.5 1.5v3.954a5.454 5.454 0 0 0 5.454 5.453h5.105a5.454 5.454 0 0 0 5.454-5.453V8.103a2.5 2.5 0 0 0-2.5-2.5H10.506zM33.473 5.603a1.5 1.5 0 0 0-1.5 1.5v3.954a5.454 5.454 0 0 0 5.454 5.453h5.105a5.454 5.454 0 0 0 5.454-5.453V8.103a2.5 2.5 0 0 0-2.5-2.5H33.473z" id="Rectangle-3" stroke="#333"/>
                    <path d="M32.106 5.954h.218v4.252h-.91c-.276-.97-1.478-1.701-2.918-1.701-1.44 0-2.642.73-2.918 1.701h-.91V5.954h.218c.526.495 1.943.85 3.61.85 1.667 0 3.085-.355 3.61-.85z" id="Combined-Shape" fill="#333"/>
                  </g>
                </g>
              </g>
            </g>
          </g>
        </g>
      </g>
    </g>
  </g>
</svg>
