<svg viewBox="0 0 212 202" xmlns="http://www.w3.org/2000/svg" xmlns:xlink="http://www.w3.org/1999/xlink">
  <defs>
    <path d="M22.799 29.578c101.837-74.636 224.293 3.288 179.018 118.09-23.764 60.255-137.59 73.34-175.867 22.757C-3.003 132.165-1.9 123.932 2.312 84.166c2.808-26.51 9.637-44.706 20.487-54.588z" id="path-1"/>
    <linearGradient x1="0%" y1="0%" y2="100%" id="linearGradient-3">
      <stop stop-color="#9155C7" offset="0%"/>
      <stop stop-color="#C965A6" offset="52.983%"/>
      <stop stop-color="#FF8077" offset="100%"/>
    </linearGradient>
    <path id="path-4" d="M0 0h254.076v268.641H0z"/>
    <filter x="-5.5%" y="-3.7%" width="111%" height="110.4%" filterUnits="objectBoundingBox" id="filter-5">
      <feOffset dy="4" in="SourceAlpha" result="shadowOffsetOuter1"/>
      <feGaussianBlur stdDeviation="4" in="shadowOffsetOuter1" result="shadowBlurOuter1"/>
      <feComposite in="shadowBlurOuter1" in2="SourceAlpha" operator="out" result="shadowBlurOuter1"/>
      <feColorMatrix values="0 0 0 0 0.0470588235 0 0 0 0 0 0 0 0 0 0.2 0 0 0 0.1 0" in="shadowBlurOuter1"/>
    </filter>
  </defs>
  <g id="Assets" fill="none" fill-rule="evenodd">
    <g id="onboarding" transform="translate(-494 -59)">
      <g id="charachters" transform="translate(494 58.855)">
        <mask id="mask-2" fill="#fff">
          <use xlink:href="#path-1"/>
        </mask>
        <use id="Mask" fill="#BDF0E6" xlink:href="#path-1"/>
        <g id="inside" mask="url(#mask-2)">
          <g transform="translate(-251.55 -234.893)">
            <g id="bg" transform="translate(235.366 205.763)">
              <g id="Rectangle">
                <use fill="#000" filter="url(#filter-5)" xlink:href="#path-4"/>
                <use fill-opacity=".66" fill="url(#linearGradient-3)" xlink:href="#path-4"/>
              </g>
            </g>
            <g id="charachters">
              <g id="charachter" transform="scale(1 -1) rotate(-60 -64.763 -415.613)">
                <g id="body_change_colour" transform="translate(6.191 26.312)" fill="#B1D159">
                  <path d="M92.608 27.811v39.427c0 15.327-12.382 27.752-27.655 27.752-15.274 0-27.655-12.425-27.655-27.752V27.81C37.298 12.538 49.679.156 64.953.156c15.273 0 27.655 12.382 27.655 27.655z" id="head"/>
                </g>
                <g id="top_body" transform="translate(28.634)">
                  <g id="eye-whole" transform="translate(27.73 45.342)">
                    <ellipse id="Oval" fill="#FFF" cx="15.165" cy="15.144" rx="14.964" ry="15.038"/>
                    <ellipse class="eye" fill="#27221B" cx="15.83" cy="14.81" rx="3.658" ry="4.01"/>
                  </g>
                  <g id="right_ear" transform="matrix(-1 0 0 1 29.928 18.714)">
                    <path id="Path-10" fill="#B1D159" d="M.27 13.208L5.96 7.77l2.981 1.554-2.98 11.136z"/>
                    <ellipse id="Oval-2" fill="#A0BE53" cx="9.212" cy="5.18" rx="5.419" ry="5.18"/>
                  </g>
                  <g id="left_ear" transform="translate(56.53 18.714)">
                    <path id="Path-10" fill="#B1D159" d="M.27 13.208L5.96 7.77l2.981 1.554-2.98 11.136z"/>
                    <ellipse id="Oval-2" fill="#A0BE53" cx="9.212" cy="5.18" rx="5.419" ry="5.18"/>
                  </g>
                  <path d="M85.128 42.564v61.445c0 23.765-19.057 43.03-42.564 43.03C19.056 147.038 0 127.773 0 104.008V42.564C0 19.056 19.056 0 42.564 0 66.07 0 85.128 19.056 85.128 42.564z" id="head_bubble" fill="#DCEBF0" opacity=".456"/>
                  <path d="M44.559 86.228c9.108 4.322 13.683-2.615 13.966-10.704" id="mouth" stroke="#CC5C61" stroke-width="2"/>
                </g>
                <g id="left_arm" transform="matrix(-1 0 0 1 133.882 98.284)">
                  <ellipse id="Oval-4" fill="#FBA945" cx="20.172" cy="21.462" rx="18.827" ry="18.78"/>
                  <path d="M41.016 20.742C41.016 10.46 33.477.67 23.09.67 12.704.67 0-1.563 0 8.719s41.016 22.304 41.016 12.023z" id="Oval-4" fill="#FAC859"/>
                </g>
                <path d="M23.95 46.63c7.65 9.225 13.006 16.33 16.07 21.316 3.065 4.986 8.087 15.423 15.066 31.309 6.77 1.998 11.904 2.998 15.4 2.998 3.497 0 10.193-1 20.088-2.998 9.644-14.2 16.451-25.414 20.422-33.64 3.97-8.226 7.988-19.44 12.052-33.64-2.861-9.626-5.651-16.065-8.37-19.318-2.718-3.253-7.628-6.03-14.73-8.327-11.978 3.1-20.794 4.432-26.449 3.997C67.844 7.89 57.912 5.116 43.703 0v8.327C27.722 5.287 16.228 3.955 9.22 4.33 2.213 4.705-.8 6.815.18 10.658L23.95 46.63z" transform="translate(0 95.188)" id="shirt" fill="#163A4D"/>
                <g id="right_arm" transform="translate(0 98.284)">
                  <ellipse id="Oval-4" fill="#FBA945" cx="21.487" cy="24.05" rx="21.487" ry="21.378"/>
                  <path d="M45.324 23.382c0-11.807-8.613-23.048-20.48-23.048S0 2.223 0 14.029c0 11.807 45.324 21.16 45.324 9.353z" id="Oval-4" fill="#FAC859"/>
                </g>
                <path d="M98.825 97.51c-13.419 32.262-24.27 55.493-32.552 69.694-8.283 14.2-14.483 20.203-18.601 18.007-.128-1.107-.128-1.885 0-2.334.128-.45.681-2.006 1.66-4.669l-5.314-11.671c-2.952 12.287-3.727 20.179-2.325 23.676 1.402 3.497 5.83 4.72 13.286 3.668 15.649-13.199 26.056-24.536 31.223-34.013 5.168-9.478 12.032-29.819 20.594-61.024l-7.971-1.334z" id="band_across_body" fill="#F9F082"/>
              </g>
              <g id="avatar_2" transform="translate(258 348)">
                <g id="body_change_colour" transform="translate(44.504 15.374)" fill="#885B3E">
                  <path d="M75.524 40.262c-2.316 11.045-9.474 19.815-18.639 22.94.073.423.11.857.11 1.3v6.737a6.279 6.279 0 0 1-7.663 6.124 9.831 9.831 0 0 1-7.663-9.589v-3.272c0-.473.043-.937.125-1.387-9.05-3.201-16.1-11.92-18.391-22.873a5.131 5.131 0 1 1-.713-10.189C23.748 13.576 35.33.598 49.465.598 63.6.598 75.182 13.575 76.241 30.05h.012a5.131 5.131 0 1 1-.729 10.21z" id="head"/>
                </g>
                <g id="shirt" transform="translate(50.016 87.56)" fill="#00859E">
                  <path d="M10.395 102.643a13.205 13.205 0 0 1-7.41-11.38C2.901 89.055-.293 55.088.151 31.387.37 19.79 2.347 10.688 4.265 8.894 14.114-.322 55.355.382 63.97.135c8.616-.247 13.275 3.211 16.66 6.57 7.622 7.562 7.181 17.396 7.18 18.916-.001 5.16.372 15.309 0 25.994-.68 19.634-2.302 41.76-2.292 42.885.033 3.694-1.661 7-4.33 9.152v8.031l-4.328-.917h-60.74l-5.726.917v-9.04z" id="Combined-Shape"/>
                </g>
                <g id="face" transform="translate(61.61)">
                  <path d="M26.521 64.628c1.682.685 2.97 1.084 3.865 1.2.896.115 2.717.115 5.465 0" id="Path-27" stroke="#CC5C61"/>
                  <g class="eyes" transform="translate(21.038 45.313)" fill="#27221B">
                    <ellipse class="eye" cx="23.342" cy="2.399" rx="1.866" ry="1.999"/>
                    <ellipse class="eye" cx="2.151" cy="2.399" rx="1.866" ry="1.999"/>
                  </g>
                  <path d="M4.521 27.331C-1.656 19.703-1.485 8.186 6.143 2.009 11.251-2.127 15.762.696 20.04 5.303c-1.09-2.75 6.983 1.332 9.403-.629 4.33-3.506 11.858-.228 15.365 4.102 2.237 2.763.621.683 1.464 0 3.29-2.664 5.03-.727 7.694 2.562 1.35 1.669 2.756-3.077 4.131-1.333.656-2.23 4.768 1.333 7.197 1.333 4.232 0 6.797 4.964 6.797 9.196 0 .167-.002.332-.007.494-.246 7.061-.823 12.703-1.592 16.965-.29 1.602-.69 3.475-1.201 5.618.001 1.05-.24 1.93-.665 2.696a328.475 328.475 0 0 1-2.799 10.21c-.24-1.84-.64-3.328-1.2-4.464-.47-.957-1.396-2.102-2.777-3.433a5.332 5.332 0 0 1-1.796-8.523 7.666 7.666 0 0 1-2.615-13.919c-6.174 1.453-14.027 2.696-16.4 4.618-4.88 3.951-14.777 4.599-23.723 2.522-.2.903-1.5 1.94-1.6 3.209-.241 3.077-2.373 8.265-2.132 14.783-1.616-7.83-.372-12.752-.533-13.984-.129-.985-.155-2.632-.077-4.942-3.659-1.2-6.712-2.904-8.453-5.053z" id="Combined-Shape" fill="#27221B" transform="matrix(-1 0 0 1 72.224 0)"/>
                  <path d="M25.893 56.641c3.356.991 5.783 1.396 7.283 1.214 1.368-.166 3.054-.525 4.45-1.214.899-.443 1.69-1.952 1.214-2.427-.537-.537-1.418-.805-2.428-3.237-.342-.825-.747-2.443-1.214-4.855" id="Path-5" stroke="#363636"/>
                  <path d="M23.856 83.667c3.717.947 6.538 1.42 8.463 1.42 1.925 0 4.746-.473 8.463-1.42v7.195c-4.46.825-7.791 1.172-9.996 1.041-2.204-.131-5.225-.857-9.062-2.177l2.132-6.059z" id="Path-28" fill="#81F4DD"/>
                </g>
              </g>
              <g id="avatar_3" transform="rotate(135 127.473 221.412)">
                <g id="top" transform="translate(6.473 72.015)">
                  <path d="M86.313 9.196c4.03 3.386 10.309 65.217 12.989 108.498.582 9.405-6.57 17.502-15.976 18.085-.548.034-1.096.041-1.644.022l-49.865-1.724c-8.832-.305-15.743-7.712-15.438-16.543a16 16 0 0 1 .12-1.473c4.319-33.85 6.437-51.726 6.353-53.625-.134-3.044-3.464-46.163 2.911-51.215C36.52 2.696 82.617 6.09 86.313 9.196z" id="shirt" fill="#FBE7E9"/>
                  <g id="sleeve" transform="translate(0 8.852)" fill="#8295B5">
                    <path d="M29.256.316c-8.804 3.73-14.019 8.006-15.643 12.829-1.624 4.823-6.03 23.61-13.216 56.36-.53 6.38-.53 11.04 0 13.982.53 2.94 1.255 12.118 2.176 27.531h24.653L29.256.316z" id="Path-16"/>
                  </g>
                  <g id="gilet_left" transform="translate(13.756 .805)" fill="#445B67">
                    <path d="M24.405 141.951c-.843 1.548-2.84 2.679-5.993 3.393L.8 135.56l.42-3.811c-.27-.394 2.73-25.934 3.9-35.288l3.933-35.587c-.403-6.545-3.098-45.66 2.954-50.457C15.676 7.51 23.455 5.988 32.26 5.37c1.741-.122 1.744 8.616 2.89 10.545 4.214 7.095 1.963 46.333-6.751 117.716-1.902 4.151-3.233 6.925-3.994 8.321z" id="Combined-Shape"/>
                    <path d="M34.394 0c-1.092 2.518-1.472 4.497-1.142 5.938.33 1.441 2.138 5.683 5.423 12.725 1.123 29.092 1.123 50.583 0 64.472-1.123 13.888-4.643 35.944-10.56 66.168l-9.703-3.959c3.152-.714 5.15-1.845 5.993-3.393.843-1.548 2.08-6.355 3.71-14.421l8.277-104.908c-3.929-5.192-6.022-9.245-6.28-12.16-.256-2.914 1.17-6.401 4.282-10.462z" id="Path-31"/>
                  </g>
                  <g id="gilet_right" transform="matrix(-1 0 0 1 114.415 .483)">
                    <g id="sleeve" transform="translate(0 8.047)" fill="#8295B5">
                      <path d="M29.256.316c-8.804 3.73-14.019 8.006-15.643 12.829-1.624 4.823-6.03 23.61-13.216 56.36-.53 6.38-.53 11.04 0 13.982.53 2.94 1.255 12.118 2.176 27.531h24.653L29.256.316z" id="Path-16"/>
                    </g>
                    <g id="gilet" transform="translate(14.565)" fill="#445B67">
                      <path d="M23.607 142.259c-.843 1.548-2.841 2.68-5.994 3.394L0 135.865l.421-3.813c-.271-.393 2.73-25.941 3.9-35.298l3.933-35.598c-.403-6.548-3.099-45.674 2.954-50.473 3.669-2.908 11.448-4.43 20.254-5.049 1.741-.122 1.744 8.619 2.89 10.549 4.214 7.096 1.963 46.347-6.752 117.752-1.902 4.153-3.233 6.927-3.993 8.324z" id="Combined-Shape"/>
                      <path d="M33.733 0c-1.088 2.524-1.467 4.508-1.138 5.953.33 1.445 2.131 5.697 5.405 12.757 1.12 29.165 1.12 50.71 0 64.633-1.119 13.923-4.627 36.035-10.526 66.334l-9.672-3.969c3.142-.716 5.134-1.85 5.974-3.402.84-1.551 2.073-6.37 3.698-14.457l8.25-105.17c-3.915-5.205-6.002-9.268-6.258-12.19C29.209 7.567 30.632 4.07 33.733 0z" id="Path-31"/>
                    </g>
                  </g>
                </g>
                <g id="scarf" transform="rotate(-16 279.3 37.05)" fill="#8D4763" stroke="#7FB7B5">
                  <path d="M40.66 7.985C45.082 2.967 49.315.305 53.356 0c1.228 3.56 1.9 6.028 2.016 7.402.136 1.613-1.435 3.12-1.188 4.162.727 3.074 2.383 7.387 4.968 12.941-3.86 6.174-6.344 10.763-7.453 13.767-1.108 3.004-11.32 32.832-30.638 89.485-5.472.683-9.336.683-11.593 0-2.258-.684-2.994-1.877-2.209-3.58L32.38 55.343 5.604 126.38c-1.115 1.337-1.909 2.123-2.38 2.358-.47.234-1.333.274-2.588.12-.848-10.46-.848-18.72 0-24.78.847-6.06 3.056-13.586 6.624-22.578 3.518-11.63 6.554-20.257 9.11-25.882 2.554-5.624 10.651-21.502 24.29-47.633z" id="Path-6"/>
                  <path d="M64.206 22.684c2.872-6.49 4.77-14.283 7.03-12.866 2.03 1.275 2.751 8.577 1.345 14.969.366.026.7.13.996.316 3.236 2.031.16 12.837-6.868 24.137C63.499 54.4 60.063 62.969 56.92 66c-1.314 1.268-2.977 2.004-4.657 2.378-4.614 9.036-7.97 16.115-10.07 21.237-2.27 5.538-3.478 14.764-3.624 27.68-.007 1.37-.098 2.29-.273 2.761-.176.472-.632 1.024-1.368 1.657-1.234-1.178-2.328-1.73-3.283-1.657-.955.075-2.232.811-3.83 2.21l4.411-25.59-4.411 23.933c-1.216.736-2.128 1.104-2.736 1.104-.608 0-1.611-.368-3.01-1.104l12.926-56.4c1.513-6.315 4.34-12.298 8.48-17.95 3.914-5.343 10.157-13.202 18.73-23.576z" id="Combined-Shape"/>
                </g>
                <g id="body_change_colour" transform="translate(33.985 13.756)" fill="#EDB597">
                  <path d="M3.437 22.737c-.459-2.54-.92-5.012-.214-7.02C6.842 5.425 18.156.037 28.376.037c8.385 0 18.411-.911 22.795 6.272 1.931 3.164 1.884 9.607 1.715 15.305 1.257.842 2.137 2.782 2.137 5.041 0 2.463-1.046 4.547-2.486 5.241-.514 5.366-2 10.334-4.588 14.844-2.722 4.742-6.521 8.196-10.829 10.169.19.554.283 1.15.261 1.77l-.329 9.348c-.096 2.74-2.412 4.884-5.173 4.789l-6.706-.233c-2.761-.096-4.921-2.395-4.825-5.136l.33-9.347a4.96 4.96 0 0 1 .11-.881c-8.253-3.595-14.563-12.824-16.3-23.708-.303.13-.622.2-.95.2C1.583 33.71 0 31.254 0 28.223c0-2.979 1.53-5.404 3.437-5.486z" id="head"/>
                </g>
                <g id="scarf_part_2" transform="translate(46.122 67.97)">
                  <path d="M24.275 16.992c4.148-6.637 4.769-12.015 1.984-13.755-1.8-1.125-.785 3.687-2.793 8.9-1.099 2.851-6.626 4.726-8.092 7.073-.032.052-3.09 14.09-1.618 15.584 2.24 2.273 8.016-13.797 10.519-17.802z" id="Oval-10" fill="#8D4763"/>
                  <path d="M15.374 18.61v.6c-2.06 9.393-2.6 14.588-1.618 15.584" id="Oval-10" stroke="#7FB7B5"/>
                  <path d="M4.208.324C5.43 5.755 6.778 9.53 8.253 11.652c1.476 2.12 3.85 4.44 7.121 6.959-.778.485-1.317.754-1.618.809-.301.054-4.833.702-13.594 1.942L4.208.324z" id="Path-11" fill="#8D4763"/>
                </g>
                <g id="face" transform="translate(55.023 38.03)">
                  <path d="M14.282 3.352c2.036 10.203 5.869 13.778-3.342 13.38" id="Path-9" stroke="#55383C"/>
                  <path d="M5.05 20.951c7.12 3.136 3.738 3.133 10.097 1.124" id="Path-8" stroke="#CC5C61"/>
                  <g class="eyes" fill="#55383C">
                    <ellipse class="eye" cx="19.355" cy="1.676" rx="1.683" ry="1.676"/>
                    <ellipse class="eye" cx="1.683" cy="1.676" rx="1.683" ry="1.676"/>
                  </g>
                </g>
                <g id="hair" transform="translate(29.939)">
                  <path d="M54.214 25.084c.807.954 1.346 6.618 1.618 16.992.809-3.63 1.285-6.058 1.427-7.282.27-2.317-.23-3.249 0-4.693.08-.501.143-1.287.191-1.78.136-1.37.072-3.258-.191-5.665-2.446 1.127-3.461 1.937-3.045 2.428zM4.767 37.769c1.431.564 2.458 1.214 3.082 1.951.807.954 1.751 3.897 2.832 8.83.12-5.309.12-9.355 0-12.138-.12-2.783.15-5.21.81-7.282-2.74.911-4.628 1.744-5.665 2.499-.972.707-1.744 2.41-2.316 5.11-.038.18.836.864 1.257 1.03z" id="Path-13" fill="#87857C"/>
                  <path d="M28.885 0C21 1.944 15.758 3.832 13.162 5.664 10.955 7.222 7.504 10.966 2.81 16.896a13 13 0 0 0-2.807 7.931c-.016 1.566.055 2.73.214 3.494.288 1.38 1.834 5.427 4.639 12.137-.095-1.98-.023-3.33.216-4.046.239-.716 1.048-2.065 2.427-4.046l1.619 1.619c.51.51 1.32 1.59 2.427 3.236-.477-.012-.477-1.091 0-3.236.477-2.145 1.556-3.494 3.237-4.046l1.618 4.046c.47-1.861 1.01-3.21 1.618-4.046.608-.836 2.227-2.454 4.855-4.855l-2.427 6.473c6.364-6.753 11.22-10.799 14.565-12.137 3.345-1.338 7.66-1.338 12.946 0-.869.988-1.408 1.797-1.618 2.427-.21.63-.48 2.248-.81 4.855.873-1.345 1.547-2.154 2.024-2.427 2.194-1.259 3.72-.87 4.234-.81 1.024.121 2.079 1.45 2.428 2.428.233.652 1.311 3.619 3.236 8.9l1.025-18.61C54.138 9.525 50.632 5.48 47.956 4.046c-2.675-1.433-6.451-2.243-11.328-2.428L28.885 0z" id="Path-12" fill="#FAF389"/>
                </g>
              </g>
            </g>
          </g>
        </g>
      </g>
    </g>
  </g>
</svg>
