<?xml version="1.0" encoding="UTF-8"?>
<svg width="243px" height="34px" viewBox="0 0 243 34" version="1.1" xmlns="http://www.w3.org/2000/svg" xmlns:xlink="http://www.w3.org/1999/xlink">
    <!-- Generator: Sketch 49.1 (51147) - http://www.bohemiancoding.com/sketch -->
    <title>zigzag_green_onboarding</title>
    <desc>Created with Sketch.</desc>
    <defs></defs>
    <g id="Assets" stroke="none" stroke-width="1" fill="none" fill-rule="evenodd">
        <g id="Artboard-3" transform="translate(-82.000000, -7.000000)" stroke="#449694" stroke-width="2">
            <g id="zigzag_green_onboarding" transform="translate(83.000000, 9.000000)">
                <polyline id="divider" points="0 12.985248 13.0484115 0.646725589 25.5748865 12.2059751 37.0574887 0.646725589 48.5400908 12.2059751 60.0374614 0.506568221 72.0272315 12.2059751 83.9213518 0.646725589 94.9924357 12.2330275 106.475038 0.646725589 117.95764 12.2059751 128.396369 0.646725589 140.400908 12.2330275 151.88351 0.646725589 163.366112 12.2330275 176.414523 0.646725589 188.618363 12.7955698 201.471856 -8.52651283e-14 214.526324 12.9956383 227.574739 0.0060251189 240.612712 12.9852439"></polyline>
                <polyline id="divider" points="0 29.985248 13.0484115 17.6467256 25.5748865 29.2059751 37.0574887 17.6467256 48.5400908 29.2059751 60.0374614 17.5065682 72.0272315 29.2059751 83.9213518 17.6467256 94.9924357 29.2330275 106.475038 17.6467256 117.95764 29.2059751 128.396369 17.6467256 140.400908 29.2330275 151.88351 17.6467256 163.366112 29.2330275 176.414523 17.6467256 188.618363 29.7955698 201.471856 17 214.526324 29.9956383 227.574739 17.0060251 240.612712 29.9852439"></polyline>
            </g>
        </g>
    </g>
</svg>