<?xml version="1.0" encoding="UTF-8"?>
<svg width="98px" height="94px" viewBox="0 0 98 94" version="1.1" xmlns="http://www.w3.org/2000/svg" xmlns:xlink="http://www.w3.org/1999/xlink">
    <!-- Generator: Sketch 49.1 (51147) - http://www.bohemiancoding.com/sketch -->
    <title>add_video_icn</title>
    <desc>Created with Sketch.</desc>
    <defs>
        <filter x="-17.1%" y="-12.7%" width="134.1%" height="135.4%" filterUnits="objectBoundingBox" id="filter-1">
            <feOffset dx="0" dy="4" in="SourceAlpha" result="shadowOffsetOuter1"></feOffset>
            <feGaussianBlur stdDeviation="4" in="shadowOffsetOuter1" result="shadowBlurOuter1"></feGaussianBlur>
            <feColorMatrix values="0 0 0 0 0.0470588235   0 0 0 0 0   0 0 0 0 0.2  0 0 0 0.1 0" type="matrix" in="shadowBlurOuter1" result="shadowMatrixOuter1"></feColorMatrix>
            <feMerge>
                <feMergeNode in="shadowMatrixOuter1"></feMergeNode>
                <feMergeNode in="SourceGraphic"></feMergeNode>
            </feMerge>
        </filter>
    </defs>
    <g id="Assets" stroke="none" stroke-width="1" fill="none" fill-rule="evenodd">
        <g id="Artboard-3" transform="translate(-19.000000, -21.000000)">
            <g id="add_video_icn" filter="url(#filter-1)" transform="translate(27.000000, 25.000000)">
                <g id="Group" fill="#FFFFFF">
                    <path d="M8.80868432,11.391331 C48.3063575,-17.556505 95.801465,12.6666033 78.2412188,57.192639 C69.0244254,80.5628849 24.8764569,85.6375638 10.0309462,66.0193289 C-1.19845927,51.1797508 -0.771190982,47.9865959 0.862770224,32.5635962 C1.95207769,22.2815965 4.60071573,15.2241747 8.80868432,11.391331 Z" id="Path-6"></path>
                </g>
                <g id="video-love-presentation-wedding" transform="translate(10.000000, 11.000000)" fill="#449694" fill-rule="nonzero">
                    <path d="M20.5,13 C24.0845333,13 27,10.0845333 27,6.5 C27,2.91546667 24.0845333,0 20.5,0 C16.9154667,0 14,2.91546667 14,6.5 C14,10.0845333 16.9154667,13 20.5,13 Z M20.5,1.73333333 C23.1277333,1.73333333 25.2666667,3.87226667 25.2666667,6.5 C25.2666667,9.12773333 23.1277333,11.2666667 20.5,11.2666667 C17.8722667,11.2666667 15.7333333,9.12773333 15.7333333,6.5 C15.7333333,3.87226667 17.8722667,1.73333333 20.5,1.73333333 Z" id="Shape"></path>
                    <path d="M36.5,13 C40.0845333,13 43,10.0845333 43,6.5 C43,2.91546667 40.0845333,0 36.5,0 C32.9154667,0 30,2.91546667 30,6.5 C30,10.0845333 32.9154667,13 36.5,13 Z M36.5,1.73333333 C39.1277333,1.73333333 41.2666667,3.87226667 41.2666667,6.5 C41.2666667,9.12773333 39.1277333,11.2666667 36.5,11.2666667 C33.8722667,11.2666667 31.7333333,9.12773333 31.7333333,6.5 C31.7333333,3.87226667 33.8722667,1.73333333 36.5,1.73333333 Z" id="Shape"></path>
                    <path d="M55.572125,16.8667327 C55.3063955,16.7105463 54.9780044,16.7045879 54.70675,16.8510312 L46.375,21.3817835 L46.375,19.3615251 C46.375,16.9565801 44.412375,15 42,15 L15.75,15 C14.0126957,15.0029572 12.4415453,16.0298222 11.746,17.616915 L5.25,17.616915 C5.25,16.1741225 4.07225,15 2.625,15 C1.17775,15 0,16.1741225 0,17.616915 L0,24.5953551 C0,26.0381476 1.17775,27.2122702 2.625,27.2122702 C4.07225,27.2122702 5.25,26.0381476 5.25,24.5953551 L11.375,24.5953551 L11.375,33.3184053 C11.375,35.7233502 13.337625,37.6799303 15.75,37.6799303 L20.519625,37.6799303 L14.04725,51.9639249 C13.3961078,53.353358 13.9689713,55.0071902 15.341375,55.7000073 C16.0210467,56.0419403 16.8109088,56.0938898 17.52975,55.8439376 C18.2545636,55.5964173 18.8473667,55.0658916 19.172125,54.3741036 L25.375,40.8211007 L25.375,53.3814205 C25.375,54.824213 26.55275,55.9983356 28,55.9983356 C29.44725,55.9983356 30.625,54.824213 30.625,53.3814205 L30.625,40.8211007 L36.83575,54.3880605 C37.3077672,55.3713053 38.3034624,55.9976753 39.396875,55.9992079 C39.83,55.9992079 40.2605,55.8988928 40.660375,55.7000073 C42.028,55.0169924 42.609,53.3412945 41.95975,51.9778818 L35.480375,37.6799303 L42,37.6799303 C44.412375,37.6799303 46.375,35.7233502 46.375,33.3184053 L46.375,31.2981469 L54.705875,35.8288991 C54.9774002,35.9754982 55.3061248,35.9695398 55.572125,35.8131976 C55.836375,35.6561827 56,35.370939 56,35.0630153 L56,17.616915 C56,17.3089914 55.836375,17.0237476 55.572125,16.8667327 Z M3.5,24.5953551 C3.5,25.0771159 3.10824916,25.4676601 2.625,25.4676601 C2.14175084,25.4676601 1.75,25.0771159 1.75,24.5953551 L1.75,17.616915 C1.75,17.1351543 2.14175084,16.74461 2.625,16.74461 C3.10824916,16.74461 3.5,17.1351543 3.5,17.616915 L3.5,24.5953551 Z M5.25,22.8507451 L5.25,19.3615251 L11.375,19.3615251 L11.375,22.8507451 L5.25,22.8507451 Z M17.58575,53.6370059 C17.4612375,53.8997102 17.2351752,54.1008399 16.95925,54.1944088 C16.6845026,54.289522 16.3828728,54.2700204 16.12275,54.1403259 C15.5940682,53.8717539 15.3772587,53.2314631 15.6345,52.6984057 L22.44025,37.6799303 L24.889375,37.6799303 L17.58575,53.6370059 Z M28,54.2537256 C27.5167508,54.2537256 27.125,53.8631813 27.125,53.3814205 L27.125,37.6799303 L28.875,37.6799303 L28.875,53.3814205 C28.875,53.8631813 28.4832492,54.2537256 28,54.2537256 Z M40.3725,52.7114903 C40.6207859,53.242288 40.4025511,53.8737599 39.879,54.1394536 C39.6187116,54.2696857 39.3165934,54.2891984 39.041625,54.1935365 C38.7703022,54.1026693 38.547046,53.9068216 38.422125,53.6500905 L31.1115,37.6799303 L33.560625,37.6799303 L40.3725,52.7114903 Z M44.625,33.3184053 C44.625,34.7611977 43.44725,35.9353203 42,35.9353203 L15.75,35.9353203 C14.30275,35.9353203 13.125,34.7611977 13.125,33.3184053 L13.125,19.3615251 C13.125,17.9187326 14.30275,16.74461 15.75,16.74461 L42,16.74461 C43.44725,16.74461 44.625,17.9187326 44.625,19.3615251 L44.625,33.3184053 Z M54.25,33.5931813 L46.375,29.311036 L46.375,23.3688943 L54.25,19.086749 L54.25,33.5931813 Z" id="Shape"></path>
                    <path d="M33.9635252,22.0527958 C32.6015354,20.6481513 30.3892662,20.6499851 29.0289907,22.0527958 L29.0007052,22.0830525 L28.9724197,22.0537127 C27.6104298,20.6490682 25.3981607,20.6509019 24.0378851,22.0537127 C23.3751106,22.7289588 23,23.6652544 23,24.6443283 C23,25.6234022 23.3751106,26.5596978 24.0378851,27.2349438 L28.4058525,31.7413588 C28.7369005,32.0858575 29.2640462,32.0862637 29.5955579,31.7422757 L33.9635252,27.2358607 C34.6254907,26.5597622 35,25.6233641 35,24.6443283 C35,23.6652924 34.6254907,22.7288944 33.9635252,22.0527958 Z M32.7729627,25.9155682 L29.0007052,29.8076804 L25.2284476,25.9155682 C24.9017422,25.5851312 24.7161388,25.1257429 24.7150229,24.6447867 C24.7150229,24.1661807 24.8967358,23.7141639 25.2284476,23.3721715 C25.5807307,23.009091 26.0427273,22.8275508 26.505581,22.8275508 C26.9675775,22.8275508 27.4295741,23.0081742 27.7818571,23.3721715 L28.4058525,24.015814 C28.7383246,24.3577822 29.2639429,24.3577822 29.596415,24.015814 L30.2204103,23.3721715 C30.9362698,22.6462338 32.0579604,22.6462338 32.7738198,23.3721715 C33.1046745,23.7150808 33.2863874,24.1661807 33.2863874,24.6447867 C33.2863874,25.1233927 33.1038174,25.5744927 32.7729627,25.9155682 Z" id="Shape"></path>
                    <polygon id="Shape" points="38 32 40 32 40 34 38 34"></polygon>
                    <polygon id="Shape" points="41 32 43 32 43 34 41 34"></polygon>
                    <polygon id="Shape" points="34 32 36 32 36 34 34 34"></polygon>
                </g>
            </g>
        </g>
    </g>
</svg>