<?xml version="1.0" encoding="UTF-8"?>
<svg width="26px" height="26px" viewBox="0 0 26 26" version="1.1" xmlns="http://www.w3.org/2000/svg" xmlns:xlink="http://www.w3.org/1999/xlink">
    <!-- Generator: Sketch 49.1 (51147) - http://www.bohemiancoding.com/sketch -->
    <title>close_btn_white</title>
    <desc>Created with Sketch.</desc>
    <defs></defs>
    <g id="Assets" stroke="none" stroke-width="1" fill="none" fill-rule="evenodd">
        <g id="Artboard-3" transform="translate(-31.000000, -28.000000)" fill="#FFFFFF" fill-rule="nonzero">
            <g id="close_btn" transform="translate(31.000000, 28.000000)">
                <path d="M25.5125,0.4875 C24.8625,-0.1625 23.8875,-0.1625 23.2375,0.4875 L13,10.725 L2.7625,0.4875 C2.1125,-0.1625 1.1375,-0.1625 0.4875,0.4875 C-0.1625,1.1375 -0.1625,2.1125 0.4875,2.7625 L10.725,13 L0.4875,23.2375 C-0.1625,23.8875 -0.1625,24.8625 0.4875,25.5125 C0.8125,25.8375 1.1375,26 1.625,26 C2.1125,26 2.4375,25.8375 2.7625,25.5125 L13,15.275 L23.2375,25.5125 C23.5625,25.8375 24.05,26 24.375,26 C24.7,26 25.1875,25.8375 25.5125,25.5125 C26.1625,24.8625 26.1625,23.8875 25.5125,23.2375 L15.275,13 L25.5125,2.7625 C26.1625,2.1125 26.1625,1.1375 25.5125,0.4875 Z" id="Shape"></path>
            </g>
        </g>
    </g>
</svg>