<svg width="360" height="548" xmlns="http://www.w3.org/2000/svg" xmlns:xlink="http://www.w3.org/1999/xlink">
  <defs>
    <linearGradient x1="0%" y1="0%" y2="100%" id="linearGradient-1">
      <stop stop-color="#FFE6D8" offset="0%"/>
      <stop stop-color="#FFCECB" offset="52.983%"/>
      <stop stop-color="#DD8EA1" offset="100%"/>
    </linearGradient>
    <path d="M172 532c45.1 0 100.562-11.185 131.237-55.104C337.173 428.308 344 343.162 344 266c0-74.28-9.018-162.638-40.763-210.896C272.198 7.918 218.963 0 172 0 126.826 0 73.443 11.054 42.751 55.104 8.904 103.682 0 188.954 0 266c0 76.097 9.63 162.412 42.751 210.896C73.571 522.012 126.213 532 172 532z" id="path-2"/>
    <filter x="-4.1%" y="-1.9%" width="108.1%" height="105.3%" filterUnits="objectBoundingBox" id="filter-3">
      <feOffset dy="4" in="SourceAlpha" result="shadowOffsetOuter1"/>
      <feGaussianBlur stdDeviation="4" in="shadowOffsetOuter1" result="shadowBlurOuter1"/>
      <feComposite in="shadowBlurOuter1" in2="SourceAlpha" operator="out" result="shadowBlurOuter1"/>
      <feColorMatrix values="0 0 0 0 0.0470588235 0 0 0 0 0 0 0 0 0 0.2 0 0 0 0.1 0" in="shadowBlurOuter1"/>
    </filter>
  </defs>
  <g id="App---in-progress" fill="none" fill-rule="evenodd">
    <g id="home" transform="translate(-8 -65)">
      <g id="avatar_1" transform="translate(16 69)">
        <g id="Oval-5">
          <use fill="#000" filter="url(#filter-3)" xlink:href="#path-2"/>
          <use fill-opacity=".66" fill="url(#linearGradient-1)" xlink:href="#path-2"/>
        </g>
        <g transform="translate(101 13)">
          <g id="pants" transform="translate(4.776 212.141)">
            <path d="M83.002 254.557c-3.108 4.374-4.906 7.464-5.396 9.269-.49 1.805.01 3.499 1.499 5.083l47.368 2.691 2.998-2.691c-10.4-2.493-17.895-4.836-22.485-7.027-4.59-2.19-8.787-5.43-12.592-9.717l-11.392 2.392z" id="Path-24" fill="#111215"/>
            <path d="M22.917 253.976l1.807 15.383c-3.998 4.333-7.832 6.5-11.5 6.5-3.064 0-6.927-1.77-9.5-3.5-2.05-1.378-3.308-2.662-2.5-3.5 1.821-1.892 3.38-1.29 6-4.259 1.466-1.663 3.995-5.204 7.588-10.624h8.105z" id="Path-25" fill="#000"/>
            <path d="M101.57 0c4.175 13.892 8.04 26.08 11.595 36.565 3.555 10.484 5.915 23.825 7.082 40.023-.29 17.208-1.427 31.405-3.414 42.592-1.987 11.187-4.58 22.466-7.78 33.838.517 5.22.517 8.813 0 10.78-.518 1.967-2.014 4.063-4.49 6.288-2.865 13.913-4.66 24.194-5.386 30.843-.726 6.65-2.022 24.717-3.89 54.2h-12.57c-.555-8.148-1.153-14.337-1.795-18.565-.642-4.229-3.136-18.403-7.482-42.522-.045-8.644.653-15.332 2.095-20.063 1.442-4.731 5.033-12.118 10.773-22.159-3.135-20-4.931-36.073-5.386-48.22-.455-12.147-.455-26.816 0-44.01H70.747C60.444 80.847 53.56 96.818 50.098 107.502c-3.463 10.684-6.156 24.259-8.08 40.725-.788 5.7-1.586 9.694-2.394 11.978-.808 2.284-2.304 4.779-4.49 7.486-3.564 21.351-5.958 36.923-7.181 46.714-1.223 9.79-2.42 22.966-3.591 39.527l-13.168 1.197c-.876-9.18-1.674-16.067-2.394-20.661-3.131-19.989-5.781-37.638-4.788-50.308 1.335-17.038 6.523-29.016 15.561-35.933-.513-41.625.285-73.566 2.394-95.824 2.11-22.257 5.7-36.63 10.774-43.12L101.57 0z" id="Path-23" fill="#172B73"/>
          </g>
          <g id="body_change_colour" transform="translate(10 19)" fill="#885B3E">
            <path d="M93.336 49.758c-2.862 13.65-11.708 24.488-23.034 28.35.09.522.136 1.06.136 1.607v8.326a7.76 7.76 0 0 1-9.47 7.568 12.15 12.15 0 0 1-9.472-11.85v-4.044c0-.585.054-1.159.155-1.715-11.184-3.955-19.898-14.73-22.729-28.267a6.341 6.341 0 1 1-.881-12.591C29.349 16.777 43.664.738 61.13.738c17.468 0 31.783 16.038 33.091 36.4h.016a6.341 6.341 0 1 1-.902 12.619z" id="head"/>
            <path d="M125.768 229.212c-.123 9.553-.832 15.93-2.125 19.13-.883 2.183-2.504 4.372-4.865 6.566a5.005 5.005 0 0 1-8.03-1.748c-.275-.661-.7-3.495-1.276-8.502l-.396 4.259a2.021 2.021 0 0 1-2.013 1.834 1.691 1.691 0 0 1-1.685-1.835l1.685-19.704h18.705z" id="left_hand"/>
            <path d="M20.396 229c-.123 9.553-.832 15.93-2.125 19.13-.883 2.183-2.504 4.372-4.864 6.566a5.005 5.005 0 0 1-8.031-1.748c-.275-.66-.7-3.495-1.276-8.502l-.396 4.259a2.021 2.021 0 0 1-2.013 1.834 1.691 1.691 0 0 1-1.685-1.835L1.691 229h18.705z" id="right_hand" transform="matrix(-1 0 0 1 20.396 0)"/>
          </g>
          <g id="sleeve" transform="matrix(-1 0 0 1 31.965 118.094)" fill="#18C9CF">
            <path d="M4.776 0c11.878 4.694 18.85 10.13 20.918 16.306 1.03 3.077-.794 14.362 0 24.376.533 6.724 2.125 18.747 4.777 36.07.601 7.291.601 12.617 0 15.977-.602 3.361-2.194 6.93-4.777 10.706L28 130.282H1.965v-4.876L0 0h4.776z" id="Path-16"/>
          </g>
          <g id="sleeve" transform="translate(110.035 118.094)" fill="#18C9CF">
            <path d="M4.776 0c11.878 4.694 18.85 10.13 20.918 16.306 1.03 3.077-.794 14.362 0 24.376.533 6.724 2.125 18.747 4.777 36.07.601 7.291.601 12.617 0 15.977-.602 3.361-2.194 6.93-4.777 10.706l2.27 26.847h-21l-.008-6.68-6.874-58.46L0 0h4.776z" id="Path-16"/>
          </g>
          <g id="shirt" transform="translate(16.812 108.212)">
            <path d="M12.847 126.852c-5.259-2.565-8.928-7.87-9.159-14.064-.102-2.73-4.05-44.709-3.5-74 .27-14.331 2.713-25.579 5.083-27.796C17.443-.398 68.41.472 79.059.167c10.648-.305 16.405 3.968 20.588 8.119 9.42 9.346 8.876 21.5 8.875 23.378-.002 6.376.458 18.92 0 32.124-.841 24.265-2.846 51.61-2.834 53a14.327 14.327 0 0 1-5.35 11.31v9.926l-5.35-1.134H19.923l-7.075 1.134v-11.172z" id="Combined-Shape" fill="#00859E"/>
            <path d="M52.688 4.788c-.287-.068-.287.766 0 2.5.288 1.735.646 3.059 1.073 3.972 3.826 8.321 4.23 11.593 4.301 20.946.747 99.168 9.513 91.407 9.558 97.885.012 1.784-.585 3.52-.952 5.265-.082.387-.184.784-.391 1.121-.046.075-.123-.125-.184-.188" id="Path-19" stroke="#81F4DD"/>
            <circle id="Oval-3" stroke="#81F4DD" fill="#81F4DD" cx="53.365" cy="32.612" r="1.976"/>
            <circle id="Oval-3" stroke="#81F4DD" fill="#81F4DD" cx="53.365" cy="42.824" r="1.976"/>
          </g>
          <g id="face" transform="translate(31.141)">
            <path d="M32.776 79.87c2.078.847 3.67 1.34 4.777 1.483 1.107.142 3.358.142 6.753 0" id="Path-27" stroke="#CC5C61"/>
            <ellipse id="Oval-6" fill="#27221B" cx="54.847" cy="58.965" rx="2.306" ry="2.471"/>
            <ellipse id="Oval-6" fill="#27221B" cx="28.659" cy="58.965" rx="2.306" ry="2.471"/>
            <path d="M5.588 33.777c-7.635-9.428-7.423-23.66 2.004-31.294C13.905-2.63 19.48.86 24.766 6.553c-1.347-3.398 8.63 1.647 11.622-.776 5.351-4.333 14.654-.283 18.988 5.069 2.765 3.414.768.843 1.81 0 4.064-3.292 6.216-.899 9.508 3.166 1.67 2.062 3.406-3.802 5.105-1.647.811-2.756 5.893 1.647 8.895 1.647 5.23 0 8.4 6.134 8.4 11.365 0 .206-.003.41-.01.61-.303 8.727-1.017 15.7-1.967 20.966-.357 1.98-.852 4.295-1.484 6.944.002 1.297-.297 2.385-.822 3.331-.935 3.675-2.088 7.882-3.459 12.62-.297-2.275-.791-4.114-1.482-5.518-.582-1.183-1.726-2.598-3.433-4.243a6.59 6.59 0 0 1-2.219-10.534c-4.297-.897-7.524-4.707-7.524-9.27 0-3.32 1.707-6.24 4.291-7.93-7.629 1.795-17.334 3.33-20.268 5.706-6.03 4.883-18.26 5.684-29.318 3.117-.245 1.115-1.853 2.398-1.976 3.966-.298 3.802-2.934 10.214-2.635 18.27-1.998-9.678-.46-15.76-.66-17.282-.158-1.218-.19-3.254-.095-6.108-4.521-1.483-8.294-3.589-10.445-6.245z" id="Combined-Shape" fill="#27221B" transform="matrix(-1 0 0 1 89.258 0)"/>
            <path d="M32 70c4.147 1.225 7.147 1.725 9 1.5 1.69-.205 3.775-.649 5.5-1.5 1.11-.548 2.088-2.412 1.5-3-.663-.663-1.751-.994-3-4-.423-1.02-.923-3.02-1.5-6" id="Path-5" stroke="#363636"/>
            <path d="M29.482 103.4c4.594 1.17 8.08 1.755 10.46 1.755 2.378 0 5.865-.585 10.458-1.755v8.891c-5.51 1.02-9.628 1.45-12.353 1.287-2.724-.162-6.458-1.059-11.2-2.69l2.635-7.488z" id="Path-28" fill="#81F4DD"/>
          </g>
          <g id="top_sleeve" transform="translate(8 227)" fill="#18C9CF">
            <path id="left_hand" d="M127.32.755L129.5 21l-20.5.508.5-5.008z"/>
            <path id="right_hand" transform="matrix(-1 0 0 1 20.918 0)" d="M18.612 0l2.306 20.753H0l.165-6.605z"/>
          </g>
        </g>
      </g>
    </g>
  </g>
</svg>
