<?xml version="1.0" encoding="UTF-8"?>
<svg width="375px" height="644px" viewBox="0 0 375 644" version="1.1" xmlns="http://www.w3.org/2000/svg" xmlns:xlink="http://www.w3.org/1999/xlink">
    <!-- Generator: Sketch 49.1 (51147) - http://www.bohemiancoding.com/sketch -->
    <title>zigzag_add_video_bg</title>
    <desc>Created with Sketch.</desc>
    <defs></defs>
    <g id="Assets" stroke="none" stroke-width="1" fill="none" fill-rule="evenodd">
        <g id="Artboard-2" transform="translate(-977.000000, -14.000000)" fill="#F4F2EC">
            <polygon id="zigzag_add_video_bg" points="1193.77997 14 1194.74157 14 1207.33262 32 1219.92367 14 1220.87314 14 1233.45374 31.9850532 1246.03434 14 1247.00471 14 1259.58531 31.9850591 1272.16591 14 1273.13628 14 1285.71688 31.9850591 1298.29748 14 1299.26785 14 1311.84845 31.9850591 1324.42905 14 1325.39943 14 1337.98003 31.9850591 1352 14.5499742 1352 658 977 658 977 14.0410872 992.520639 31.9850591 1005.58643 14.2426294 1018.12958 30.8644878 1029.62747 14.2426294 1041.12536 30.8644878 1052.63804 14.0410872 1064.64378 30.8644878 1076.55374 14.2426294 1087.63956 30.9033883 1099.13745 14.2426294 1110.63535 30.8644878 1121.08798 14.2426294 1133.1085 30.9033883 1144.60639 14.2426294 1156.10428 30.9033883 1169.17007 14.2426294 1181.39016 31.7123074"></polygon>
        </g>
    </g>
</svg>