<?xml version="1.0" encoding="UTF-8"?>
<svg width="24px" height="22px" viewBox="0 0 24 22" version="1.1" xmlns="http://www.w3.org/2000/svg" xmlns:xlink="http://www.w3.org/1999/xlink">
    <!-- Generator: Sketch 49.1 (51147) - http://www.bohemiancoding.com/sketch -->
    <title>like_filled_blog</title>
    <desc>Created with Sketch.</desc>
    <defs></defs>
    <g id="Assets" stroke="none" stroke-width="1" fill="none" fill-rule="evenodd">
        <g id="Artboard-3" transform="translate(-14.000000, -13.000000)" fill="#FF0048" fill-rule="nonzero">
            <g id="like_filled_blog" transform="translate(14.000000, 13.000000)">
                <path d="M21.95,2.051 C20.627,0.729 18.87,0 17,0 C15.13,0 13.373,0.729 12.051,2.05 C12.034,2.067 12.017,2.084 12,2.102 C11.983,2.084 11.967,2.068 11.95,2.051 C10.627,0.729 8.87,0 7,0 C5.13,0 3.373,0.729 2.05,2.051 C0.727,3.373 0,5.13 0,7 C0,8.87 0.728,10.627 2.05,11.949 L12,21.899 L21.95,11.949 C23.272,10.627 24,8.87 24,7 C24,5.131 23.272,3.373 21.95,2.051 Z" id="Shape"></path>
            </g>
        </g>
    </g>
</svg>