<?xml version="1.0" encoding="UTF-8"?>
<svg width="375px" height="286px" viewBox="0 0 375 286" version="1.1" xmlns="http://www.w3.org/2000/svg" xmlns:xlink="http://www.w3.org/1999/xlink">
    <!-- Generator: Sketch 49.1 (51147) - http://www.bohemiancoding.com/sketch -->
    <title>zigzag_choose_part_tags_bg</title>
    <desc>Created with Sketch.</desc>
    <defs></defs>
    <g id="Assets" stroke="none" stroke-width="1" fill="none" fill-rule="evenodd">
        <g id="Artboard-2" transform="translate(-1448.000000, -193.000000)" fill="#FCFCFA">
            <polygon id="zigzag_choose_part_tags_bg" points="1823 471.438322 1808.98003 478.993526 1796.07658 471 1795.7519 471 1782.84845 478.993526 1769.94501 471 1769.62033 471 1756.71688 478.993526 1743.81343 471 1743.48876 471 1730.58531 478.993526 1717.68186 471 1717.35719 471 1704.45374 478.993523 1691.5503 471 1691.24652 471 1678.33262 479 1665.41872 471 1665.10282 471 1652.39016 478.875333 1640.17007 471.305139 1627.10428 478.524802 1615.60639 471.305139 1604.1085 478.524802 1592.08798 471.305139 1581.63535 478.507945 1570.13745 471.305139 1558.63956 478.524802 1547.55374 471.305139 1535.64378 478.507945 1523.63804 471.217804 1512.12536 478.507945 1500.62747 471.305139 1489.12958 478.507945 1476.58643 471.305139 1463.52064 478.993526 1448 471.217804 1448 193 1823 193"></polygon>
        </g>
    </g>
</svg>