<?xml version="1.0" encoding="UTF-8"?>
<svg width="345px" height="15px" viewBox="0 0 345 15" version="1.1" xmlns="http://www.w3.org/2000/svg" xmlns:xlink="http://www.w3.org/1999/xlink">
    <!-- Generator: Sketch 49.1 (51147) - http://www.bohemiancoding.com/sketch -->
    <title>zigzag_big_grey_down</title>
    <desc>Created with Sketch.</desc>
    <defs></defs>
    <g id="Assets" stroke="none" stroke-width="1" fill="none" fill-rule="evenodd">
        <g id="Artboard-3" transform="translate(-31.000000, -17.000000)" stroke="#979797">
            <polyline id="divider" points="31 30.9896098 44.0484115 18.6510873 56.5748865 30.2103369 68.0574887 18.6510873 79.5400908 30.2103369 91.0374614 18.5109299 103.027231 30.2103369 114.921352 18.6510873 125.992436 30.2373892 137.475038 18.6510873 148.95764 30.2103369 159.396369 18.6510873 171.400908 30.2373892 182.88351 18.6510873 194.366112 30.2373892 207.414523 18.6510873 219.618363 30.7999315 232.471856 18.0043617 245.526324 31 258.574739 18.0103868 271.612712 30.9896056 284.66112 18 297.709531 30.9896098 310.757943 18 323.806354 30.9896098 336.854766 18 349.903177 30.9896098 362.951589 18 376 30.9896098"></polyline>
        </g>
    </g>
</svg>