<?xml version="1.0" encoding="UTF-8"?>
<svg width="375px" height="192px" viewBox="0 0 375 192" version="1.1" xmlns="http://www.w3.org/2000/svg" xmlns:xlink="http://www.w3.org/1999/xlink">
    <!-- Generator: Sketch 49.1 (51147) - http://www.bohemiancoding.com/sketch -->
    <title>zigzag_add_stim_save</title>
    <desc>Created with Sketch.</desc>
    <defs></defs>
    <g id="Assets" stroke="none" stroke-width="1" fill="none" fill-rule="evenodd">
        <g id="Artboard-2" transform="translate(-1135.000000, -715.000000)" fill="#FCFCFA">
            <path d="M1510,716.307684 L1510,906.809217 L1135,906.809217 L1135,715.772569 L1150.52064,734.641374 L1163.58643,715.984498 L1176.12958,733.463049 L1187.62747,715.984498 L1199.12536,733.463049 L1210.63804,715.772569 L1222.64378,733.463049 L1234.55374,715.984498 L1245.63956,733.503954 L1257.13745,715.984498 L1268.63535,733.463049 L1279.08798,715.984498 L1291.1085,733.503954 L1302.60639,715.984498 L1314.10428,733.503954 L1327.17007,715.984498 L1339.39016,734.354565 L1352.26077,715.006595 L1365.33262,734.657085 L1378.39841,715.015706 L1391.45374,734.641368 L1404.51952,715 L1417.58531,734.641374 L1430.6511,715 L1443.71688,734.641374 L1456.78267,715 L1469.84845,734.641374 L1482.91424,715 L1495.98003,734.641374 L1510,716.307684 Z" id="Combined-Shape"></path>
        </g>
    </g>
</svg>