<?xml version="1.0" encoding="UTF-8"?>
<svg width="345px" height="528px" viewBox="0 0 345 528" version="1.1" xmlns="http://www.w3.org/2000/svg" xmlns:xlink="http://www.w3.org/1999/xlink">
    <!-- Generator: Sketch 49.1 (51147) - http://www.bohemiancoding.com/sketch -->
    <title>zigzag_modal_bg</title>
    <desc>Created with Sketch.</desc>
    <defs></defs>
    <g id="Assets" stroke="none" stroke-width="1" fill="none" fill-rule="evenodd">
        <g id="Artboard-2" transform="translate(-64.000000, -72.000000)" fill="#FFFFFF">
            <path d="M296.84968,72 L310.951626,85 L324.879706,72 L338.957446,84.9895372 L352.874317,72 L366.974465,84.9895414 L380.89134,72 L394.991488,84.9895414 L408.908364,72 L409,596 C409,598.209139 407.209139,600 405,600 L68,600 C65.790861,600 64,598.209139 64,596 L64,72.4287611 L80.6404876,84.9895414 L94.6489992,72.5698406 L108.09717,84.2051415 L120.424661,72.5698406 L132.752151,84.2051415 L145.095496,72.4287611 L157.967472,84.2051415 L170.73676,72.5698406 L182.622452,84.2323718 L194.949942,72.5698406 L207.277433,84.2051415 L218.484242,72.5698406 L231.372073,84.2323718 L243.699563,72.5698406 L256.027053,84.2323718 L270.035565,72.5698406 L283.137361,84.7986152 L296.84968,72 Z" id="bg"></path>
        </g>
    </g>
</svg>