<?xml version="1.0" encoding="UTF-8"?>
<svg width="40px" height="42px" viewBox="0 0 40 42" version="1.1" xmlns="http://www.w3.org/2000/svg" xmlns:xlink="http://www.w3.org/1999/xlink">
    <!-- Generator: Sketch 49.1 (51147) - http://www.bohemiancoding.com/sketch -->
    <title>add_stim_icn_sm</title>
    <desc>Created with Sketch.</desc>
    <defs></defs>
    <g id="Assets" stroke="none" stroke-width="1" fill="none" fill-rule="evenodd">
        <g id="Artboard-3" transform="translate(-16.000000, -12.000000)">
            <g id="add_stim_icn" transform="translate(16.000000, 12.000000)">
                <path d="M1.19122342,13.3842751 C-5.07777427,31.6785069 14.6069635,45.7871109 31.948353,40.8408572 C37.4516916,39.2711497 40.5209413,27.8282411 39.9271374,23.21489 C36.9461684,0.0552964313 12.8825337,-9.50925243 1.60714642,12.1044215 C2.16637346,10.5165508 2.02773246,10.9431687 1.19122342,13.3842751 Z" id="Path-4" fill="#FFFFFF"></path>
                <g id="fat-add" transform="translate(11.034483, 11.954023)" fill="#449694" fill-rule="nonzero">
                    <path d="M0.471869328,11.3248639 L6.6061706,11.3248639 L6.6061706,17.4591652 C6.6061706,17.7422868 6.79491833,17.9310345 7.07803993,17.9310345 L10.8529946,17.9310345 C11.1361162,17.9310345 11.3248639,17.7422868 11.3248639,17.4591652 L11.3248639,11.3248639 L17.4591652,11.3248639 C17.7422868,11.3248639 17.9310345,11.1361162 17.9310345,10.8529946 L17.9310345,7.07803993 C17.9310345,6.79491833 17.7422868,6.6061706 17.4591652,6.6061706 L11.3248639,6.6061706 L11.3248639,0.471869328 C11.3248639,0.188747731 11.1361162,0 10.8529946,0 L7.07803993,0 C6.79491833,0 6.6061706,0.188747731 6.6061706,0.471869328 L6.6061706,6.6061706 L0.471869328,6.6061706 C0.188747731,6.6061706 0,6.79491833 0,7.07803993 L0,10.8529946 C0,11.1361162 0.188747731,11.3248639 0.471869328,11.3248639 Z" id="Shape"></path>
                </g>
            </g>
        </g>
    </g>
</svg>