<?xml version="1.0" encoding="UTF-8"?>
<svg width="40px" height="46px" viewBox="0 0 40 46" version="1.1" xmlns="http://www.w3.org/2000/svg" xmlns:xlink="http://www.w3.org/1999/xlink">
    <!-- Generator: Sketch 49.1 (51147) - http://www.bohemiancoding.com/sketch -->
    <title>moodboard_icn_sm</title>
    <desc>Created with Sketch.</desc>
    <defs></defs>
    <g id="Assets" stroke="none" stroke-width="1" fill="none" fill-rule="evenodd">
        <g id="Artboard-3" transform="translate(-16.000000, -10.000000)">
            <g id="moodboard_icn_sm" transform="translate(36.000000, 33.000000) scale(-1, 1) translate(-36.000000, -33.000000) translate(16.000000, 10.000000)">
                <path d="M1.7819095,15.029018 C-4.31774829,32.8080882 5.87257289,49.1159465 22.7455319,44.3089782 C24.7313362,43.7432388 34.908407,37.8608541 36.2649403,34.956971 C38.5662716,30.0305922 40.3155496,24.3596126 39.9520517,21.5388737 C37.2971286,0.936705772 18.5904402,-7.36105787 6.76804935,7.71416738 C5.67473301,9.1083008 3.11527828,12.0071256 2.18659746,13.7852048 C2.73071851,12.2420483 2.59582252,12.6566527 1.7819095,15.029018 Z" id="Path-4" fill="#FFFFFF"></path>
                <g id="searching-love-magnifier-looking-dating" transform="translate(7.096774, 9.032258)" fill="#449694" fill-rule="nonzero">
                    <path d="M8.37634409,1.76344086 C4.72998925,1.76344086 1.76344086,4.72998925 1.76344086,8.37634409 C1.76344086,12.0226989 4.72998925,14.9892473 8.37634409,14.9892473 C12.0226989,14.9892473 14.9892473,12.0226989 14.9892473,8.37634409 C14.9892473,4.72998925 12.0226989,1.76344086 8.37634409,1.76344086 Z M8.37634409,14.1075269 C5.21625806,14.1075269 2.64516129,11.5364301 2.64516129,8.37634409 C2.64516129,5.21625806 5.21625806,2.64516129 8.37634409,2.64516129 C11.5364301,2.64516129 14.1075269,5.21625806 14.1075269,8.37634409 C14.1075269,11.5364301 11.5364301,14.1075269 8.37634409,14.1075269 Z" id="Shape"></path>
                    <path d="M18.8278172,16.441 C18.7452011,16.3582433 18.6330653,16.3117393 18.516129,16.3117393 C18.3991928,16.3117393 18.2870569,16.3582433 18.2044409,16.441 L17.6344086,17.0110323 L14.5933548,13.9699785 C15.9309247,12.4851613 16.7526882,10.5273011 16.7526882,8.37634409 C16.7526882,3.75745161 12.9952366,0 8.37634409,0 C3.75745161,0 0,3.75745161 0,8.37634409 C0,12.9952366 3.75745161,16.7526882 8.37634409,16.7526882 C10.5273011,16.7526882 12.4851613,15.9309247 13.9699785,14.5933548 L17.0110323,17.6344086 L16.441,18.2044409 C16.3582433,18.2870569 16.3117393,18.3991928 16.3117393,18.516129 C16.3117393,18.6330653 16.3582433,18.7452011 16.441,18.8278172 L23.9356237,26.3224409 C24.0181241,26.4054148 24.1303033,26.4520691 24.2473118,26.4520691 C24.3643204,26.4520691 24.4764996,26.4054148 24.559,26.3224409 L26.3224409,24.559 C26.4051975,24.4763839 26.4517016,24.3642481 26.4517016,24.2473118 C26.4517016,24.1303756 26.4051975,24.0182397 26.3224409,23.9356237 L18.8278172,16.441 Z M8.37634409,15.8709677 C4.24372043,15.8709677 0.88172043,12.5089677 0.88172043,8.37634409 C0.88172043,4.24372043 4.24372043,0.88172043 8.37634409,0.88172043 C12.5089677,0.88172043 15.8709677,4.24372043 15.8709677,8.37634409 C15.8709677,12.5089677 12.5089677,15.8709677 8.37634409,15.8709677 Z M24.2473118,25.3873763 L17.3760645,18.516129 L18.516129,17.3760645 L25.3873763,24.2473118 L24.2473118,25.3873763 Z" id="Shape"></path>
                    <path d="M10.1397849,5.7311828 C9.44568299,5.7312865 8.79222186,6.05850716 8.37634409,6.61422581 C7.96046631,6.05850716 7.30700519,5.7312865 6.61290323,5.7311828 C5.39745161,5.7311828 4.40860215,6.72003226 4.40860215,7.93548387 C4.40860215,9.15093548 5.39745161,10.1397849 6.61290323,10.1397849 C7.34208602,10.1397849 7.93548387,10.7331828 7.93548387,11.4623656 C7.93548387,11.705846 8.13286371,11.9032258 8.37634409,11.9032258 C8.61982446,11.9032258 8.8172043,11.705846 8.8172043,11.4623656 C8.8172043,10.7331828 9.41060215,10.1397849 10.1397849,10.1397849 C11.3552366,10.1397849 12.344086,9.15093548 12.344086,7.93548387 C12.344086,6.72003226 11.3552366,5.7311828 10.1397849,5.7311828 Z M10.1397849,9.25806452 C9.44568299,9.25816822 8.79222186,9.58538888 8.37634409,10.1411075 C7.96046631,9.58538888 7.30700519,9.25816822 6.61290323,9.25806452 C5.88372043,9.25806452 5.29032258,8.66466667 5.29032258,7.93548387 C5.29032258,7.20630108 5.88372043,6.61290323 6.61290323,6.61290323 C7.34208602,6.61290323 7.93548387,7.20630108 7.93548387,7.93548387 C7.93548387,8.17896424 8.13286371,8.37634409 8.37634409,8.37634409 C8.61982446,8.37634409 8.8172043,8.17896424 8.8172043,7.93548387 C8.8172043,7.20630108 9.41060215,6.61290323 10.1397849,6.61290323 C10.8689677,6.61290323 11.4623656,7.20630108 11.4623656,7.93548387 C11.4623656,8.66466667 10.8689677,9.25806452 10.1397849,9.25806452 Z" id="Shape"></path>
                </g>
            </g>
        </g>
    </g>
</svg>