<?xml version="1.0" encoding="UTF-8"?>
<svg width="40px" height="46px" viewBox="0 0 40 46" version="1.1" xmlns="http://www.w3.org/2000/svg" xmlns:xlink="http://www.w3.org/1999/xlink">
    <!-- Generator: Sketch 49.1 (51147) - http://www.bohemiancoding.com/sketch -->
    <title>more_info_icn_sm</title>
    <desc>Created with Sketch.</desc>
    <defs></defs>
    <g id="Assets" stroke="none" stroke-width="1" fill="none" fill-rule="evenodd">
        <g id="Artboard-3" transform="translate(-16.000000, -10.000000)">
            <g id="more_info_icn_sm" transform="translate(16.000000, 10.000000)">
                <g id="icon">
                    <path d="M1.7819095,15.029018 C-4.31774829,32.8080882 5.87257289,49.1159465 22.7455319,44.3089782 C24.7313362,43.7432388 34.908407,37.8608541 36.2649403,34.956971 C38.5662716,30.0305922 40.3155496,24.3596126 39.9520517,21.5388737 C37.2971286,0.936705772 18.5904402,-7.36105787 6.76804935,7.71416738 C5.67473301,9.1083008 3.11527828,12.0071256 2.18659746,13.7852048 C2.73071851,12.2420483 2.59582252,12.6566527 1.7819095,15.029018 Z" id="Path-4" fill="#FFFFFF"></path>
                    <g id="question-mark-faq-more-information" transform="translate(3.870968, 6.451613)" fill="#449694" fill-rule="nonzero">
                        <path d="M16.1290323,2.51360887 C11.4042339,2.51360887 7.56048387,6.35735887 7.56048387,11.0821573 L7.56048387,14.1063508 C7.56048387,14.3847201 7.7861468,14.6103831 8.06451613,14.6103831 L12.0967742,14.6103831 C12.3751435,14.6103831 12.6008065,14.3847201 12.6008065,14.1063508 L12.6008065,11.0821573 C12.6008065,9.13659274 14.1839718,7.55393145 16.1290323,7.55393145 C18.0740927,7.55393145 19.6572581,9.13659274 19.6572581,11.0821573 L19.6572581,13.0625 L14.3472782,18.3724798 C13.8731773,18.8442301 13.6073188,19.4859199 13.608871,20.1547379 L13.608871,24.186996 C13.608871,24.4653653 13.8345339,24.6910282 14.1129032,24.6910282 L18.1451613,24.6910282 C18.4235306,24.6910282 18.6491935,24.4653653 18.6491935,24.186996 L18.6491935,21.1985887 L23.9591734,15.8886089 C24.4331793,15.416795 24.6990206,14.7751467 24.6975806,14.1063508 L24.6975806,11.0821573 C24.6975806,6.35735887 20.8538306,2.51360887 16.1290323,2.51360887 Z M23.6895161,14.1063508 C23.6895161,14.5100806 23.5322581,14.8896169 23.2464718,15.1759073 L17.7888105,20.6335685 C17.694091,20.7279448 17.6409351,20.8562084 17.641129,20.9899194 L17.641129,23.6829637 L14.6169355,23.6829637 L14.6169355,20.1547379 C14.6169355,19.7510081 14.7741935,19.3714718 15.0599798,19.0851815 L20.5176411,13.6275202 C20.6123133,13.5331122 20.6654607,13.4048692 20.6653226,13.2711694 L20.6653226,11.0821573 C20.6653226,8.58114919 18.6305444,6.54586694 16.1290323,6.54586694 C13.6275202,6.54586694 11.5927419,8.58114919 11.5927419,11.0821573 L11.5927419,13.6023185 L8.56854839,13.6023185 L8.56854839,11.0821573 C8.56854839,6.91330645 11.9601815,3.52167339 16.1290323,3.52167339 C20.2978831,3.52167339 23.6895161,6.91330645 23.6895161,11.0821573 L23.6895161,14.1063508 Z" id="Shape"></path>
                        <path d="M14.1129032,29.7313508 L18.1451613,29.7313508 C18.4235306,29.7313508 18.6491935,29.5056879 18.6491935,29.2273185 L18.6491935,26.203125 C18.6491935,25.9247557 18.4235306,25.6990927 18.1451613,25.6990927 L14.1129032,25.6990927 C13.8345339,25.6990927 13.608871,25.9247557 13.608871,26.203125 L13.608871,29.2273185 C13.608871,29.5056879 13.8345339,29.7313508 14.1129032,29.7313508 Z M14.6169355,26.7071573 L17.641129,26.7071573 L17.641129,28.7232863 L14.6169355,28.7232863 L14.6169355,26.7071573 Z" id="Shape"></path>
                        <path d="M5.24294355,5.62802419 L4.51764113,4.92792339 C4.27818477,5.17585933 4.04687901,5.43153961 3.82409274,5.69455645 L4.59274194,6.34677419 C4.80191532,6.10030242 5.01864919,5.86038306 5.24294355,5.62802419 Z" id="Shape"></path>
                        <path d="M31.2152218,15.0897177 L32.2212702,15.0216734 C32.1980013,14.6781069 32.163878,14.3353619 32.1189516,13.9939516 L31.1199597,14.125504 C31.1612903,14.4440524 31.1935484,14.765121 31.2152218,15.0897177 Z" id="Shape"></path>
                        <path d="M8.25655242,3.20917339 L7.73084677,2.34929435 C7.43699597,2.52872984 7.14919355,2.71774194 6.86794355,2.91532258 L7.44657258,3.74042339 C7.71109721,3.55513933 7.98121629,3.37797349 8.25655242,3.20917339 Z" id="Shape"></path>
                        <path d="M3.98941532,7.10483871 L3.17943548,6.50453629 C2.97433162,6.78115565 2.77783309,7.06405302 2.59022177,7.35282258 L3.4359879,7.90171371 C3.61173434,7.6301313 3.79630864,7.36436448 3.98941532,7.10483871 Z" id="Shape"></path>
                        <path d="M6.671875,4.32258065 L6.04183468,3.53578629 C5.77268145,3.7515121 5.51058468,3.97530242 5.25655242,4.20766129 L5.93699597,4.95211694 C6.17540323,4.73487903 6.4203629,4.52469758 6.671875,4.32258065 Z" id="Shape"></path>
                        <path d="M1.00806452,16.1547379 L0,16.15625 C0.000504032258,16.5030242 0.0120967742,16.8477823 0.0342741935,17.1890121 L1.04032258,17.1229839 C1.01915908,16.8006662 1.00840079,16.4777495 1.00806452,16.1547379 Z" id="Shape"></path>
                        <path d="M1.13508065,18.0877016 L0.135080645,18.2162298 C0.178931452,18.5564516 0.234879032,18.8996976 0.300907258,19.2373992 L1.29032258,19.0428427 C1.2280041,18.7262708 1.17622818,18.4077145 1.13508065,18.0877016 Z" id="Shape"></path>
                        <path d="M1.12550403,14.2202621 L0.125504032,14.0962702 C0.0830084559,14.4377634 0.0512387912,14.7805059 0.0302419355,15.1239919 L1.03629032,15.1859879 C1.05645161,14.8608871 1.08618952,14.5393145 1.12550403,14.2202621 Z" id="Shape"></path>
                        <path d="M2.09627016,10.4793347 L1.16129032,10.1028226 C1.0327621,10.422379 0.914314516,10.7464718 0.805947581,11.0756048 L1.76360887,11.390625 C1.86491935,11.0821573 1.97580645,10.7782258 2.09627016,10.4793347 Z" id="Shape"></path>
                        <path d="M2.93397177,8.73084677 L2.05493952,8.23790323 C1.88619419,8.53857015 1.72733892,8.84468174 1.57862903,9.15574597 L2.48739919,9.59122984 C2.62752016,9.29939516 2.77671371,9.01209677 2.93397177,8.73084677 Z" id="Shape"></path>
                        <path d="M1.50655242,19.9879032 L0.531754032,20.2439516 C0.618951613,20.5756048 0.718245968,20.9092742 0.827116935,21.234879 L1.7827621,20.9153226 C1.68104672,20.6091378 1.5889318,20.2998468 1.50655242,19.9879032 Z" id="Shape"></path>
                        <path d="M28.7741935,7.82762097 L29.6159274,7.27318548 C29.4267036,6.98579802 29.2285217,6.70440997 29.0216734,6.42943548 L28.2162298,7.03528226 C28.4102823,7.29334677 28.5962702,7.55796371 28.7741935,7.82762097 Z" id="Shape"></path>
                        <path d="M23.5428427,1.79485887 C23.2362997,1.6362022 22.9248204,1.48727037 22.608871,1.34828629 L22.203125,2.27116935 C22.4992047,2.40083306 22.7908662,2.54035993 23.077621,2.68951613 L23.5428427,1.79485887 Z" id="Shape"></path>
                        <path d="M9.96925403,2.30897177 L9.55796371,1.38860887 C9.24294355,1.52923387 8.93397177,1.67993952 8.62953629,1.83971774 L9.09929435,2.73235887 C9.38356855,2.58215726 9.67389113,2.44102823 9.96925403,2.30897177 Z" id="Shape"></path>
                        <path d="M28.374496,5.62399194 C28.1500527,5.36284017 27.9174096,5.10884907 27.6769153,4.86239919 L26.9551411,5.56602823 C27.1804435,5.79737903 27.3986895,6.03629032 27.609375,6.28125 L28.374496,5.62399194 Z" id="Shape"></path>
                        <path d="M29.7298387,9.50856855 L30.6365927,9.06703629 C30.4857655,8.7577907 30.3252357,8.45337231 30.1552419,8.15423387 L29.2792339,8.65221774 C29.438004,8.93245968 29.5887097,9.21774194 29.7298387,9.50856855 Z" id="Shape"></path>
                        <path d="M19.6663306,0.382560484 C19.3298908,0.307608233 18.9911826,0.243228453 18.6507056,0.189516129 L18.4939516,1.18548387 C18.8145161,1.2358871 19.1320565,1.29637097 19.4455645,1.36643145 L19.6663306,0.382560484 Z" id="Shape"></path>
                        <path d="M30.4642137,11.2993952 L31.4198589,10.9778226 C31.3098728,10.6513245 31.1895161,10.3284122 31.0589718,10.0095766 L30.125504,10.3916331 C30.2484879,10.6895161 30.3608871,10.9924395 30.4642137,11.2993952 Z" id="Shape"></path>
                        <path d="M21.6486895,0.963205645 C21.3248278,0.845035607 20.997201,0.737451622 20.6663306,0.640625 L20.3835685,1.60836694 C20.6940524,1.69909274 21.0010081,1.79989919 21.3029234,1.91028226 L21.6486895,0.963205645 Z" id="Shape"></path>
                        <path d="M13.6683468,1.20060484 L13.5060484,0.205645161 C13.1643145,0.261592742 12.8261089,0.328125 12.4919355,0.405241935 L12.718246,1.38760081 C13.0328816,1.31520199 13.3497423,1.25283841 13.6683468,1.20060484 Z" id="Shape"></path>
                        <path d="M17.625,0.0619959677 C17.2821459,0.0306228773 16.9383969,0.00994750953 16.594254,-3.55271368e-15 L16.5655242,1.00756048 C16.890625,1.0171371 17.2132056,1.03629032 17.5332661,1.06552419 L17.625,0.0619959677 Z" id="Shape"></path>
                        <path d="M11.7822581,1.63558468 L11.4929435,0.669858871 C11.1617944,0.769153226 10.8346774,0.879032258 10.5131048,0.998487903 L10.8644153,1.94304435 C11.1669129,1.83053283 11.4730256,1.72799095 11.7822581,1.63558468 Z" id="Shape"></path>
                        <path d="M15.5957661,1.01058468 L15.5604839,0.00302419355 C15.2142137,0.0151209677 14.8709677,0.0383064516 14.530746,0.0715725806 L14.6290323,1.07459677 C14.9505424,1.04332917 15.2729402,1.02198166 15.5957661,1.01058468 Z" id="Shape"></path>
                        <path d="M30.9616935,13.1698589 L31.9511089,12.9742944 C31.8839607,12.636273 31.8063021,12.3004247 31.718246,11.9672379 L30.7434476,12.2258065 C30.8261089,12.5372984 30.8991935,12.8518145 30.9616935,13.1698589 Z" id="Shape"></path>
                        <path d="M1.48991935,12.3190524 L0.514616935,12.0665323 C0.428147549,12.4000166 0.352503046,12.7362144 0.287802419,13.0745968 L1.27822581,13.2641129 C1.33870968,12.9455645 1.40977823,12.6305444 1.48991935,12.3190524 Z" id="Shape"></path>
                        <path d="M26.1431452,3.47782258 L25.5171371,4.26764113 C25.7706653,4.46824597 26.0171371,4.67741935 26.2570565,4.89364919 L26.9324597,4.14566532 C26.6769153,3.91481855 26.4133065,3.69203629 26.1431452,3.47782258 Z" id="Shape"></path>
                        <path d="M26.296875,27.3140121 L26.9763105,28.0594758 C27.2303427,27.827621 27.4778226,27.5882056 27.7172379,27.3407258 L26.9934476,26.6391129 C26.7676411,26.8714718 26.5357863,27.0967742 26.296875,27.3140121 Z" id="Shape"></path>
                        <path d="M24.7847782,28.5231855 L25.3634073,29.3487903 C25.6450846,29.151204 25.9205859,28.9449563 26.1895161,28.7303427 L25.5604839,27.9430444 C25.3084677,28.1441532 25.0493952,28.3377016 24.7847782,28.5231855 Z" id="Shape"></path>
                        <path d="M23.1315524,29.5277218 L23.5982863,30.4208669 C23.9034383,30.2614686 24.2033278,30.0921923 24.4974798,29.9133065 L23.9737903,29.0519153 C23.6985887,29.219254 23.4173387,29.3780242 23.1315524,29.5277218 Z" id="Shape"></path>
                        <path d="M27.6451613,25.921875 L28.4117944,26.5766129 C28.6325605,26.3175403 28.8497984,26.0453629 29.0569556,25.7681452 L28.2484879,25.1653226 C28.0558671,25.4241604 27.8546458,25.6764855 27.6451613,25.921875 Z" id="Shape"></path>
                        <path d="M24.4450605,2.29989919 L23.9243952,3.16330645 C24.2016129,3.33064516 24.4732863,3.50604839 24.7379032,3.69002016 L25.313004,2.86189516 C25.0297224,2.6654064 24.7402615,2.47797962 24.4450605,2.29989919 Z" id="Shape"></path>
                        <path d="M29.7570565,22.6819556 L30.6648185,23.1199597 C30.8145161,22.8104839 30.9541331,22.4949597 31.0841734,22.1743952 L30.1496976,21.7953629 C30.0280899,22.094914 29.8971456,22.3905894 29.7570565,22.6819556 Z" id="Shape"></path>
                        <path d="M31.25,16.0559476 L31.25,16.1219758 C31.25,16.4475806 31.2394153,16.7706653 31.219254,17.0907258 L32.2253024,17.1537298 C32.2471259,16.8104128 32.2580521,16.4664898 32.2580645,16.1224798 L32.2580645,16.0564516 L31.25,16.0564516 L31.25,16.0559476 Z" id="Shape"></path>
                        <path d="M28.8049395,24.3699597 L29.6496976,24.9208669 C29.8377016,24.6325605 30.0166331,24.3377016 30.1859879,24.0367944 L29.3079637,23.5418347 C29.1491231,23.8231466 28.9813633,24.0993283 28.8049395,24.3699597 Z" id="Shape"></path>
                        <path d="M30.9742944,19.0120968 L31.9637097,19.203125 C32.0292339,18.8669355 32.0836694,18.5262097 32.1275202,18.1829637 L31.1275202,18.0559476 C31.0865126,18.376196 31.0354119,18.695071 30.9742944,19.0120968 Z" id="Shape"></path>
                        <path d="M30.484375,20.8860887 L31.4410282,21.2021169 C31.5488911,20.8760081 31.6466734,20.5458669 31.734375,20.2116935 L30.7585685,19.9566532 C30.6774953,20.2694179 30.586047,20.5794009 30.484375,20.8860887 Z" id="Shape"></path>
                        <path d="M21.3649194,30.3125 L21.7132056,31.2585685 C22.0360397,31.1395859 22.3549242,31.0101494 22.6693548,30.8704637 L22.2600806,29.9490927 C21.9667339,30.0796371 21.6678427,30.2011089 21.3649194,30.3125 Z" id="Shape"></path>
                        <path d="M7.78326613,29.9274194 C8.07762097,30.1058468 8.37852823,30.2752016 8.68497984,30.4344758 L9.15070565,29.5408266 C8.86409001,29.3915025 8.58235795,29.2329862 8.30594758,29.0655242 L7.78326613,29.9274194 Z" id="Shape"></path>
                        <path d="M6.08820565,28.7454637 C6.35735887,28.9596774 6.63356855,29.1658266 6.91683468,29.3634073 L7.49395161,28.5362903 C7.22883073,28.3514986 6.96962824,28.1583574 6.71673387,27.9571573 L6.08820565,28.7454637 Z" id="Shape"></path>
                        <path d="M19.5085685,30.8644153 L19.7318548,31.8472782 C20.0650202,31.7716734 20.4017137,31.6829637 20.7318548,31.5846774 L20.4445565,30.6184476 C20.1365927,30.7101815 19.8245968,30.7923387 19.5085685,30.8644153 Z" id="Shape"></path>
                        <path d="M2.96370968,23.5645161 L2.08669355,24.0604839 C2.25655242,24.3603831 2.43548387,24.6547379 2.6234879,24.9425403 L3.4672379,24.390625 C3.29082661,24.1214718 3.12247984,23.8462702 2.96370968,23.5645161 Z" id="Shape"></path>
                        <path d="M2.11895161,21.8235887 L1.18548387,22.2041331 C1.31552419,22.5236895 1.45564516,22.8377016 1.60584677,23.1471774 L2.51260081,22.7071573 C2.37197459,22.4169174 2.24069074,22.1222432 2.11895161,21.8235887 Z" id="Shape"></path>
                        <path d="M4.02318548,25.1839718 L3.21572581,25.7878024 C3.421875,26.0635081 3.63760081,26.3326613 3.8608871,26.594254 L4.62752016,25.9395161 C4.41819554,25.6940731 4.2166508,25.4421001 4.02318548,25.1839718 Z" id="Shape"></path>
                        <path d="M4.55695565,27.3583669 C4.79737903,27.6053427 5.04485887,27.8447581 5.30090726,28.0761089 L5.97731855,27.3291331 C5.73801157,27.1123242 5.50570189,26.8879151 5.28074597,26.65625 L4.55695565,27.3583669 Z" id="Shape"></path>
                        <path d="M17.5962702,31.1733871 L17.6935484,32.1764113 C18.0362844,32.143479 18.3778619,32.099437 18.7177419,32.0443548 L18.5574597,31.0488911 C18.2399194,31.1008065 17.9193548,31.1421371 17.5962702,31.1733871 Z" id="Shape"></path>
                        <path d="M15.6602823,31.2363911 L15.6295363,32.2439516 C15.9738832,32.2544856 16.3184767,32.2541494 16.6628024,32.2429435 L16.6295363,31.2353831 C16.3079637,31.2454637 15.9823589,31.2459677 15.6602823,31.2363911 Z" id="Shape"></path>
                        <path d="M11.5589718,31.594254 C11.8893797,31.6919778 12.2228908,31.7788857 12.5589718,31.8548387 L12.78125,30.8714718 C12.4663487,30.800364 12.1538505,30.7190035 11.844254,30.6275202 L11.5589718,31.594254 Z" id="Shape"></path>
                        <path d="M9.61844758,30.8830645 C9.93296371,31.0216734 10.2530242,31.1512097 10.5771169,31.2701613 L10.9243952,30.3235887 C10.6199597,30.2116935 10.3195565,30.0907258 10.0246976,29.9606855 L9.61844758,30.8830645 Z" id="Shape"></path>
                        <path d="M13.5745968,32.0504032 C13.9122984,32.1038306 14.2540323,32.1471774 14.5987903,32.1799395 L14.6935484,31.1764113 C14.3719571,31.1460127 14.0514019,31.1055021 13.7323589,31.0549395 L13.5745968,32.0504032 Z" id="Shape"></path>
                    </g>
                </g>
            </g>
        </g>
    </g>
</svg>