<?xml version="1.0" encoding="UTF-8"?>
<svg width="103px" height="119px" viewBox="0 0 103 119" version="1.1" xmlns="http://www.w3.org/2000/svg" xmlns:xlink="http://www.w3.org/1999/xlink">
    <!-- Generator: Sketch 49.3 (51167) - http://www.bohemiancoding.com/sketch -->
    <title>discount-marketing-sale-price-</title>
    <desc>Created with Sketch.</desc>
    <defs></defs>
    <g id="Assets" stroke="none" stroke-width="1" fill="none" fill-rule="evenodd">
        <g id="Artboard-10" transform="translate(-576.000000, -179.000000)" fill-rule="nonzero">
            <g id="discount-marketing-sale-price-" transform="translate(576.000000, 179.000000)">
                <path d="M102.51585,50.2697153 L93.814801,40.2124904 L96.3342033,27.1466262 C96.5211726,26.1770199 95.9672687,25.2173969 95.0348889,24.8956007 L82.4715485,20.5561789 L78.1398402,7.97621885 C77.8184691,7.04260571 76.8601139,6.48796898 75.8917886,6.67518562 L62.8431859,9.1959375 L52.7992478,0.483378078 C52.0541106,-0.161126026 50.9497175,-0.161126026 50.2045803,0.483378078 L40.1606422,9.1959375 L27.1120395,6.67320234 C26.1440172,6.48778417 25.1867641,7.04178306 24.8639879,7.97423557 L20.530299,20.5541956 L7.96695851,24.8916341 C7.03457878,25.2134304 6.48067479,26.1730534 6.66764409,27.1426596 L9.18506577,40.2085238 L0.48401665,50.2657487 C-0.161338883,51.0112363 -0.161338883,52.118361 0.48401665,52.8638486 L9.18506577,62.9210735 L6.66566343,75.9869377 C6.47869413,76.9565439 7.03259812,77.9161669 7.96497785,78.2379632 L20.5025697,82.5674686 L2.51815675,101.775558 C1.97831791,102.353138 1.83244888,103.196516 2.14687135,103.922238 C2.46129383,104.64796 3.17599354,105.117506 3.96602083,105.117389 L17.8306564,105.117389 L17.8306564,117.017083 C17.8346537,117.817246 18.3175338,118.536955 19.0558299,118.843145 C19.794126,119.149335 20.6438024,118.98227 21.2116468,118.419264 L43.1078676,96.4940773 L50.2045803,102.650186 C50.9500327,103.293841 52.0537954,103.293841 52.7992478,102.650186 L59.8959605,96.4940773 L81.7921813,118.419264 C82.3586394,118.9863 83.210408,119.155898 83.950419,118.848997 C84.6904299,118.542097 85.1730007,117.819114 85.1731717,117.017083 L85.1731717,105.117389 L99.0378073,105.117389 C99.8279866,105.117751 100.542781,104.647789 100.856539,103.921613 C101.170298,103.195438 101.022983,102.351999 100.48171,101.775558 L82.4992778,82.5674686 L95.0348889,78.2399464 C95.9672687,77.9181502 96.5211726,76.9585272 96.3342033,75.9889209 L93.8167817,62.9230567 L102.517831,52.8658319 C103.161474,52.1201775 103.160631,51.014384 102.51585,50.2697153 Z M21.7919808,112.22944 L21.7919808,103.134107 C21.7919808,102.03877 20.9052081,101.150824 19.8113186,101.150824 L8.53738923,101.150824 L21.9821244,86.79186 L24.8639879,95.1593283 C24.9214271,95.3279073 25.0224409,95.4707036 25.1194933,95.6115167 C25.5513224,96.2715555 26.3379062,96.6058653 27.1120395,96.4583782 L40.0338798,93.9614257 L21.7919808,112.22944 Z M83.1925095,101.150824 C82.09862,101.150824 81.2118473,102.03877 81.2118473,103.134107 L81.2118473,112.22944 L62.9699483,93.963409 L75.8898079,96.4603615 C76.8585884,96.6502983 77.8186151,96.0946942 78.1378596,95.1593283 L81.0197231,86.7898767 L94.4664389,101.150824 L83.1925095,101.150824 Z M90.1921698,61.056788 C89.7945421,61.5165148 89.6295475,62.1335044 89.7445401,62.7306783 L92.1193541,75.0528117 L80.2690521,79.1443232 C79.6935433,79.3429167 79.2413533,79.7957048 79.0430222,80.371975 L78.3517711,82.38104 L78.3497904,82.3850066 L74.956916,92.2379534 L62.6530423,89.8599978 C62.0566146,89.7436356 61.4399122,89.90899 60.9813634,90.3082196 L51.501914,98.5269417 L42.026426,90.3082196 C41.8176615,90.1347529 41.5756898,90.0058455 41.3153683,89.9294127 C41.2321805,89.90363 41.1509733,89.8996634 41.0658048,89.8837972 C40.9529071,89.8639644 40.8459513,89.8242987 40.7310729,89.8242987 C40.6062912,89.8242987 40.4815095,89.8361984 40.3567278,89.8599978 L28.0508734,92.2379534 L23.9647672,80.371975 C23.7664361,79.7957048 23.3142462,79.3429167 22.7387373,79.1443232 L10.8884353,75.0528117 L13.2632493,62.7306783 C13.3782419,62.1335044 13.2132473,61.5165148 12.8156196,61.056788 L4.60577472,51.5687652 L12.813639,42.0807424 C13.2112667,41.6210156 13.3762613,41.0040261 13.2612686,40.4068521 L10.8864546,28.0847187 L22.7367567,23.9932072 C23.3122655,23.7946137 23.7644555,23.3418256 23.9627866,22.7655554 L28.0488927,10.8995771 L40.3547471,13.2775326 C40.9511748,13.3938948 41.5678772,13.2285404 42.026426,12.8293108 L51.501914,4.61058868 L60.9774021,12.8293108 C61.4359509,13.2285404 62.0526533,13.3938948 62.649081,13.2775326 L74.9549354,10.8995771 L79.0410415,22.7655554 C79.2391077,23.3426906 79.6926794,23.794879 80.2670714,23.9932072 L92.1173735,28.0847187 L89.7425595,40.4068521 C89.6275668,41.0040261 89.7925614,41.6210156 90.1901891,42.0807424 L98.3980534,51.5687652 L90.1921698,61.056788 Z" id="Shape" fill="#449694"></path>
                <path d="M51.5,16 C31.9256944,16 16,31.9256944 16,51.5 C16,71.0743056 31.9256944,87 51.5,87 C71.0743056,87 87,71.0743056 87,51.5 C87,31.9256944 71.0743056,16 51.5,16 Z M51.5,83.0555556 C34.1010556,83.0555556 19.9444444,68.8989444 19.9444444,51.5 C19.9444444,34.1010556 34.1010556,19.9444444 51.5,19.9444444 C68.8989444,19.9444444 83.0555556,34.1010556 83.0555556,51.5 C83.0555556,68.8989444 68.8989444,83.0555556 51.5,83.0555556 Z" id="Shape" fill="#BDF0E6"></path>
                <g id="excellent-star-prize-award-feedback-win" transform="translate(30.000000, 30.000000)" fill="#449694">
                    <path d="M43.9712005,16.7517587 C43.8834271,16.4908681 43.6570065,16.301141 43.3848963,16.2604702 L29.0864021,14.0606709 L22.6517133,0.429248115 C22.5326547,0.167795375 22.2719517,0 21.9847923,0 C21.6976329,0 21.4369299,0.167795375 21.3178713,0.429248115 L14.9198265,14.0680036 L0.621332359,16.2678028 C0.351214322,16.3094293 0.126686879,16.4979787 0.0388755296,16.7569275 C-0.0489358194,17.0158762 0.0145591086,17.302199 0.203590603,17.4996904 L10.5738465,28.1320535 L8.12602635,43.1493498 C8.09274006,43.4218672 8.21439571,43.6901584 8.44127578,43.8445799 C8.66815585,43.9990014 8.96224646,44.0136798 9.20336035,43.8826163 L21.9847923,36.835926 L34.7662243,43.9119469 C34.8742672,43.9702968 34.9952305,44.0005535 35.1180068,43.9999389 C35.3345126,44.0027328 35.5411722,43.9095959 35.6825492,43.7455122 C35.8239262,43.5814284 35.8855489,43.3631939 35.8508871,43.1493498 L33.3957381,28.1247209 L43.765994,17.4923577 C43.9685753,17.3040015 44.0479347,17.0175897 43.9712005,16.7517587 Z M32.0838825,27.3694565 C31.9216069,27.5363106 31.8481674,27.7703522 31.8860048,28.0000656 L34.1506048,41.9321276 L22.3365748,35.3620604 C22.1098209,35.231075 21.8304485,35.231075 21.6036946,35.3620604 L9.81897978,41.8954643 L12.0835798,27.9634023 C12.1214172,27.7336888 12.0479777,27.4996473 11.8857021,27.3327931 L2.25565537,17.4923577 L15.5281171,15.4612098 C15.7680045,15.4238698 15.9738428,15.2700962 16.0777773,15.0505806 L21.9847923,2.4603961 L27.8918073,15.0505806 C27.9957418,15.2700962 28.2015801,15.4238698 28.4414675,15.4612098 L41.7139292,17.4923577 L32.0838825,27.3694565 Z" id="Shape"></path>
                    <path d="M43.2777778,5.77777778 C40.4856715,5.77777778 38.2222222,3.51432846 38.2222222,0.722222222 C38.2222222,0.323349903 37.8988723,0 37.5,0 C37.1011277,0 36.7777778,0.323349903 36.7777778,0.722222222 C36.7777778,3.51432846 34.5143285,5.77777778 31.7222222,5.77777778 C31.3233499,5.77777778 31,6.10112768 31,6.5 C31,6.89887232 31.3233499,7.22222222 31.7222222,7.22222222 C34.5143285,7.22222222 36.7777778,9.48567154 36.7777778,12.2777778 C36.7777778,12.6766501 37.1011277,13 37.5,13 C37.8988723,13 38.2222222,12.6766501 38.2222222,12.2777778 C38.2222222,9.48567154 40.4856715,7.22222222 43.2777778,7.22222222 C43.6766501,7.22222222 44,6.89887232 44,6.5 C44,6.10112768 43.6766501,5.77777778 43.2777778,5.77777778 Z M37.5,9.30222222 C36.8772681,8.10151076 35.8984892,7.12273194 34.6977778,6.5 C35.8984892,5.87726806 36.8772681,4.89848924 37.5,3.69777778 C38.1227319,4.89848924 39.1015108,5.87726806 40.3022222,6.5 C39.1015108,7.12273194 38.1227319,8.10151076 37.5,9.30222222 Z" id="Shape"></path>
                    <path d="M0.75,33.25 C2.40685425,33.25 3.75,34.5931458 3.75,36.25 C3.75,36.6642136 4.08578644,37 4.5,37 C4.91421356,37 5.25,36.6642136 5.25,36.25 C5.25,34.5931458 6.59314575,33.25 8.25,33.25 C8.66421356,33.25 9,32.9142136 9,32.5 C9,32.0857864 8.66421356,31.75 8.25,31.75 C6.59314575,31.75 5.25,30.4068542 5.25,28.75 C5.25,28.3357864 4.91421356,28 4.5,28 C4.08578644,28 3.75,28.3357864 3.75,28.75 C3.75,30.4068542 2.40685425,31.75 0.75,31.75 C0.335786438,31.75 0,32.0857864 0,32.5 C0,32.9142136 0.335786438,33.25 0.75,33.25 Z M4.5,31.2325 C4.83176924,31.7369125 5.26308749,32.1682308 5.7675,32.5 C5.26308749,32.8317692 4.83176924,33.2630875 4.5,33.7675 C4.16823076,33.2630875 3.73691251,32.8317692 3.2325,32.5 C3.73691251,32.1682308 4.16823076,31.7369125 4.5,31.2325 Z" id="Shape"></path>
                    <path d="M13,12 C13,7.02943725 8.97056275,3 4,3 L4,4.5 C8.14213562,4.5 11.5,7.85786438 11.5,12 L13,12 Z" id="Shape"></path>
                    <polygon id="Shape" points="1 3 2 3 2 4 1 4"></polygon>
                    <path d="M39.4285714,31 C39.4285714,29.0275545 41.0275545,27.4285714 43,27.4285714 L43,26 C40.2385763,26 38,28.2385763 38,31 L39.4285714,31 Z" id="Shape"></path>
                    <path d="M19.6,44 C19.6,42.6745166 20.6745166,41.6 22,41.6 L22,40 C19.790861,40 18,41.790861 18,44 L19.6,44 Z" id="Shape"></path>
                    <polygon id="Shape" points="23 40 24 40 24 41 23 41"></polygon>
                </g>
            </g>
        </g>
    </g>
</svg>