<?xml version="1.0" encoding="UTF-8"?>
<svg width="254px" height="47px" viewBox="0 0 254 47" version="1.1" xmlns="http://www.w3.org/2000/svg" xmlns:xlink="http://www.w3.org/1999/xlink">
    <!-- Generator: Sketch 49.3 (51167) - http://www.bohemiancoding.com/sketch -->
    <title>text</title>
    <desc>Created with Sketch.</desc>
    <defs>
        <path d="M1.432,11.048 L1.432,5.064 L25.94,5.064 L25.94,11.048 L16.876,11.048 L16.876,40 L10.452,40 L10.452,11.048 L1.432,11.048 Z M31,40 L31,5.064 L37.424,5.064 L37.424,40 L31,40 Z M43.144,40 L43.144,5.064 L49.612,5.064 C51.5186762,5.064 52.9779949,5.48932908 53.99,6.34 C55.0020051,7.19067092 55.7279978,8.4959912 56.168,10.256 L59.248,22.752 L60.084,26.052 L60.348,26.052 C60.7293352,24.526659 61.0079991,23.42667 61.184,22.752 L64.264,10.256 C64.7040022,8.4959912 65.4299949,7.19067092 66.442,6.34 C67.4540051,5.48932908 68.9133238,5.064 70.82,5.064 L77.288,5.064 L77.288,40 L70.864,40 L70.864,16.504 L70.952,12.368 L70.6,12.368 C70.0426639,12.368 69.6906674,12.6759969 69.544,13.292 L65.54,29.704 C65.2466652,30.9066727 64.5866718,31.84533 63.56,32.52 C62.5333282,33.19467 61.4186727,33.532 60.216,33.532 C59.0133273,33.532 57.8986718,33.19467 56.872,32.52 C55.8453282,31.84533 55.1853348,30.9066727 54.892,29.704 L50.888,13.292 C50.7413326,12.6759969 50.3893361,12.368 49.832,12.368 L49.48,12.368 L49.568,16.504 L49.568,40 L43.144,40 Z M83.008,40 L83.008,5.064 L106.724,5.064 L106.724,11.048 L89.432,11.048 L89.432,19.848 C90.224004,19.6719991 91.1333282,19.584 92.16,19.584 L103.424,19.584 L103.424,25.568 L91.5,25.568 C90.8839969,25.568 90.3853352,25.7733313 90.004,26.184 L89.432,26.8 L89.432,34.016 L106.724,34.016 L106.724,40 L83.008,40 Z M123.884,40 L123.884,5.064 L130.308,5.064 L130.308,40 L123.884,40 Z M133.608,34.412 L137.744,30.056 C139.269341,31.6693414 140.757993,32.8353297 142.21,33.554 C143.662007,34.2726703 145.443989,34.632 147.556,34.632 C149.49201,34.632 151.105327,34.2433372 152.396,33.466 C153.686673,32.6886628 154.332,31.4640084 154.332,29.792 C154.332,28.8533286 154.068003,28.0540033 153.54,27.394 C153.011997,26.7339967 152.315338,26.235335 151.45,25.898 C150.584662,25.560665 149.594672,25.2380015 148.48,24.93 C147.365328,24.6219985 146.228672,24.3580011 145.07,24.138 C143.911328,23.9179989 142.774672,23.5733357 141.66,23.104 C140.545328,22.6346643 139.555338,22.0846698 138.69,21.454 C137.824662,20.8233302 137.128003,19.9360057 136.6,18.792 C136.071997,17.6479943 135.808,16.2986744 135.808,14.744 C135.808,11.8986524 136.907989,9.50800968 139.108,7.572 C141.308011,5.63599032 144.373314,4.668 148.304,4.668 C152.821356,4.668 156.737317,6.07598592 160.052,8.892 L156.356,13.6 C153.950655,11.5759899 151.296015,10.564 148.392,10.564 C146.485324,10.564 144.989339,10.9379963 143.904,11.686 C142.818661,12.4340037 142.276,13.4386604 142.276,14.7 C142.276,15.492004 142.539997,16.1593306 143.068,16.702 C143.596003,17.2446694 144.292662,17.6553319 145.158,17.934 C146.023338,18.2126681 147.013328,18.4986652 148.128,18.792 C149.242672,19.0853348 150.371994,19.3493322 151.516,19.584 C152.660006,19.8186678 153.789328,20.1999974 154.904,20.728 C156.018672,21.2560026 157.008662,21.8646632 157.874,22.554 C158.739338,23.2433368 159.435997,24.2113271 159.964,25.458 C160.492003,26.7046729 160.756,28.1493251 160.756,29.792 C160.756,32.1680119 160.096007,34.1919916 158.776,35.864 C157.455993,37.5360084 155.813343,38.738663 153.848,39.472 C151.882657,40.205337 149.741345,40.572 147.424,40.572 C144.578652,40.572 142.056011,40.0733383 139.856,39.076 C137.655989,38.0786617 135.573343,36.5240106 133.608,34.412 Z M177.476,30.144 L177.476,5.064 L183.9,5.064 L183.9,30.144 C183.9,31.2880057 184.493994,32.3366619 185.682,33.29 C186.870006,34.2433381 188.519989,34.72 190.632,34.72 C192.744011,34.72 194.379328,34.2506714 195.538,33.312 C196.696672,32.3733286 197.276,31.3173392 197.276,30.144 L197.276,5.064 L203.7,5.064 L203.7,30.1 C203.7,31.5960075 203.414003,32.9673271 202.842,34.214 C202.269997,35.4606729 201.536671,36.4726628 200.642,37.25 C199.747329,38.0273372 198.713339,38.6873306 197.54,39.23 C196.366661,39.7726694 195.208006,40.1539989 194.064,40.374 C192.919994,40.5940011 191.776006,40.704 190.632,40.704 C189.487994,40.704 188.329339,40.5866678 187.156,40.352 C185.982661,40.1173322 184.809339,39.7360026 183.636,39.208 C182.462661,38.6799974 181.428671,38.020004 180.534,37.228 C179.639329,36.435996 178.906003,35.4313394 178.334,34.214 C177.761997,32.9966606 177.476,31.6400075 177.476,30.144 Z M209.42,40 L209.42,5.064 L224.468,5.064 C227.636016,5.064 230.363989,6.11998944 232.652,8.232 C234.940011,10.3440106 236.084,12.9546511 236.084,16.064 C236.084,19.1440154 234.932678,21.6959899 232.63,23.72 C230.327322,25.7440101 227.592016,26.756 224.424,26.756 L217.912,26.756 C217.295997,26.756 216.797335,26.9613313 216.416,27.372 L215.844,27.988 L215.844,40 L209.42,40 Z M215.844,21.036 C216.636004,20.8599991 217.545328,20.772 218.572,20.772 L224.424,20.772 C225.920007,20.772 227.166662,20.2880048 228.164,19.32 C229.161338,18.3519952 229.66,17.2666727 229.66,16.064 C229.66,14.8319938 229.161338,13.6880053 228.164,12.632 C227.166662,11.5759947 225.934674,11.048 224.468,11.048 L215.844,11.048 L215.844,21.036 Z M240.484,40 L240.484,32.52 L246.908,32.52 L246.908,40 L240.484,40 Z M240.484,27.944 L240.484,5.064 L246.908,5.064 L246.908,27.944 L240.484,27.944 Z" id="path-1"></path>
        <filter x="-2.9%" y="-13.9%" width="105.7%" height="138.9%" filterUnits="objectBoundingBox" id="filter-2">
            <feOffset dx="0" dy="2" in="SourceAlpha" result="shadowOffsetOuter1"></feOffset>
            <feGaussianBlur stdDeviation="2" in="shadowOffsetOuter1" result="shadowBlurOuter1"></feGaussianBlur>
            <feColorMatrix values="0 0 0 0 0   0 0 0 0 0   0 0 0 0 0  0 0 0 0.25 0" type="matrix" in="shadowBlurOuter1"></feColorMatrix>
        </filter>
    </defs>
    <g id="Assets" stroke="none" stroke-width="1" fill="none" fill-rule="evenodd">
        <g id="Artboard-10" transform="translate(-501.000000, -354.000000)">
            <g id="Group" transform="translate(504.000000, 354.000000)">
                <g id="TIME-IS-UP!">
                    <use fill="black" fill-opacity="1" filter="url(#filter-2)" xlink:href="#path-1"></use>
                    <use fill="#449694" fill-rule="evenodd" xlink:href="#path-1"></use>
                </g>
                <path d="M0.432,7.048 L0.432,1.064 L24.94,1.064 L24.94,7.048 L15.876,7.048 L15.876,36 L9.452,36 L9.452,7.048 L0.432,7.048 Z M30,36 L30,1.064 L36.424,1.064 L36.424,36 L30,36 Z M42.144,36 L42.144,1.064 L48.612,1.064 C50.5186762,1.064 51.9779949,1.48932908 52.99,2.34 C54.0020051,3.19067092 54.7279978,4.4959912 55.168,6.256 L58.248,18.752 L59.084,22.052 L59.348,22.052 C59.7293352,20.526659 60.0079991,19.42667 60.184,18.752 L63.264,6.256 C63.7040022,4.4959912 64.4299949,3.19067092 65.442,2.34 C66.4540051,1.48932908 67.9133238,1.064 69.82,1.064 L76.288,1.064 L76.288,36 L69.864,36 L69.864,12.504 L69.952,8.368 L69.6,8.368 C69.0426639,8.368 68.6906674,8.67599692 68.544,9.292 L64.54,25.704 C64.2466652,26.9066727 63.5866718,27.84533 62.56,28.52 C61.5333282,29.19467 60.4186727,29.532 59.216,29.532 C58.0133273,29.532 56.8986718,29.19467 55.872,28.52 C54.8453282,27.84533 54.1853348,26.9066727 53.892,25.704 L49.888,9.292 C49.7413326,8.67599692 49.3893361,8.368 48.832,8.368 L48.48,8.368 L48.568,12.504 L48.568,36 L42.144,36 Z M82.008,36 L82.008,1.064 L105.724,1.064 L105.724,7.048 L88.432,7.048 L88.432,15.848 C89.224004,15.6719991 90.1333282,15.584 91.16,15.584 L102.424,15.584 L102.424,21.568 L90.5,21.568 C89.8839969,21.568 89.3853352,21.7733313 89.004,22.184 L88.432,22.8 L88.432,30.016 L105.724,30.016 L105.724,36 L82.008,36 Z M122.884,36 L122.884,1.064 L129.308,1.064 L129.308,36 L122.884,36 Z M132.608,30.412 L136.744,26.056 C138.269341,27.6693414 139.757993,28.8353297 141.21,29.554 C142.662007,30.2726703 144.443989,30.632 146.556,30.632 C148.49201,30.632 150.105327,30.2433372 151.396,29.466 C152.686673,28.6886628 153.332,27.4640084 153.332,25.792 C153.332,24.8533286 153.068003,24.0540033 152.54,23.394 C152.011997,22.7339967 151.315338,22.235335 150.45,21.898 C149.584662,21.560665 148.594672,21.2380015 147.48,20.93 C146.365328,20.6219985 145.228672,20.3580011 144.07,20.138 C142.911328,19.9179989 141.774672,19.5733357 140.66,19.104 C139.545328,18.6346643 138.555338,18.0846698 137.69,17.454 C136.824662,16.8233302 136.128003,15.9360057 135.6,14.792 C135.071997,13.6479943 134.808,12.2986744 134.808,10.744 C134.808,7.89865244 135.907989,5.50800968 138.108,3.572 C140.308011,1.63599032 143.373314,0.668 147.304,0.668 C151.821356,0.668 155.737317,2.07598592 159.052,4.892 L155.356,9.6 C152.950655,7.57598988 150.296015,6.564 147.392,6.564 C145.485324,6.564 143.989339,6.93799626 142.904,7.686 C141.818661,8.43400374 141.276,9.43866036 141.276,10.7 C141.276,11.492004 141.539997,12.1593306 142.068,12.702 C142.596003,13.2446694 143.292662,13.6553319 144.158,13.934 C145.023338,14.2126681 146.013328,14.4986652 147.128,14.792 C148.242672,15.0853348 149.371994,15.3493322 150.516,15.584 C151.660006,15.8186678 152.789328,16.1999974 153.904,16.728 C155.018672,17.2560026 156.008662,17.8646632 156.874,18.554 C157.739338,19.2433368 158.435997,20.2113271 158.964,21.458 C159.492003,22.7046729 159.756,24.1493251 159.756,25.792 C159.756,28.1680119 159.096007,30.1919916 157.776,31.864 C156.455993,33.5360084 154.813343,34.738663 152.848,35.472 C150.882657,36.205337 148.741345,36.572 146.424,36.572 C143.578652,36.572 141.056011,36.0733383 138.856,35.076 C136.655989,34.0786617 134.573343,32.5240106 132.608,30.412 Z M176.476,26.144 L176.476,1.064 L182.9,1.064 L182.9,26.144 C182.9,27.2880057 183.493994,28.3366619 184.682,29.29 C185.870006,30.2433381 187.519989,30.72 189.632,30.72 C191.744011,30.72 193.379328,30.2506714 194.538,29.312 C195.696672,28.3733286 196.276,27.3173392 196.276,26.144 L196.276,1.064 L202.7,1.064 L202.7,26.1 C202.7,27.5960075 202.414003,28.9673271 201.842,30.214 C201.269997,31.4606729 200.536671,32.4726628 199.642,33.25 C198.747329,34.0273372 197.713339,34.6873306 196.54,35.23 C195.366661,35.7726694 194.208006,36.1539989 193.064,36.374 C191.919994,36.5940011 190.776006,36.704 189.632,36.704 C188.487994,36.704 187.329339,36.5866678 186.156,36.352 C184.982661,36.1173322 183.809339,35.7360026 182.636,35.208 C181.462661,34.6799974 180.428671,34.020004 179.534,33.228 C178.639329,32.435996 177.906003,31.4313394 177.334,30.214 C176.761997,28.9966606 176.476,27.6400075 176.476,26.144 Z M208.42,36 L208.42,1.064 L223.468,1.064 C226.636016,1.064 229.363989,2.11998944 231.652,4.232 C233.940011,6.34401056 235.084,8.95465112 235.084,12.064 C235.084,15.1440154 233.932678,17.6959899 231.63,19.72 C229.327322,21.7440101 226.592016,22.756 223.424,22.756 L216.912,22.756 C216.295997,22.756 215.797335,22.9613313 215.416,23.372 L214.844,23.988 L214.844,36 L208.42,36 Z M214.844,17.036 C215.636004,16.8599991 216.545328,16.772 217.572,16.772 L223.424,16.772 C224.920007,16.772 226.166662,16.2880048 227.164,15.32 C228.161338,14.3519952 228.66,13.2666727 228.66,12.064 C228.66,10.8319938 228.161338,9.68800528 227.164,8.632 C226.166662,7.57599472 224.934674,7.048 223.468,7.048 L214.844,7.048 L214.844,17.036 Z M239.484,36 L239.484,28.52 L245.908,28.52 L245.908,36 L239.484,36 Z M239.484,23.944 L239.484,1.064 L245.908,1.064 L245.908,23.944 L239.484,23.944 Z" id="TIME-IS-UP!" fill="#BDF0E6"></path>
            </g>
        </g>
    </g>
</svg>