<svg viewBox="0 0 361 549" xmlns="http://www.w3.org/2000/svg" xmlns:xlink="http://www.w3.org/1999/xlink">
  <defs>
    <linearGradient x1="0%" y1="0%" y2="100%" id="linearGradient-1">
      <stop stop-color="#45AFD7" offset="0%"/>
      <stop stop-color="#BEF8E2" offset="52.983%"/>
      <stop stop-color="#D98480" offset="100%"/>
    </linearGradient>
    <path d="M172.5 533c45.23 0 100.854-11.206 131.618-55.207C338.154 429.113 345 343.807 345 266.5c0-74.419-9.045-162.943-40.882-211.293C272.99 7.933 219.6 0 172.5 0 127.194 0 73.657 11.075 42.876 55.207 8.93 103.877 0 189.31 0 266.5c0 76.24 9.658 162.717 42.876 211.293C73.786 522.993 126.58 533 172.5 533z" id="path-2"/>
    <filter x="-4.1%" y="-1.9%" width="108.1%" height="105.3%" filterUnits="objectBoundingBox" id="filter-3">
      <feOffset dy="4" in="SourceAlpha" result="shadowOffsetOuter1"/>
      <feGaussianBlur stdDeviation="4" in="shadowOffsetOuter1" result="shadowBlurOuter1"/>
      <feComposite in="shadowBlurOuter1" in2="SourceAlpha" operator="out" result="shadowBlurOuter1"/>
      <feColorMatrix values="0 0 0 0 0.0470588235 0 0 0 0 0 0 0 0 0 0.2 0 0 0 0.1 0" in="shadowBlurOuter1"/>
    </filter>
  </defs>
  <g id="Assets" fill="none" fill-rule="evenodd">
    <g transform="translate(8 4)" id="avatar_5">
      <g id="bg">
        <use fill="#000" filter="url(#filter-3)" xlink:href="#path-2"/>
        <use fill-opacity=".66" fill="url(#linearGradient-1)" xlink:href="#path-2"/>
      </g>
      <g id="charachter" transform="matrix(-1 0 0 1 302 20)">
        <g id="body_change_colour" transform="translate(16 14)" fill="#30A1D2">
          <path d="M159.937 171.978c-3.668-6.017-7.047-12.368-10.14-19.053-2.346-5.073 10.175-18.2 12.168-52.145.422-7.192-2.958-21.565-10.14-43.12.049-9.287.049-16.14 0-20.557-.064-5.859 1.05-13.244 0-17.549-2.236-9.173-8.15-15.69-17.744-19.554-1.98.784-3.164 1.452-3.548 2.006-1.024 1.471-1.215 4.421-1.014 5.515.189 1.028 1.125 2.926 3.041 5.014.848.923 2.876 2.093 6.084 3.51 3.372 6.12 4.893 11.468 4.563 16.044-.33 4.576-2.697 10.927-7.098 19.053-10.142-.623-17.746-2.795-22.814-6.518-5.067-3.723-9.291-10.24-12.674-19.554-2.728-7.917-5.939-13.266-9.632-16.045-3.694-2.78-8.257-3.28-13.689-1.504-2.618 2.01-3.8 3.514-3.548 4.512.14.56.67 3.01 2.028 4.513.713.789 2.234 1.792 4.562 3.008 7.939 4.74 12.84 8.918 14.702 12.535 1.864 3.617 1.526 8.297-1.013 14.04-2.044 4.727-4.41 8.571-7.098 11.531-6.886 7.581-18.828 16.98-21.8 22.563-4.712 8.854-5.219 16.542-1.52 23.064-5.236 3.896-7.771 6.236-7.605 7.02.078.369-.286 4.343 1.52 6.518.758.912 3.943 1.436 6.084 3.008 1.117.82 2.638 2.491 4.563 5.014.706 9.596 1.889 15.947 3.549 19.053 1.66 3.105 6.73 8.955 15.209 17.548V180l73.004-8.022z" id="head"/>
          <ellipse id="hand" cx="211.45" cy="353.188" rx="16.121" ry="18.813"/>
          <ellipse id="hand" cx="16.793" cy="333.188" rx="16.121" ry="18.813"/>
        </g>
        <g id="right_arm" transform="matrix(-1 0 0 1 61 149)">
          <path d="M24.4 56h16.557v58.497c-3.68 1.835-6.439 2.753-8.278 2.753-1.84 0-4.6-.918-8.279-2.753V56z" id="Rectangle-2" fill="#F9C265"/>
          <g id="Group-3">
            <ellipse id="Oval-4" fill="#FFEA80" cx="28.706" cy="32.426" rx="28.706" ry="28.824"/>
            <path d="M60.551 31.526C60.551 15.606 49.045.45 33.191.45S0 2.997 0 18.915c0 15.92 60.551 28.53 60.551 12.61z" id="Oval-4" fill="#FF7D68"/>
          </g>
          <path d="M24.5 112c-5.81 22.983-9.512 40.05-11.105 51.2-1.593 11.15-1.593 21.57 0 31.263 8.283 4.182 14.127 6.145 17.532 5.89 3.404-.255 9.647-3.125 18.727-8.609 1.185-18.418 1.185-32.161 0-41.231-1.186-9.07-4.07-21.907-8.654-38.513H24.5z" id="Path-18" fill="#FFEA80"/>
        </g>
        <g id="head-whole" transform="translate(92 74)">
          <path d="M45.804 64.215c-13.776 6.838-24.219 9.48-36.285-.849" id="mouth" stroke="#CC5C61" stroke-width="2"/>
          <g id="eyes">
            <g id="left_eye" transform="translate(26 22)">
              <circle id="Oval-11" fill="#FFF" cx="11.5" cy="11.5" r="11.5"/>
              <ellipse id="eye" fill="#27221B" cx="11.5" cy="11.912" rx="4.5" ry="4.912"/>
            </g>
            <g id="right_eye" transform="translate(0 18)">
              <circle id="Oval-11" fill="#FFF" cx="8.5" cy="8.5" r="8.5"/>
              <ellipse id="eye" fill="#27221B" cx="8.5" cy="8.82" rx="3.5" ry="3.82"/>
            </g>
            <g id="top-eye" transform="translate(20)">
              <circle id="Oval-11" fill="#FFF" cx="6.5" cy="6.5" r="6.5"/>
              <ellipse id="eye" fill="#27221B" cx="6.207" cy="6.5" rx="3.207" ry="3.5"/>
            </g>
          </g>
        </g>
        <path d="M208.126 180.389c4.238 38.846 5.841 67.172 4.808 84.978-1.033 17.806-5.69 67.93-13.971 150.375v20.587c10.366 5.577 17.507 10.249 21.42 14.017 3.913 3.769 7.119 10.485 9.617 20.15L186.723 474l-5.473-18.598-4.582-15.568c-18.716-27.562-36.348-43.77-52.894-48.622-16.547-4.852-29.073 7.558-37.58 37.233v42.05L18 473.125c1.865-6.668 3.759-11.048 5.683-13.141s5.13-3.261 9.617-3.504c8.725 3.398 14.991 4.566 18.797 3.504 3.807-1.062 9.052-5.442 15.738-13.14-16.023-78.047-24.74-128.828-26.153-152.343-1.034-17.218.533-50.583 4.7-100.094L55.999 169c38.67 7.85 67.908 12.517 87.712 14 19.803 1.483 41.275.612 64.415-2.611z" id="body-vest" fill="#FF7D68"/>
        <g id="shoes" transform="translate(18 406)" fill="#A14F40">
          <path d="M180.156 20v10.33c10.302 5.576 17.398 10.248 21.287 14.016 3.889 3.769 7.074 10.485 9.557 20.15L167.992 68l-5.439-18.598L158 33.834 180.156 20z" id="left_shoes"/>
          <path d="M68 22.403v41.974L0 67c1.86-6.655 3.748-11.028 5.667-13.117 1.918-2.089 5.115-3.255 9.59-3.497 8.7 3.392 14.948 4.558 18.743 3.497 3.795-1.06 9.026-5.432 15.692-13.116L41.568 0 68 22.403z" id="right_shoe"/>
        </g>
        <circle id="air_bubble" fill="#DCEBF0" opacity=".482" cx="135" cy="105" r="105"/>
        <g id="left_arm" transform="translate(197 169)">
          <path d="M24.4 56h16.557v58.497c-3.68 1.835-6.439 2.753-8.278 2.753-1.84 0-4.6-.918-8.279-2.753V56z" id="Rectangle-2" fill="#F9C265"/>
          <g id="shoulder">
            <ellipse id="Oval-4" fill="#FFEA80" cx="28.706" cy="32.426" rx="28.706" ry="28.824"/>
            <path d="M60.551 31.526C60.551 15.606 49.045.45 33.191.45S0 2.997 0 18.915c0 15.92 60.551 28.53 60.551 12.61z" id="Oval-4" fill="#FF7D68"/>
          </g>
          <path d="M25 112c-5.477 22.983-9.012 40.05-10.605 51.2-1.593 11.15-1.593 21.57 0 31.263 8.283 4.182 14.127 6.145 17.532 5.89 3.404-.255 9.647-3.125 18.727-8.609 1.185-18.418 1.185-32.161 0-41.231-1.186-9.07-4.57-21.907-10.154-38.513H25z" id="Path-18" fill="#FFEA80"/>
        </g>
      </g>
      <g id="hot_spots" transform="translate(49 3)" fill="#5594CF" fill-opacity=".4" opacity="0">
        <circle id="feet-hotspot" cx="224" cy="470" r="17"/>
        <circle id="legs-hotspot" cx="198" cy="408" r="17"/>
        <circle id="hands-hotspot" cx="249" cy="361" r="17"/>
        <circle id="belly-hotspot" cx="133" cy="327" r="17"/>
        <circle id="arms-hotspot" cx="241" cy="252" r="17"/>
        <circle id="chest-hotspot" cx="167" cy="252" r="17"/>
        <circle id="shoulders-hotspot" cx="17" cy="183" r="17"/>
        <circle id="face-hotspot" cx="207" cy="78" r="17"/>
        <circle id="head-hotspot" cx="116" cy="17" r="17"/>
      </g>
    </g>
  </g>
</svg>
