<svg viewBox="0 0 361 549" xmlns="http://www.w3.org/2000/svg" xmlns:xlink="http://www.w3.org/1999/xlink">
  <defs>
    <linearGradient x1="0%" y1="0%" y2="100%" id="linearGradient-1">
      <stop stop-color="#264652" offset="0%"/>
      <stop stop-color="#47B1C9" offset="52.983%"/>
      <stop stop-color="#FF8497" offset="100%"/>
    </linearGradient>
    <path d="M172.5 533c45.23 0 100.854-11.206 131.618-55.207C338.154 429.113 345 343.807 345 266.5c0-74.419-9.045-162.943-40.882-211.293C272.99 7.933 219.6 0 172.5 0 127.194 0 73.657 11.075 42.876 55.207 8.93 103.877 0 189.31 0 266.5c0 76.24 9.658 162.717 42.876 211.293C73.786 522.993 126.58 533 172.5 533z" id="path-2"/>
    <filter x="-4.1%" y="-1.9%" width="108.1%" height="105.3%" filterUnits="objectBoundingBox" id="filter-3">
      <feOffset dy="4" in="SourceAlpha" result="shadowOffsetOuter1"/>
      <feGaussianBlur stdDeviation="4" in="shadowOffsetOuter1" result="shadowBlurOuter1"/>
      <feComposite in="shadowBlurOuter1" in2="SourceAlpha" operator="out" result="shadowBlurOuter1"/>
      <feColorMatrix values="0 0 0 0 0.0470588235 0 0 0 0 0 0 0 0 0 0.2 0 0 0 0.1 0" in="shadowBlurOuter1"/>
    </filter>
  </defs>
  <g id="Assets" fill="none" fill-rule="evenodd">
    <g id="avatar_3" transform="translate(-55 -37)">
      <g transform="translate(63 41)">
        <g id="bg">
          <use fill="#000" filter="url(#filter-3)" xlink:href="#path-2"/>
          <use fill-opacity=".66" fill="url(#linearGradient-1)" xlink:href="#path-2"/>
        </g>
        <g id="character" transform="translate(100 21)">
          <g id="bottom" transform="translate(19 213)">
            <g id="pants" transform="matrix(-1 0 0 1 126.776 .141)">
              <path d="M79.002 254.557c-3.108 4.374-4.906 7.464-5.396 9.269-.49 1.805.01 3.499 1.499 5.083l47.368 2.691 2.998-2.691c-10.4-2.493-17.895-4.836-22.485-7.027-4.59-2.19-8.787-5.43-12.592-9.717l-11.392 2.392z" id="Path-24" fill="#111215"/>
              <path d="M22.917 253.976l1.807 15.383c-3.998 4.333-7.832 6.5-11.5 6.5-3.064 0-6.927-1.77-9.5-3.5-2.05-1.378-3.308-2.662-2.5-3.5 1.821-1.892 3.38-1.29 6-4.259 1.466-1.663 3.995-5.204 7.588-10.624h8.105z" id="Path-25" fill="#000"/>
              <path d="M97.57 0c4.175 13.892 8.04 26.08 11.595 36.565 3.555 10.484 5.915 23.825 7.082 40.023-.29 17.208-1.427 31.405-3.414 42.592-1.987 11.187-4.58 22.466-7.78 33.838.517 5.22.517 8.813 0 10.78-.518 1.967-2.014 4.063-4.49 6.288-2.865 13.913-4.66 24.194-5.386 30.843-.726 6.65-2.022 24.717-3.89 54.2h-12.57c-.555-8.148-1.153-14.337-1.795-18.565-.642-4.229-3.136-18.403-7.482-42.522-.045-8.644.653-15.332 2.095-20.063 1.442-4.731 5.033-12.118 10.773-22.159-3.135-20-4.931-36.073-5.386-48.22-.455-12.147-.455-26.816 0-44.01h-5.175C61.444 80.847 54.56 96.818 51.098 107.502c-3.463 10.684-6.156 24.259-8.08 40.725-.788 5.7-1.586 9.694-2.394 11.978-.808 2.284-2.304 4.779-4.49 7.486-3.564 21.351-5.958 36.923-7.181 46.714-1.223 9.79-2.42 22.966-3.591 39.527l-13.168 1.197c-.876-9.18-1.674-16.067-2.394-20.661-3.131-19.989-5.781-37.638-4.788-50.308 1.335-17.038 6.523-29.016 15.561-35.933-3.846-41.625-4.715-73.566-2.606-95.824 2.11-22.257 7.368-36.63 15.774-43.12L97.57 0z" id="Path-23" fill="#3F5F85"/>
              <path d="M97.558 0c4.174 13.892 8.039 26.08 11.594 36.565 2.16 6.371 5.25 16.689 6.348 30.935.472 6.13.472 16.964 0 32.5L15 102.5c1.333-30.936 2-46.602 2-47 0-22.359 3.91-37.764 11.728-46.217L97.558 0z" id="Path-23" fill="#8D4763"/>
            </g>
          </g>
          <g id="body_change_colour" transform="translate(10 237)" fill="#EDB597">
            <path d="M127.066 1.517c.626 15.17.11 24.819-1.55 28.948-1.129 2.81-3.201 5.628-6.217 8.453a6.416 6.416 0 0 1-10.318-2.237c-.352-.852-.897-4.51-1.635-10.97l-.51 5.51a2.59 2.59 0 0 1-2.58 2.352 2.262 2.262 0 0 1-2.26-2.36l1.265-29.277 23.805-.419z" id="hand" transform="rotate(6 114.659 21.085)"/>
            <path d="M26.813 2.056c.911 2.136 1.347 3.759 1.306 4.868-.413 11.438-1.344 18.96-2.793 22.564-1.129 2.81-3.201 5.628-6.217 8.453A6.416 6.416 0 0 1 8.79 35.704c-.352-.852-.897-4.51-1.635-10.97l-.51 5.51a2.59 2.59 0 0 1-2.58 2.352 2.173 2.173 0 0 1-2.165-2.354L4.28 1.684l22.532.372z" id="hand" transform="scale(-1 1) rotate(4 0 -409.08)"/>
          </g>
          <g id="top" transform="translate(8 87)">
            <path d="M103.5 13c.54.454 1.279-.156 1.876 1.919 4.758 16.527 11.029 80.391 13.889 126.644.7 11.313-7.905 21.052-19.219 21.751-.658.04-1.317.05-1.976.027l-63.388-2.195c-8.831-.305-15.742-7.712-15.437-16.544a16 16 0 0 1 .12-1.472c5.49-43.005 8.184-65.683 8.081-68.032-.161-3.661-4.16-55.524 3.496-61.601C43.862 3.243 99.06 9.264 103.5 13z" id="shirt" fill="#FBE7E9"/>
            <g id="sleeve" transform="translate(0 10.647)" fill="#8295B5">
              <path d="M35.138.38C24.563 4.866 18.3 10.01 16.35 15.81 14.399 21.612 9.108 44.209.477 83.6c-.636 7.675-.636 13.28 0 16.818.636 3.538 1.507 14.576 2.613 33.115H32.7L35.137.38z" id="Path-16"/>
              <path d="M.477 100.418c.636 3.538 1.611 19.17 2.924 46.899 7.058-2.582 12.241-3.872 15.55-3.872 3.308 0 4.28-5.808 2.915-17.423C7.19 106.636.061 98.102.477 100.418z" id="Path-16"/>
            </g>
            <g id="gilet_left" transform="translate(16.521 .968)" fill="#445B67">
              <path d="M29.311 170.74c-1.012 1.86-3.412 3.221-7.198 4.08L.96 163.052l.506-4.584c-.326-.474 3.278-31.193 4.684-42.444l4.723-42.805c-.484-7.872-3.721-54.92 3.548-60.689 4.406-3.497 13.749-5.327 24.325-6.071 2.09-.147 2.095 10.363 3.47 12.684 5.061 8.533 2.358 55.73-8.108 141.589-2.284 4.993-3.883 8.329-4.797 10.008z" id="Combined-Shape"/>
              <path d="M41.308 0c-1.31 3.028-1.768 5.409-1.37 7.142.396 1.734 2.567 6.836 6.512 15.306 1.348 34.992 1.348 60.841 0 77.547-1.348 16.705-5.576 43.234-12.683 79.587l-11.654-4.761c3.786-.86 6.186-2.22 7.198-4.082 1.013-1.861 2.498-7.643 4.456-17.346l9.94-126.184c-4.717-6.244-7.231-11.119-7.54-14.625-.31-3.505 1.404-7.7 5.141-12.584z" id="Path-31"/>
            </g>
            <g id="gilet_right" transform="matrix(-1 0 0 1 137.417 .58)">
              <g id="sleeve" transform="translate(0 9.68)" fill="#8295B5">
                <path d="M35.417.74C24.657 4.986 18.3 10.01 16.35 15.81 14.399 21.612 9.108 44.209.477 83.6c-.636 7.675-.636 13.28 0 16.818.636 3.538 1.507 14.576 2.613 33.115H32.7L35.416.74z" id="Path-16"/>
                <path d="M.477 100.418c.636 3.538 1.611 19.17 2.924 46.899 7.058-2.582 12.241-3.872 15.55-3.872 3.308 0 4.28-5.808 2.915-17.423C7.19 106.636.061 98.102.477 100.418z" id="Path-16"/>
              </g>
              <g id="gilet" transform="translate(17.493)" fill="#445B67">
                <path d="M28.352 171.11c-1.012 1.862-3.412 3.223-7.198 4.083L0 163.419l.506-4.586c-.326-.473 3.277-31.202 4.684-42.456l4.723-42.819c-.483-7.875-3.721-54.936 3.548-60.708 4.407-3.498 13.75-5.328 24.326-6.073 2.091-.147 2.095 10.366 3.471 12.688C46.32 28 43.616 75.212 33.15 161.098c-2.284 4.995-3.883 8.332-4.797 10.012z" id="Combined-Shape"/>
                <path d="M40.515 0c-1.307 3.036-1.763 5.423-1.367 7.16.396 1.738 2.56 6.853 6.492 15.344 1.344 35.08 1.344 60.994 0 77.741s-5.558 43.343-12.642 79.787L21.38 175.26c3.775-.862 6.166-2.226 7.176-4.092 1.009-1.866 2.49-7.663 4.442-17.39l9.908-126.5c-4.703-6.26-7.209-11.147-7.517-14.661-.308-3.514 1.4-7.72 5.126-12.616z" id="Path-31"/>
              </g>
            </g>
          </g>
          <g id="scarf" transform="rotate(-16 336.557 46.346)" fill="#8D4763" stroke="#7FB7B5">
            <path d="M49.168 9.621C54.518 3.576 59.636.368 64.523 0c1.485 4.29 2.297 7.263 2.438 8.919.165 1.943-1.735 3.76-1.437 5.015.88 3.704 2.882 8.902 6.008 15.593-4.668 7.44-7.672 12.97-9.012 16.589-1.34 3.62-13.69 39.561-37.05 107.825-6.617.823-11.29.823-14.02 0-2.73-.824-3.62-2.262-2.67-4.313l30.375-82.942-32.378 85.596c-1.349 1.61-2.308 2.558-2.878 2.84-.569.284-1.612.332-3.13.146-1.025-12.605-1.025-22.558 0-29.86 1.025-7.3 3.695-16.37 8.01-27.204 4.254-14.014 7.926-24.41 11.016-31.187 3.09-6.777 12.881-25.909 29.373-57.396z" id="Path-6"/>
            <path d="M77.643 27.333c3.473-7.82 5.768-17.21 8.5-15.502 2.456 1.536 3.328 10.334 1.627 18.036a2.59 2.59 0 0 1 1.204.38c3.913 2.448.195 15.47-8.305 29.084-3.882 6.219-8.037 16.543-11.836 20.197-1.589 1.528-3.6 2.415-5.632 2.865-5.579 10.888-9.638 19.419-12.177 25.59-2.745 6.673-4.206 17.79-4.382 33.353-.009 1.65-.12 2.76-.331 3.328-.212.568-.763 1.233-1.654 1.996-1.492-1.42-2.815-2.086-3.97-1.996-1.155.089-2.699.976-4.632 2.662l5.335-30.835-5.335 28.838c-1.47.887-2.573 1.331-3.308 1.331-.735 0-1.948-.444-3.64-1.33l15.631-67.96c1.83-7.61 5.249-14.819 10.256-21.63 4.732-6.437 12.282-15.906 22.649-28.407z" id="Combined-Shape"/>
          </g>
          <g id="body_change_colour" transform="translate(41 17)" fill="#EDB597">
            <path d="M4.123 27.475c-.55-3.07-1.104-6.057-.257-8.483C8.206 6.555 21.778.045 34.037.045c10.058 0 22.084-1.101 27.343 7.579 2.316 3.823 2.26 11.61 2.057 18.494C64.945 27.135 66 29.48 66 32.21c0 2.976-1.254 5.494-2.982 6.333-.617 6.483-2.4 12.487-5.504 17.937-3.265 5.73-7.821 9.904-12.989 12.288.228.67.34 1.39.314 2.139l-.395 11.295a6 6 0 0 1-6.206 5.787l-8.043-.28a6 6 0 0 1-5.787-6.206l.394-11.296c.013-.365.058-.72.132-1.065-9.898-4.344-17.468-15.496-19.552-28.648a2.842 2.842 0 0 1-1.14.242C1.9 40.736 0 37.766 0 34.104c0-3.6 1.835-6.53 4.123-6.629z" id="head"/>
          </g>
          <g id="scarf_part_2" transform="translate(55 82)">
            <path d="M29.158 20.514c5.01-8.017 5.774-14.503 2.431-16.592-2.16-1.35-.956 4.448-3.388 10.74-1.33 3.442-7.983 5.72-9.754 8.554-.04.063-3.762 17-1.997 18.796 2.686 2.734 9.685-16.66 12.708-21.498z" id="Oval-10" fill="#8D4763"/>
            <path d="M18.457 22.477v.724c-2.473 11.345-3.12 17.619-1.943 18.822" id="Oval-10" stroke="#7FB7B5"/>
            <path d="M5.051.39C6.52 6.952 8.138 11.513 9.91 14.074c1.77 2.56 4.62 5.362 8.548 8.404-.934.586-1.581.912-1.943.978-.361.065-5.801.847-16.32 2.345L5.051.39z" id="Path-11" fill="#8D4763"/>
          </g>
          <g id="face" transform="translate(66 46)">
            <path d="M16.971 4c2.42 12.174 6.975 16.44-3.971 15.965" id="Path-9" stroke="#55383C"/>
            <path d="M6 25c8.463 3.741 4.443 3.738 12 1.341" id="Path-8" stroke="#CC5C61"/>
            <g id="eyes" fill="#55383C">
              <circle id="eye" cx="23" cy="2" r="2"/>
              <circle id="eye" cx="2" cy="2" r="2"/>
            </g>
          </g>
          <g id="hair" transform="translate(36)">
            <path d="M65.164 29.967c.97 1.14 1.62 7.906 1.946 20.3.972-4.337 1.544-7.237 1.715-8.7.324-2.769-.276-3.881 0-5.607.096-.599.171-1.538.23-2.127.163-1.636.086-3.891-.23-6.766-2.94 1.346-4.16 2.313-3.66 2.9zM5.73 45.12c1.72.674 2.955 1.452 3.704 2.332.97 1.14 2.105 4.656 3.404 10.548.145-6.342.145-11.175 0-14.5-.145-3.325.18-6.225.973-8.7-3.292 1.089-5.561 2.084-6.808 2.985-1.17.845-2.097 2.88-2.784 6.106-.046.215 1.005 1.031 1.511 1.23z" id="Path-13" fill="#87857C"/>
            <path d="M34.72 0C25.24 2.323 18.94 4.578 15.82 6.767c-2.74 1.92-7.071 6.625-12.996 14.113a13 13 0 0 0-2.8 7.692c-.07 2.427.008 4.181.234 5.261.346 1.65 2.205 6.484 5.577 14.5-.115-2.366-.028-3.977.259-4.833.287-.856 1.26-2.467 2.918-4.833l1.945 1.933c.614.61 1.587 1.9 2.918 3.867-.573-.015-.573-1.304 0-3.867.573-2.563 1.87-4.174 3.89-4.833l1.945 4.833c.566-2.223 1.215-3.834 1.946-4.833.73-1 2.676-2.933 5.835-5.8L24.574 37.7c7.65-8.068 13.486-12.901 17.507-14.5 4.022-1.599 9.209-1.599 15.562 0-1.044 1.18-1.693 2.148-1.945 2.9-.253.752-.577 2.686-.973 5.8 1.049-1.607 1.86-2.574 2.432-2.9 2.637-1.504 4.47-1.039 5.09-.967 1.23.144 2.498 1.732 2.917 2.9.28.779 1.577 4.323 3.89 10.634l1.233-22.234c-5.214-7.954-9.428-12.787-12.644-14.5-3.216-1.712-7.755-2.679-13.616-2.9L34.72 0z" id="Path-12" fill="#FAF389"/>
          </g>
          <path id="Path-2" fill="#8D4763" d="M81.5 102l3 6.5 7-4-6-6z"/>
        </g>
      </g>
      <g id="hot_spots" transform="translate(174 41)" fill="#5594CF" fill-opacity=".4" opacity="0">
        <circle id="feet-hotspot" cx="114" cy="487" r="17"/>
        <circle id="legs-hotspot" cx="77.769" cy="351.258" r="17"/>
        <circle id="hands-hotspot" cx="136" cy="272" r="17"/>
        <circle id="belly-hotspot" cx="71" cy="231" r="17"/>
        <circle id="arms-hotspot" cx="143" cy="186" r="17"/>
        <circle id="chest-hotspot" cx="88" cy="161" r="17"/>
        <circle id="shoulders-hotspot" cx="17" cy="120" r="17"/>
        <circle id="face-hotspot" cx="119" cy="80" r="17"/>
        <circle id="head-hotspot" cx="61" cy="17" r="17"/>
      </g>
    </g>
  </g>
</svg>
