<svg viewBox="0 0 361 549" xmlns="http://www.w3.org/2000/svg" xmlns:xlink="http://www.w3.org/1999/xlink">
  <defs>
    <linearGradient x1="0%" y1="0%" y2="100%" id="linearGradient-1">
      <stop stop-color="#9155C7" offset="0%"/>
      <stop stop-color="#C965A6" offset="52.983%"/>
      <stop stop-color="#FF8077" offset="100%"/>
    </linearGradient>
    <path d="M172.5 533c45.23 0 100.854-11.206 131.618-55.207C338.154 429.113 345 343.807 345 266.5c0-74.419-9.045-162.943-40.882-211.293C272.99 7.933 219.6 0 172.5 0 127.194 0 73.657 11.075 42.876 55.207 8.93 103.877 0 189.31 0 266.5c0 76.24 9.658 162.717 42.876 211.293C73.786 522.993 126.58 533 172.5 533z" id="path-2"/>
    <filter x="-4.1%" y="-1.9%" width="108.1%" height="105.3%" filterUnits="objectBoundingBox" id="filter-3">
      <feOffset dy="4" in="SourceAlpha" result="shadowOffsetOuter1"/>
      <feGaussianBlur stdDeviation="4" in="shadowOffsetOuter1" result="shadowBlurOuter1"/>
      <feComposite in="shadowBlurOuter1" in2="SourceAlpha" operator="out" result="shadowBlurOuter1"/>
      <feColorMatrix values="0 0 0 0 0.0470588235 0 0 0 0 0 0 0 0 0 0.2 0 0 0 0.1 0" in="shadowBlurOuter1"/>
    </filter>
    <path d="M11.749 129.995a17.105 17.105 0 0 1-7.904-13.8C3.738 113.331-.377 69.304.196 38.584.476 23.553 3.024 11.756 5.494 9.43c2.842-2.676 4.775-4.8 10.746-6.344 7.881-2.038 24.692-1.904 33.796-2.038 14.8-.219 24.458.154 29.791 0 11.1-.32 21.7 4.029 26.06 8.382 9.82 9.802 7.239 19.71 7.238 21.681-.002 6.687.478 19.842 0 33.692-.877 25.449-2.967 54.128-2.954 55.586a15.023 15.023 0 0 1-5.577 11.832v10.44l-6.607 6.268c-11.313 1.524-21.042 2.224-29.188 2.098-8.145-.126-21.001-1.175-38.569-3.147l-18.066-2.67-1.136-15.22.721.004z" id="path-4"/>
  </defs>
  <g id="Assets" fill="none" fill-rule="evenodd">
    <g id="avatar_4" transform="translate(-55 -37)">
      <g transform="translate(63 41)">
        <g id="bg">
          <use fill="#000" filter="url(#filter-3)" xlink:href="#path-2"/>
          <use fill-opacity=".66" fill="url(#linearGradient-1)" xlink:href="#path-2"/>
        </g>
        <g id="character" transform="translate(19 11)">
          <g id="bottom" transform="translate(109 263)">
            <g id="shoes" transform="translate(10.652 205.825)" fill="#626262">
              <path d="M18.66 1.594c-1.034-.19-2.722-.44-4.102-.344-1.159.081-2.179-1.204-2.085 2.907.018.752-.072 3.005-.267 6.76L5.58 16.238a8 8 0 0 0-2.253 2.884l-1.935 4.193a1 1 0 0 0 .173 1.096c1.54 1.672 2.723 2.673 3.55 3.004.734.294 2.731.678 5.993 1.152a9 9 0 0 0 5.116-.759c1.415-.663 2.477-1.294 3.187-1.893.951-.8 2.007-2.161 3.167-4.083a3 3 0 0 0 .407-1.935c-.513-3.965-.97-6.959-1.37-8.982-.434-2.192-1.1-5.3-2-9.322-.119.096-.437.096-.956 0z" id="leg" transform="rotate(2 12.155 14.891)"/>
              <path d="M62.992 3.675h7.945v7.326L81.48 21.264a4.695 4.695 0 0 1-.835 7.376c-.517.314-2.968.78-7.354 1.4-5.449-1.44-8.978-2.559-10.588-3.36-1.61-.801-2.493-2.201-2.647-4.2l2.937-18.805z" id="Path-22"/>
            </g>
            <path d="M11.476.744c0 1.034-5.758 3.864-8.488 11.719-.8 2.302-.8 6.952 0 13.95C.536 53.18-.407 70.663.16 78.868c.567 8.205 5.093 42.617 13.58 103.236h19.237c.454-36.53 2.906-68.244 7.356-95.144 4.45-26.9 9.164-38.247 14.145-34.04L74.28 177.919H93.8c5.073-31.98 8.185-57.743 9.337-77.287 1.15-19.544 1.15-46.609 0-81.194-1.81-4.517-3.412-7.68-4.81-9.486-1.397-1.807-4.038-4.133-7.921-6.976C37.786 0 11.476-.744 11.476.744z" id="trousers" fill="#CFDBC3"/>
          </g>
          <g id="upper" transform="rotate(15 -281.075 402.107)">
            <g id="top" transform="rotate(-15 148.139 15.725)">
              <g id="sleeve" transform="matrix(-1 0 0 1 31.293 4.195)" fill="#163747">
                <path d="M2.566.99c8.964 4.708 14.523 10.302 16.679 16.78 1.073 3.228 4.669 18.59 5.497 29.093.555 7.052 2.215 19.662 4.979 37.83.627 7.647.627 13.232 0 16.757-.628 3.525-1.486 16.653-2.576 39.386H.005v-5.115L2.566.99z" id="Path-16"/>
              </g>
              <g id="sleeve" transform="translate(114.644 4.195)" fill="#163747">
                <path d="M0 0c10.223 4.06 16.679 8.236 19.367 12.526 7.322 11.683 7.061 29.822 7.417 34.337.556 7.052 2.215 19.662 4.979 37.83.627 7.647.627 13.232 0 16.757-.627 3.525-1.498 16.653-2.612 39.386H3.73L.086 72.516 0 4.195V0z" id="Path-16"/>
              </g>
              <g id="shirt" transform="translate(17.7)">
                <mask id="mask-5" fill="#fff">
                  <use xlink:href="#path-4"/>
                </mask>
                <use id="Mask" fill="#163747" xlink:href="#path-4"/>
                <path d="M88.323 151.224c.48-2.155.713-3.943.7-5.365-.41-45.328-1.345-75.731-1.737-90.754-.78-29.877-2.462-45.86-2.519-47.385-.102-2.73-.803-5.732-2.103-9.008l8.122.843c4.866 6.062 5.936 51.898 5.834 55.55-.23 8.218 1.863 72.69 1.779 91.621-.015 3.299-.837 4.68-.98 4.687l-9.096-.189zm-57.703-1.301l-9-.344c-.139-.008-.94-1.374-.954-4.638-.082-18.739 2.311-82.918 2.086-91.052-.1-3.615 1.08-49.32 5.822-55.318l8.045-.86c-1.446 3.484-2.218 6.576-2.318 9.278-.055 1.51-1.694 17.328-2.454 46.9-.382 14.869-1.647 45.329-2.045 90.193-.013 1.407.26 3.354.818 5.84z" id="Combined-Shape" stroke="#67B1AC" stroke-width="2" fill="#67B1AC" mask="url(#mask-5)"/>
              </g>
            </g>
            <g id="body_change_colour" transform="translate(44.218 141.464)" fill="#EFDD93">
              <path d="M29.857 31.369c-.155 12.06-1.045 20.11-2.67 24.149-1.105 2.75-3.136 5.508-6.091 8.273A6.284 6.284 0 0 1 10.993 61.6c-.344-.835-.878-4.412-1.601-10.733l-.499 5.388a2.537 2.537 0 0 1-2.526 2.304 2.125 2.125 0 0 1-2.117-2.305l2.117-24.885h23.49z" id="hand" transform="scale(-1 1) rotate(16 0 -72.89)"/>
              <path d="M136.34 2.653c-.155 12.06-1.045 20.11-2.67 24.149-1.105 2.75-3.136 5.508-6.092 8.273a6.284 6.284 0 0 1-10.1-2.191c-.345-.835-.879-4.412-1.602-10.733l-.499 5.388a2.537 2.537 0 0 1-2.526 2.304 2.125 2.125 0 0 1-2.118-2.305l2.118-24.885h23.489z" id="hand" transform="rotate(-14 123.533 19.712)"/>
              <path d="M95.684 193.763c-.202 11.593-.202 20.296 0 26.107 0 .521.026.15-.752.006-1.033-.19-2.721-.44-4.102-.344-1.158.08-2.088.372-2.352 1.456-.21-1.655-1.591-10.73-4.142-27.225h11.348z" id="leg" transform="rotate(-15 90.01 207.375)"/>
              <path d="M137.255 175.367l-.885 32.24h7.812c1.981-9.231 3.376-16.29 4.186-21.179.417-2.518.892-6.205 1.426-11.061h-12.54z" id="leg" transform="rotate(-15 143.082 191.486)"/>
            </g>
          </g>
          <g id="face+hair" transform="translate(148 68)">
            <g id="face" transform="translate(.36 .012)">
              <g id="eyes" fill="#4C2F1C">
                <ellipse id="eye" cx="1.958" cy="3.668" rx="1.958" ry="3.668"/>
                <ellipse id="eye" cx="24.947" cy="3.668" rx="1.958" ry="3.668"/>
              </g>
              <path d="M10.11 3.47c1.186 6.778-.347 8.266-.627 15.377-.014.35.535.536.877.546 1.228.037 2.436-.48 3.662-.41 1.9.108 3.737.794 5.634.94 1.16.09.466-2.238-1.273-3.53" id="Path-29" stroke="#979797"/>
              <path d="M7.493 27.948c3.306 3.949 12.413 6.613 14.762.053" id="Path-2" stroke="#CC5C61"/>
            </g>
          </g>
          <g id="head_whole" transform="translate(106)">
            <g transform="matrix(-1 0 0 1 90.575 .213)">
              <g id="body_change_colour" transform="translate(0 42)" fill="#EFDD93">
                <path d="M47.056 82.81c2.322.144 4.614.305 6.853.48-1.846 4.074-9.169 7.796-17.917 7.698-9.277-.104-17.38-3.183-18.729-7.665 2.38-.062 5.216-.524 7.71-.518l1.064-.004.108-7.96c.005-.302.03-.599.078-.888C15.806 69.39 7.834 57.587 5.643 43.66c-.38.167-.78.256-1.194.256C1.992 43.917 0 40.78 0 36.913c0-3.802 1.924-6.896 4.323-7.001-.577-3.243-1.158-6.398-.27-8.96C8.605 7.817 22.835.942 35.69.942c10.547 0 23.156-1.164 28.67 8.004 2.429 4.037 2.37 12.26 2.157 19.532 1.581 1.075 2.688 3.55 2.688 6.434 0 3.143-1.316 5.803-3.127 6.69-.647 6.846-2.516 13.188-5.771 18.943-3.382 5.98-8.086 10.354-13.424 12.887.187.595.285 1.23.276 1.887l-.102 7.49z" id="head"/>
              </g>
              <g id="face" transform="matrix(-1 0 0 1 52.25 72.764)">
                <path d="M6.307 25.121c3.352 3.907 12.584 6.542 14.965.053" id="Path-2" stroke="#CC5C61"/>
                <ellipse id="Oval-7" fill="#4C2F1C" cx="2.35" cy="3.999" rx="1.985" ry="3.629"/>
                <ellipse id="Oval-7" fill="#4C2F1C" cx="25.654" cy="3.999" rx="1.985" ry="3.629"/>
                <path d="M11.15 1.051c1.2 6.705-.352 8.176-.637 15.211-.014.347.543.53.89.54 1.244.037 2.469-.475 3.711-.406 1.926.107 3.788.786 5.712.93 1.176.089.472-2.213-1.29-3.492" id="Path-29" stroke="#979797"/>
              </g>
              <path d="M41.375 55.709c-8.538 0-17.777-.463-24.717-2.293-2.36 2.738-4.31 5.64-5.853 8.709-.292.58.845 7.466 0 9.613-1.464 3.72-5.176 3.527-5.937 5.879-.576-11.588-.84-18.682-.791-21.282.048-2.6.365-8.755.95-18.466V34.27c0-10.803 16.011-16.274 36.348-16.274.88 0 1.752.013 2.616.04 3.493-.71 6.607-1.715 9.342-3.014C59.22 12.226 64.446 7.38 69.013.483V0c.102.001.205.005.309.01 9.082.514 20.28 18.43 20.28 33.295 0 14.32-10.393 20.657-19.268 21.26-1.01.15-2.068.28-3.163.393.182 2 .32 3.554.416 4.663.105 1.228-1.191 17.66-2.454 14.422-.846-2.17-1.937-12.737-2.417-13.64-1.044-1.964-2.23-3.597-3.556-4.898-6.489.267-13.13.204-17.785.204z" id="hair" fill="#FFC194"/>
            </g>
            <g id="glasses" transform="translate(17.336 63.84)">
              <path d="M12.512 6.807a1.5 1.5 0 0 0-1.5 1.5v5.715a6.5 6.5 0 0 0 6.5 6.5h7.025a6.5 6.5 0 0 0 6.5-6.5V9.307a2.5 2.5 0 0 0-2.5-2.5H12.512zM40.896 6.807a1.5 1.5 0 0 0-1.5 1.5v5.715a6.5 6.5 0 0 0 6.5 6.5h7.025a6.5 6.5 0 0 0 6.5-6.5V9.307a2.5 2.5 0 0 0-2.5-2.5H40.896z" id="Rectangle-3" stroke="#333"/>
              <path d="M39.678 7.358h.27v5.255h-1.125c-.341-1.2-1.826-2.102-3.606-2.102-1.78 0-3.265.903-3.606 2.102h-1.125V7.358h.27c.649.612 2.401 1.05 4.46 1.05 2.06 0 3.813-.438 4.462-1.05z" id="Combined-Shape" fill="#333"/>
            </g>
          </g>
        </g>
      </g>
      <g id="hot_spots" transform="translate(174 41)" fill="#5594CF" fill-opacity=".4" opacity="0">
        <circle id="feet-hotspot" cx="114" cy="487" r="17"/>
        <circle id="legs-hotspot" cx="77.769" cy="351.258" r="17"/>
        <circle id="hands-hotspot" cx="136" cy="272" r="17"/>
        <circle id="belly-hotspot" cx="71" cy="231" r="17"/>
        <circle id="arms-hotspot" cx="143" cy="186" r="17"/>
        <circle id="chest-hotspot" cx="88" cy="161" r="17"/>
        <circle id="shoulders-hotspot" cx="17" cy="120" r="17"/>
        <circle id="face-hotspot" cx="119" cy="80" r="17"/>
        <circle id="head-hotspot" cx="61" cy="17" r="17"/>
      </g>
    </g>
  </g>
</svg>
