<svg viewBox="0 0 361 549" xmlns="http://www.w3.org/2000/svg" xmlns:xlink="http://www.w3.org/1999/xlink">
  <defs>
    <linearGradient x1="0%" y1="0%" y2="100%" id="linearGradient-1">
      <stop stop-color="#162B74" offset="0%"/>
      <stop stop-color="#04BCB3" offset="73.779%"/>
      <stop stop-color="#3AE4B6" offset="100%"/>
    </linearGradient>
    <path d="M172.5 533c45.23 0 100.854-11.206 131.618-55.207C338.154 429.113 345 343.807 345 266.5c0-74.419-9.045-162.943-40.882-211.293C272.99 7.933 219.6 0 172.5 0 127.194 0 73.657 11.075 42.876 55.207 8.93 103.877 0 189.31 0 266.5c0 76.24 9.658 162.717 42.876 211.293C73.786 522.993 126.58 533 172.5 533z" id="path-2"/>
    <filter x="-4.1%" y="-1.9%" width="108.1%" height="105.3%" filterUnits="objectBoundingBox" id="filter-3">
      <feOffset dy="4" in="SourceAlpha" result="shadowOffsetOuter1"/>
      <feGaussianBlur stdDeviation="4" in="shadowOffsetOuter1" result="shadowBlurOuter1"/>
      <feComposite in="shadowBlurOuter1" in2="SourceAlpha" operator="out" result="shadowBlurOuter1"/>
      <feColorMatrix values="0 0 0 0 0.0470588235 0 0 0 0 0 0 0 0 0 0.2 0 0 0 0.1 0" in="shadowBlurOuter1"/>
    </filter>
    <path d="M2.988 40.482c14.436.537 14.228 1.174 29.02-1.033 6.129-.915 11.71-3.3 16.876-6.871 4.71-3.257 9.342-6.746 13.31-10.908C79.019 4.025 32.66-1.047 23.932.172 13.736 1.596 6.744 10.906 2.616 19.942-.983 27.823.142 30.005.251 38.964l2.737 1.52z" id="path-4"/>
  </defs>
  <g id="Assets" fill="none" fill-rule="evenodd">
    <g transform="translate(8 4)" id="avatar_1">
      <g id="bg">
        <use fill="#000" filter="url(#filter-3)" xlink:href="#path-2"/>
        <use fill-opacity=".66" fill="url(#linearGradient-1)" xlink:href="#path-2"/>
      </g>
      <g id="character" transform="translate(17 11)">
        <g id="bottom" transform="translate(107 251)">
          <g id="shoes" transform="translate(11.1 217.7)" fill="#626262">
            <path d="M19.919.506L22 19.195c-.693 2.82-1.387 4.572-2.081 5.256-3.756 3.699-8.026 3.796-10.405 3.796-3.04 0-6.21-1.557-9.514-4.672.605-3.237 1.497-5.476 2.676-6.716 1.179-1.241 4.35-3.87 9.513-7.885.367-3.054.437-5.445.21-7.175C12.174.07 14.68-.36 19.92.506z" id="Path-21"/>
            <path d="M65.4 1.8l7.789.539v7.037l10.584 10.792a4.975 4.975 0 0 1-.88 7.68c-.516.33-2.967.818-7.351 1.466-5.449-1.507-8.978-2.68-10.588-3.518-1.61-.84-2.492-2.305-2.646-4.398L65.4 1.799z" id="Path-22"/>
          </g>
          <path d="M11.917.78c0 1.082-5.979 4.046-8.814 12.272-.83 2.41-.83 7.28 0 14.61C.557 55.692-.423 74.004.166 82.597.754 91.189 5.532 127.324 14.5 191H34c.635-38.448 3.262-71.757 7.883-99.93 4.62-28.17 9.517-40.054 14.69-35.648L77 186.5h20.5c5.207-33.606 8.408-60.643 9.603-81.111 1.196-20.468 1.196-48.812 0-85.032-1.878-4.73-3.543-8.043-4.994-9.935-1.451-1.892-4.193-4.327-8.226-7.305C39.239 0 11.917-.78 11.917.779z" id="trousers" fill="#573463"/>
        </g>
        <path d="M125.98 32.147c2.28-13.495 10.225-15.386 23.962-15.822 10.389-.33 20.786-.374 31.18-.285 5.274.045 12.178.006 16.733 3.508 5.299 4.074 4.956 17.627 5.036 21.82.2 10.496.294 54.072-1.273 69.186-.144 1.387-4.491 2.8-4.942 2.925-6.805 1.874-8.664 2.033-15.664 2.24-20.2.602-22.526.273-45.859-1.344-3.125-.217-7.105-1.84-9.026-4.331-1.755-2.276-1.844-3.796-1.84-6.855.035-24.844-1.71-51.045 3.015-75.802" id="hair" fill="#6471E8"/>
        <g id="upper" transform="rotate(15 9.266 437.787)">
          <g id="top" transform="rotate(-15 350.79 45.949)">
            <path d="M106.67 10.427c4.98 4.209 12.74 81.044 16.052 134.828.72 11.69-8.173 21.75-19.863 22.47-.68.042-1.36.051-2.04.027l-65.652-2.282c-8.83-.307-15.741-7.715-15.434-16.546a16 16 0 0 1 .118-1.463c5.7-44.811 8.497-68.436 8.39-70.874-.165-3.782-4.28-57.364 3.598-63.643 13.294-10.593 70.263-6.377 74.831-2.517z" id="shirt" fill="#FEFEFE"/>
            <path d="M106.67 10.427c4.98 4.209 4.603 60.378 7.915 114.162a2.763 2.763 0 0 1-5.422.903c-15.758-57.257-24.237-89.8-25.438-97.626-.521-3.39 1.126-9.635 1.18-11.146.203-5.812-4.127-10.218-1.18-10.035 11.74.73 21.194 2.263 22.945 3.742z" id="Rectangle-5" fill="#E0AAAA"/>
            <path d="M80.21.36c4.36 5.372 7.706 8.886 10.037 10.542 2.33 1.656 5.797 2.945 10.397 3.868L86.194 31.3 123.2 181.816l-9.882 15.494L79.85 27.782c2.115-4.532 3.173-8.049 3.173-10.55 0-2.5-.938-8.125-2.813-16.872z" id="Path-30" fill="#F67089"/>
            <path d="M19.792 147.96H3.179c-1.137-19.154-2.033-30.558-2.688-34.213-.655-3.655-.655-9.447 0-17.375 8.881-40.698 14.325-64.044 16.333-70.037 2.007-5.993 8.451-11.307 19.332-15.942l-.002.147c5.126-2.087 12.564-3.292 20.715-3.868 2.151-.152 2.155 10.706 3.571 13.104 5.207 8.816 2.426 57.577-8.344 146.283-2.35 5.158-3.995 8.605-4.935 10.34-1.042 1.923-3.51 3.329-7.407 4.217l-21.766-12.16.52-4.736a2.862 2.862 0 0 1-.5-1.725c.624-4.904 1.219-9.58 1.784-14.035z" id="Combined-Shape" fill="#E0AAAA"/>
            <path d="M.491 113.747c.655 3.655 1.55 18.535 2.688 44.641h30.468c.264-16.354.264-24.684 0-24.99-21.949-25.471-33.8-23.241-33.156-19.651z" id="Path-16" fill="#E0AAAA"/>
            <path d="M59.506 0c-1.35 3.129-1.82 5.588-1.411 7.38.408 1.79 2.642 7.061 6.701 15.812 1.388 36.153 1.388 62.858 0 80.118-1.387 17.259-5.737 44.667-13.05 82.225l-11.992-4.919c3.896-.888 6.365-2.294 7.407-4.217 1.042-1.923 2.57-7.897 4.585-17.92L61.975 28.11c-4.855-6.451-7.442-11.488-7.76-15.11C53.897 9.38 55.661 5.047 59.505 0z" id="Path-31" fill="#F67089"/>
            <path d="M104.512 9.169c10.92 4.652 17.389 9.985 19.403 16 2.015 6.016 7.48 29.447 16.393 70.295.657 7.958.657 13.77 0 17.44-.657 3.668-1.379 18.14-2.165 43.416h-30.58L104.512 9.17z" id="Path-16" fill="#E0AAAA"/>
          </g>
          <g id="body_change_colour" transform="translate(25.95 .93)" fill="#E8E8E8">
            <path d="M113.06 408.555c-.45 12.057-.569 21.127-.356 27.209 0 .545.027.155-.792.005-1.087-.2-2.864-.46-4.317-.36-1.22.085-2.198.39-2.475 1.524-.222-1.731-1.557-11.19-4.005-28.378h11.944z" id="leg" transform="rotate(-15 107.087 422.744)"/>
            <path d="M156.493 389.12l-.99 33.898h8.224c2.085-9.66 3.553-17.047 4.405-22.162.439-2.636.958-6.547 1.559-11.736h-13.198z" id="leg" transform="rotate(-15 162.597 406.07)"/>
            <path d="M5.407 52.648c-1.91.07-3.893-1.828-4.626-4.562-.79-2.953.17-5.79 2.148-6.444-.573-2.531-1.198-5.225-1.743-8.127-.432-2.296 15.26-10.665 30.995-16.92C33.228 16.179 34.818.586 35.861.19c1.126-.427 4.807 14.03 5.908 13.834 6.476-1.154 13.463-7.28 14.38-3.854.918 3.425 11.315 24.935 11.315 37.738 0 10.702-6.33 17.888-15.432 21.84l2.47 10.703a6 6 0 0 1-4.496 7.196l-8.464 1.954a6 6 0 0 1-7.196-4.496L31.663 73.48a6.126 6.126 0 0 1-.011-.047C16.32 73.175 9.098 65.546 5.407 52.648z" id="head"/>
            <path d="M52.975 238.302c-.163 12.62-1.1 21.045-2.81 25.272-1.166 2.884-3.31 5.776-6.43 8.675a6.616 6.616 0 0 1-10.614-2.31c-.362-.874-.924-4.618-1.685-11.232l-.524 5.625a2.672 2.672 0 0 1-2.66 2.424 2.235 2.235 0 0 1-2.228-2.426l2.228-26.028h24.723z" id="hand" transform="scale(-1 1) rotate(16 0 -24.866)"/>
            <path d="M150.89 209.804c-.163 12.62-1.1 21.045-2.81 25.272-1.166 2.884-3.31 5.776-6.43 8.675a6.616 6.616 0 0 1-10.614-2.31c-.363-.874-.925-4.618-1.686-11.232l-.523 5.625a2.672 2.672 0 0 1-2.66 2.424h-.001a2.218 2.218 0 0 1-2.208-2.424l2.394-25.601 24.538-.429z" id="hand" transform="rotate(-14 137.419 227.662)"/>
          </g>
          <g id="face" transform="translate(51.087 27.608)">
            <path d="M17.381 11.326c2.314 12.538 3.345 6.778-2.172 8.389-.392.114.492.64.739.96" id="Path-2" stroke="#55383C" stroke-width=".5"/>
            <path d="M19.068 23.551c-5.62 3.034-2.673 2.464-8.815 1.849" id="Path-3" stroke="#CC5C61" stroke-width=".5"/>
            <g id="eyes" fill="#55383C">
              <ellipse id="eye" cx="24.104" cy="2.157" rx="2.159" ry="2.157"/>
              <ellipse id="eye" cx="2.159" cy="7.731" rx="2.159" ry="2.157"/>
            </g>
          </g>
        </g>
        <path d="M157.098 74C151.521 74 147 69.523 147 64s4.521-10 10.098-10c5.578 0 10.099 4.477 10.099 10s-4.521 10-10.099 10zm10.1-10c.028-1.586.824-2.857 1.802-2.857.978 0 1.774 1.271 1.802 2.857m10.1 10c-5.578 0-10.099-4.477-10.099-10s4.521-10 10.099-10C186.479 54 191 58.477 191 64s-4.521 10-10.098 10z" id="glasses" stroke="#8F8DC2"/>
        <g id="hat" transform="rotate(-8 128.752 -835.04)">
          <mask id="mask-5" fill="#fff">
            <use xlink:href="#path-4"/>
          </mask>
          <use id="Mask" fill="#8F8DC2" xlink:href="#path-4"/>
          <path d="M0 16.449c11.079-3.308 21.864-7.913 33.237-9.925 6.836-1.21 13.874.546 20.81.363 2.43-.064 4.809-.735 7.214-1.103M0 23.612c12.352-3.308 24.377-7.913 37.057-9.925 7.622-1.209 15.47.547 23.201.363 2.71-.064 5.363-.735 8.044-1.103M0 31.524c12.352-3.308 24.377-7.912 37.057-9.924 7.622-1.21 15.47.546 23.201.363 2.71-.064 5.363-.736 8.044-1.103M0 40.875c12.352-3.308 24.377-7.912 37.057-9.924 7.622-1.21 15.47.546 23.201.363 2.71-.065 5.363-.736 8.044-1.103M-3.52 8.507C8.831 5.199 20.855.594 33.535-1.418c7.622-1.21 15.47.546 23.202.363 2.71-.064 5.362-.735 8.043-1.103" id="Path-7" stroke="#504D6B" mask="url(#mask-5)"/>
        </g>
      </g>
      <g id="hot_spots" transform="translate(111)" fill="#5594CF" fill-opacity=".4" opacity="0">
        <circle id="feet-hotspot" cx="114" cy="487" r="17"/>
        <circle id="legs-hotspot" cx="77.769" cy="351.258" r="17"/>
        <circle id="hands-hotspot" cx="136" cy="272" r="17"/>
        <circle id="belly-hotspot" cx="71" cy="231" r="17"/>
        <circle id="arms-hotspot" cx="143" cy="186" r="17"/>
        <circle id="chest-hotspot" cx="88" cy="161" r="17"/>
        <circle id="shoulders-hotspot" cx="17" cy="120" r="17"/>
        <circle id="face-hotspot" cx="119" cy="80" r="17"/>
        <circle id="head-hotspot" cx="61" cy="17" r="17"/>
      </g>
    </g>
  </g>
</svg>
