<svg viewBox="0 0 361 549" xmlns="http://www.w3.org/2000/svg" xmlns:xlink="http://www.w3.org/1999/xlink">
  <defs>
    <linearGradient x1="43.045%" y1="0%" x2="55.5648%" y2="100%" id="linearGradient-1">
      <stop stop-color="#C43561" offset="0%"/>
      <stop stop-color="#A5D8C3" offset="100%"/>
    </linearGradient>
    <path d="M172.5 533c45.2302 0 100.8542-11.2057 131.6185-55.2072C338.1536 429.1132 345 343.8066 345 266.5c0-74.419-9.0446-162.9435-40.8815-211.2928C272.9892 7.9325 219.5992 0 172.5 0 127.1944 0 73.6566 11.075 42.8757 55.2072 8.9303 103.8764 0 189.31 0 266.5c0 76.2403 9.658 162.7174 42.8757 211.2928C73.7857 522.9935 126.5797 533 172.5 533z" id="path-2"/>
    <filter x="-4.1%" y="-1.9%" width="108.1%" height="105.3%" filterUnits="objectBoundingBox" id="filter-3">
      <feOffset dy="4" in="SourceAlpha" result="shadowOffsetOuter1"/>
      <feGaussianBlur stdDeviation="4" in="shadowOffsetOuter1" result="shadowBlurOuter1"/>
      <feComposite in="shadowBlurOuter1" in2="SourceAlpha" operator="out" result="shadowBlurOuter1"/>
      <feColorMatrix values="0 0 0 0 0.0470588235 0 0 0 0 0 0 0 0 0 0.2 0 0 0 0.1 0" in="shadowBlurOuter1"/>
    </filter>
  </defs>
  <g id="Assets" fill="none" fill-rule="evenodd">
    <g transform="translate(8 4)" id="avatar_6">
      <g id="bg">
        <use fill="#000" filter="url(#filter-3)" xlink:href="#path-2"/>
        <use fill-opacity=".66" fill="url(#linearGradient-1)" xlink:href="#path-2"/>
      </g>
      <g id="charachter" transform="matrix(-1 0 0 1 283 9)">
        <g id="body_change_colour" transform="translate(10 28)" fill="#B1D159">
          <path d="M76.849 19.3747c6.7787-4.5075 14.916-7.1338 23.6666-7.1338 8.725 0 16.8402 2.611 23.607 7.0941l5.4714-5.207c-1.2807-1.4034-2.0558-3.2358-2.0558-5.2405 0-4.4164 3.762-7.9966 8.4028-7.9966 4.6407 0 8.4027 3.5802 8.4027 7.9966 0 4.4164-3.762 7.9966-8.4027 7.9966a8.9315 8.9315 0 0 1-.8395-.0394l-2.6178 9.7387c6.736 7.5623 10.8288 17.5304 10.8288 28.4544v60.8443c0 23.6803-19.1608 42.877-42.7969 42.877-23.636 0-42.7969-19.1967-42.7969-42.877V55.0378c0-10.8819 4.0614-20.8152 10.751-28.3668l-2.6414-9.8263a8.9315 8.9315 0 0 1-.8394.0394c-4.6407 0-8.4028-3.5802-8.4028-7.9966 0-4.4164 3.762-7.9966 8.4028-7.9966 4.6407 0 8.4028 3.5802 8.4028 7.9966 0 2.0047-.7752 3.837-2.0558 5.2405l5.5131 5.2467z" id="head"/>
          <ellipse id="hand" cx="18.5" cy="375.5" rx="18.5" ry="21.5"/>
          <ellipse id="hand" cx="181.5" cy="349.5" rx="18.5" ry="21.5"/>
        </g>
        <g id="top_body" transform="translate(44)">
          <g id="eye-whole" transform="translate(43 70)">
            <ellipse id="Oval" fill="#FFF" cx="23.5156" cy="23.3795" rx="23.2031" ry="23.2159"/>
            <ellipse id="eye" fill="#27221B" cx="24.5469" cy="22.8636" rx="5.6719" ry="6.1909"/>
          </g>
          <path d="M132 66v94.571C132 197.2586 102.4508 227 66 227S0 197.2587 0 160.571V66C0 29.5492 29.5492 0 66 0s66 29.5492 66 66z" id="head_bubble" fill="#DCEBF0" opacity=".4558"/>
          <path d="M69.0938 133.1196c14.123 6.6722 21.2172-4.0374 21.6562-16.5241" id="mouth" stroke="#CC5C61" stroke-width="2"/>
        </g>
        <path d="M178.894 279c-7.1867 26.2664-11.6943 45.771-13.5227 58.5136-1.8284 12.7427-1.8284 24.6526 0 35.7296 9.5055 4.7795 16.2117 7.0234 20.1185 6.7316 3.9068-.2917 11.07-3.5712 21.4898-9.8385 1.3605-21.0491 1.3605-36.7563 0-47.1216-1.3605-10.3654-5.348-25.037-11.9624-44.0147H178.894z" id="Path-18" fill="#FAC859" transform="rotate(-8 186 329.5)"/>
        <path d="M171 195h19v87.8652c-4.2222 2.7565-7.3889 4.1348-9.5 4.1348-2.1111 0-5.2778-1.3783-9.5-4.1348V195z" id="Rectangle-2" fill="#4FAEB2"/>
        <g id="left_arm" transform="matrix(-1 0 0 1 206 152)">
          <ellipse id="Oval-4" fill="#FBA945" cx="30.9836" cy="33.0667" rx="28.918" ry="28.9333"/>
          <path d="M63 31.9562C63 16.1155 51.4208 1.0333 35.4667 1.0333S0-2.4073 0 13.4333C0 29.274 63 47.797 63 31.9563z" id="Oval-4" fill="#FAC859"/>
        </g>
        <g id="shirt" transform="translate(0 147)">
          <path d="M82 153.4186V163c0 4.4183 3.5817 8 8 8h46c4.4183 0 8-3.5817 8-8v-20l-62 10.4186z" id="Path-20" fill="#4F6679"/>
          <path d="M36.9827 72.0521c11.8105 14.2545 20.0817 25.2339 24.8136 32.9381 4.7319 7.7043 12.4861 23.8302 23.2628 48.3779C95.513 156.456 103.4395 158 108.8388 158c5.3992 0 15.7383-1.544 31.017-4.632 14.8917-21.9426 25.403-39.2694 31.534-51.9804C177.5208 88.6766 183.7242 71.35 190 49.4072c-4.4183-14.8734-8.7263-24.8234-12.9238-29.8502-4.1975-5.0268-11.7794-9.3156-22.7458-12.8664-18.494 4.79-32.107 6.8485-40.839 6.1758C104.7593 12.1938 89.423 7.905 67.4827 0v12.8664c-24.677-4.6973-42.4256-6.7559-53.246-6.1758C3.4166 7.2706-1.236 10.53.2793 16.469l36.7035 55.583z" fill="#163A4D"/>
        </g>
        <g id="right_arm" transform="translate(0 152)">
          <path d="M20.894 153c-7.1867 26.2664-11.6943 45.771-13.5227 58.5136-1.8284 12.7427-1.8284 24.6526 0 35.7296 9.5055 4.7795 16.2117 7.0234 20.1185 6.7316 3.9068-.2917 11.07-3.5712 21.4898-9.8385 1.3605-21.049 1.3605-36.7563 0-47.1216-1.3605-10.3654-5.348-25.037-11.9624-44.0147H20.894z" id="Path-18" fill="#FAC859"/>
          <path d="M19 65h19v87.8652C33.7778 155.6217 30.6111 157 28.5 157c-2.1111 0-5.2778-1.3783-9.5-4.1348V65z" id="Rectangle-2" fill="#4FAEB2"/>
          <circle id="Oval-4" fill="#FBA945" cx="32.9412" cy="37.0588" r="32.9412"/>
          <path d="M69.4853 36.0294c0-18.1929-13.2042-35.5147-31.397-35.5147C19.8952.5147 0 3.4247 0 21.6177c0 18.1929 69.4853 32.6046 69.4853 14.4117z" id="Oval-4" fill="#FAC859"/>
        </g>
        <path d="M152.6388 151c-20.8067 49.6922-37.6317 85.4749-50.4751 107.3481-12.8434 21.8732-22.4577 31.1185-28.843 27.7359-.1982-1.705-.1982-2.9034 0-3.5954.1983-.692 1.0568-3.089 2.5753-7.1908l-8.2408-17.977c-4.5773 18.9254-5.779 31.0812-3.6054 36.4676 2.1737 5.3863 9.041 7.2696 20.6021 5.6499 24.2642-20.3292 40.4025-37.7925 48.4149-52.39 8.0123-14.5975 18.6567-45.9287 31.9332-93.9938L152.6388 151z" id="band_across_body" fill="#F9F082"/>
        <path d="M86.5513 315c-4.6118 35.2633-8.921 61.3942-12.9278 78.3928-4.0067 16.9986-11.2463 39.8631-21.7186 68.5937-11.8632 6.9018-18.9304 12.2312-21.2015 15.988-2.2712 3.7568-2.2712 10.1176 0 19.0824 15.8225 6.1501 27.6045 8.7289 35.346 7.7362 7.7415-.9927 20.0913-6.666 37.0494-17.0195-1.9354-29.6202-3.8315-51.797-5.6882-66.5307-1.8567-14.7337-3.9251-24.017-6.2053-27.8501 1.0528-18.2765 3.1212-30.8262 6.2053-37.6492 3.0841-6.823 10.496-15.2468 22.2358-25.2713l26.8897 53.1214c-5.4913 21.4612-8.7663 37.2773-9.8251 47.4482-1.0588 10.171-1.0588 25.8152 0 46.9326 17.9268 8.0473 31.3717 12.3451 40.3346 12.8935 8.963.5484 23.6144-2.0303 43.9544-7.7361-4.0248-13.9094-8.5064-23.3646-13.4449-28.3658-4.9384-5.0012-11.6609-6.8922-20.1673-5.6732-12.927-12.1453-21.0284-22.632-24.3042-31.4602-3.2758-8.8282-3.2758-20.1745 0-34.039L143.4334 315H86.5513z" id="trousers" fill="#163A4D"/>
      </g>
      <g id="hot_spots" transform="translate(70)" fill="#5594CF" fill-opacity=".4" opacity="0">
        <circle id="feet-hotspot" cx="167" cy="479" r="17"/>
        <circle id="legs-hotspot" cx="138" cy="372" r="17"/>
        <circle id="hands-hotspot" cx="201" cy="421" r="17"/>
        <circle id="belly-hotspot" cx="85" cy="279" r="17"/>
        <circle id="arms-hotspot" cx="206" cy="262" r="17"/>
        <circle id="chest-hotspot" cx="119" cy="206" r="17"/>
        <circle id="shoulders-hotspot" cx="17" cy="153" r="17"/>
        <circle id="face-hotspot" cx="172" cy="103" r="17"/>
        <circle id="head-hotspot" cx="102" cy="17" r="17"/>
      </g>
    </g>
  </g>
</svg>
