<?xml version="1.0" encoding="UTF-8"?>
<svg width="71px" height="66px" viewBox="0 0 71 66" version="1.1" xmlns="http://www.w3.org/2000/svg" xmlns:xlink="http://www.w3.org/1999/xlink">
    <!-- Generator: Sketch 49.1 (51147) - http://www.bohemiancoding.com/sketch -->
    <title>Done_green_small</title>
    <desc>Created with Sketch.</desc>
    <defs>
        <filter x="-25.5%" y="-17.2%" width="150.9%" height="148.3%" filterUnits="objectBoundingBox" id="filter-1">
            <feOffset dx="0" dy="4" in="SourceAlpha" result="shadowOffsetOuter1"></feOffset>
            <feGaussianBlur stdDeviation="4" in="shadowOffsetOuter1" result="shadowBlurOuter1"></feGaussianBlur>
            <feColorMatrix values="0 0 0 0 0.0470588235   0 0 0 0 0   0 0 0 0 0.2  0 0 0 0.1 0" type="matrix" in="shadowBlurOuter1" result="shadowMatrixOuter1"></feColorMatrix>
            <feMerge>
                <feMergeNode in="shadowMatrixOuter1"></feMergeNode>
                <feMergeNode in="SourceGraphic"></feMergeNode>
            </feMerge>
        </filter>
    </defs>
    <g id="Assets" stroke="none" stroke-width="1" fill="none" fill-rule="evenodd">
        <g id="Artboard-3" transform="translate(0.000000, -1.000000)">
            <g id="DONE" filter="url(#filter-1)" transform="translate(8.000000, 5.000000)">
                <path d="M1.63793221,18.5541352 C-6.98193962,43.9147653 20.0845748,63.4730115 43.9289854,56.6161993 C51.496076,54.4401707 55.7162942,38.5772815 54.8998139,32.1819602 C50.8009816,0.0766554374 17.7134838,-13.1823318 2.20982632,16.7799205 C2.97876351,14.578713 2.78813214,15.1701179 1.63793221,18.5541352 Z" id="Path-4" fill="#449694"></path>
                <g id="check-small" transform="translate(16.000000, 21.000000)" fill="#FFFFFF" fill-rule="nonzero">
                    <path d="M7.0779653,16 C6.743285,16 6.40925838,15.8743405 6.15367245,15.6223771 L0,9.55592251 L1.84858569,7.73289299 L7.0779653,12.888155 L20.1514143,0 L22,1.82302952 L8.00225814,15.6223771 C7.74667221,15.8743405 7.41264559,16 7.0779653,16 Z" id="Shape"></path>
                </g>
            </g>
        </g>
    </g>
</svg>