<svg width="78" height="86" viewBox="0 0 78 86" version="1.1" xmlns="http://www.w3.org/2000/svg" xmlns:xlink="http://www.w3.org/1999/xlink">
<title>paint_btn_11.svg</title>
<desc>Created using Figma</desc>
<g id="Canvas" transform="translate(-162 412)">
<g id="paint_btn_11.svg">
<g id="paint_btn_1">
<g id="Assets">
<g id="Artboard 3">
<g id="paint btn yellow" filter="url(#filter0_d)">
<g id="bg">
<use xlink:href="#path0_fill" transform="translate(170 -408)" fill="#FFFFFF"/>
</g>
<g id="icon">
<g id="colour">
<use xlink:href="#path1_fill" transform="translate(177 -380)" fill="#039645"/>
</g>
<g id="Shape">
<use xlink:href="#path2_fill" transform="matrix(-0.707107 -0.707107 0.707107 -0.707107 196.786 -361.822)" fill="#111111"/>
</g>
</g>
</g>
</g>
</g>
</g>
</g>
</g>
<defs>
<filter id="filter0_d" filterUnits="userSpaceOnUse" x="162" y="-412" width="78" height="86" color-interpolation-filters="sRGB">
<feFlood flood-opacity="0" result="BackgroundImageFix"/>
<feColorMatrix in="SourceAlpha" type="matrix" values="0 0 0 0 0 0 0 0 0 0 0 0 0 0 0 0 0 0 255 0"/>
<feOffset dx="0" dy="4"/>
<feGaussianBlur stdDeviation="4"/>
<feColorMatrix type="matrix" values="0 0 0 0 0.0470588 0 0 0 0 0 0 0 0 0 0.2 0 0 0 0.1 0"/>
<feBlend mode="normal" in2="BackgroundImageFix" result="effect1_dropShadow"/>
<feBlend mode="normal" in="SourceGraphic" in2="effect1_dropShadow" result="shape"/>
</filter>
<path id="path0_fill" fill-rule="evenodd" d="M 2.76196 23.295C -6.69251 50.8525 9.10249 76.1297 35.2556 68.6789C 38.3336 67.802 54.108 58.6843 56.2107 54.1833C 59.7777 46.5474 62.4891 37.7574 61.9257 33.3853C 57.8105 1.45189 28.8152 -11.4096 10.4905 11.957C 8.79584 14.1179 4.82868 18.611 3.38923 21.3671C 4.23261 18.9752 4.02352 19.6178 2.76196 23.295Z"/>
<path id="path1_fill" fill-rule="evenodd" d="M 1.6123 11.4097C 3.09942 9.36801 14.7004 -0.0867621 16.3543 0.000600839C 30.5649 0.751225 26.165 21.1692 21.4375 27.9595C 13.8319 38.8839 -7.44074 17.502 2.67828 8.99015"/>
<path id="path2_fill" d="M 7.73234 4.17385C 6.63835 2.50372 4.97181 1.19619 2.49012 0.0584276C 2.21881 -0.0647943 1.89759 0.0115722 1.71235 0.243335C 1.5271 0.475098 1.52583 0.802217 1.70925 1.03539C 2.3135 1.79646 2.15435 2.85799 1.91563 3.6133C 1.71637 4.24176 1.41036 4.83627 1.08624 5.46473C 0.881086 5.85244 0.687776 6.24618 0.506575 6.64542C 0.27238 7.1765 0.00260167 7.88696 1.38744e-05 8.67622C -0.00386773 10.0831 0.797701 11.3662 1.55463 12.3624L 0.926444 20.4498C 0.924395 20.473 0.923964 20.4963 0.92515 20.5196L 1.50934 38.4586C 1.55657 39.884 2.71978 41 4.15989 41C 5.6 41 6.76321 39.884 6.80979 38.4593L 7.39399 20.5202C 7.39517 20.497 7.39474 20.4736 7.39269 20.4504L 6.78197 12.5886C 7.45868 12.2574 8.03382 11.6795 8.39934 10.9364C 9.395 8.91133 9.13945 6.32062 7.73234 4.17385ZM 3.01114 4.35572C 3.25119 3.57797 3.3386 2.85275 3.27674 2.19643C 4.79566 3.09426 5.88425 4.09715 6.6454 5.28698C 7.03874 5.90237 7.31778 6.56755 7.5 7.24229L 7.422 7.32143L 5.88022 5.75705C 5.75422 5.62898 5.58319 5.55701 5.40484 5.55701C 5.22649 5.55701 5.05547 5.62898 4.92946 5.75705L 3.38768 7.32143L 2.25 6.16708C 2.53577 5.59126 2.81413 4.99635 3.01114 4.35572ZM 5.43669 38.2264C 5.41355 38.9604 4.83774 39.5357 4.125 39.5357C 3.41226 39.5357 2.83645 38.9604 2.81331 38.2264L 2.25 20.2011L 2.82832 12.4464L 5.42168 12.4464L 6 20.2004L 5.43669 38.2264ZM 7.7699 10.4955C 7.4729 11.1002 6.99154 11.7143 6.44601 11.7143L 2.81571 11.7143C 2.19917 11.0387 1.4966 9.77738 1.50001 8.7086C 1.50138 8.25326 1.63042 7.75805 1.91992 7.10408C 1.95952 7.01558 2.00731 6.92978 2.04896 6.84196L 3.35852 8.13773C 3.48647 8.26455 3.66013 8.33581 3.84124 8.33581C 4.02234 8.33581 4.19601 8.26455 4.32396 8.13773L 5.88955 6.58929L 7.45515 8.13841C 7.58303 8.2653 7.75675 8.33654 7.93786 8.33635C 8.04737 8.33322 8.15446 8.30377 8.24989 8.25055C 8.25467 9.04977 8.10241 9.82062 7.7699 10.4955Z"/>
</defs>
</svg>
