<?xml version="1.0" encoding="UTF-8"?>
<svg width="78px" height="86px" viewBox="0 0 78 86" version="1.1" xmlns="http://www.w3.org/2000/svg" xmlns:xlink="http://www.w3.org/1999/xlink">
    <!-- Generator: Sketch 49.1 (51147) - http://www.bohemiancoding.com/sketch -->
    <title>paint_btn_2</title>
    <desc>Created with Sketch.</desc>
    <defs>
        <filter x="-22.6%" y="-14.3%" width="145.2%" height="140.0%" filterUnits="objectBoundingBox" id="filter-1">
            <feOffset dx="0" dy="4" in="SourceAlpha" result="shadowOffsetOuter1"></feOffset>
            <feGaussianBlur stdDeviation="4" in="shadowOffsetOuter1" result="shadowBlurOuter1"></feGaussianBlur>
            <feColorMatrix values="0 0 0 0 0.0470588235   0 0 0 0 0   0 0 0 0 0.2  0 0 0 0.1 0" type="matrix" in="shadowBlurOuter1" result="shadowMatrixOuter1"></feColorMatrix>
            <feMerge>
                <feMergeNode in="shadowMatrixOuter1"></feMergeNode>
                <feMergeNode in="SourceGraphic"></feMergeNode>
            </feMerge>
        </filter>
    </defs>
    <g id="Assets" stroke="none" stroke-width="1" fill="none" fill-rule="evenodd">
        <g id="Artboard-3" transform="translate(-5.000000, -2.000000)">
            <g id="paint_btn_grey" filter="url(#filter-1)" transform="translate(13.000000, 6.000000)">
                <path d="M2.76195972,23.2949779 C-6.69250985,50.8525367 9.10248798,76.1297171 35.2555745,68.6789163 C38.3335711,67.8020202 54.1080308,58.6843238 56.2106575,54.1833051 C59.777721,46.547418 62.4891018,37.7573995 61.9256801,33.3852542 C57.8105494,1.45189395 28.8151822,-11.4096397 10.4904765,11.9569594 C8.79583617,14.1178662 4.82868133,18.6110446 3.38922607,21.3670674 C4.23261369,18.9751748 4.02352491,19.6178116 2.76195972,23.2949779 Z" id="bg" fill="#FFFFFF"></path>
                <g id="icon" transform="translate(7.000000, 10.000000)">
                    <path d="M1.61229812,29.4097475 C3.09942163,27.3680117 14.7003685,17.9132386 16.354298,18.0006015 C30.5648935,18.751226 26.1649737,39.1691974 21.4375019,45.9595424 C13.8318997,56.8839151 -7.44074025,35.5020428 2.67828354,26.9901466" id="colour" fill="#E8E8E8"></path>
                    <path d="M34.3323407,2.17385378 C33.238351,0.503723602 31.571812,-0.80380831 29.0901182,-1.94157248 C28.8188088,-2.06479436 28.4975908,-1.98842779 28.3123478,-1.75666488 C28.1271049,-1.52490198 28.1258261,-1.19778331 28.3092515,-0.964607188 C28.9135013,-0.203535208 28.754352,0.85799364 28.515628,1.61329992 C28.3163679,2.24176088 28.0103614,2.83626828 27.6862402,3.46472924 C27.4810849,3.852436 27.2877753,4.2461769 27.1065745,4.64541582 C26.8723792,5.17650056 26.6026017,5.88696253 26.6000139,6.67622236 C26.5961323,8.08305239 27.3977013,9.36624025 28.1546308,10.3624245 L27.526444,18.4497753 C27.5243955,18.4729946 27.5239632,18.4963261 27.5251501,18.5196043 L28.1093445,36.458609 C28.1565717,37.8840173 29.3197848,39 30.7598919,39 C32.1999989,39 33.363212,37.8840173 33.4097923,36.4592496 L33.9939867,18.5202449 C33.9951735,18.4969667 33.9947412,18.4736353 33.9926928,18.4504159 L33.3819735,10.588568 C34.0586815,10.2573607 34.6338186,9.67950977 34.9993444,8.93637552 C35.9949979,6.91133467 35.7394533,4.3206149 34.3323407,2.17385378 Z M29.6111423,2.3557237 C29.8511846,1.57796811 29.9385949,0.852745132 29.8767353,0.196428571 C31.3956582,1.09425871 32.4842532,2.09715408 33.2453957,3.28698368 C33.6387422,3.90236574 33.9177829,4.56755144 34.0999999,5.24228853 L34.022003,5.32142857 L32.4802189,3.75704825 C32.3542153,3.62898031 32.1831889,3.55701417 32.0048411,3.55701417 C31.8264933,3.55701417 31.6554669,3.62898031 31.5294633,3.75704825 L29.9876792,5.32142857 L28.8499999,4.16707554 C29.1357645,3.5912635 29.4141328,2.9963487 29.6111423,2.3557237 Z M32.0366871,36.2263988 C32.0135544,36.9603895 31.4377375,37.5357143 30.7249999,37.5357143 C30.0122623,37.5357143 29.4364454,36.9603895 29.4133127,36.2263988 L28.8499999,18.2010591 L29.4283177,10.4464286 L32.0216821,10.4464286 L32.5999999,18.2004141 L32.0366871,36.2263988 Z M34.3699026,8.49552748 C34.072897,9.10017749 33.5915431,9.71428571 33.0460087,9.71428571 L29.4157129,9.71428571 C28.7991703,9.03869911 28.0965984,7.77737891 28.1000123,6.7086009 C28.1013778,6.25325553 28.2304216,5.75805054 28.5199167,5.10408271 C28.5595175,5.01558086 28.6073115,4.92978136 28.6489605,4.84195511 L29.9585162,6.13773022 C30.0864658,6.26454888 30.2601335,6.335813 30.4412356,6.335813 C30.6223377,6.335813 30.7960054,6.26454888 30.923955,6.13773022 L32.48955,4.58928571 L34.0551449,6.1384058 C34.1830316,6.26530096 34.356752,6.3365378 34.5378643,6.33635268 C34.6473671,6.33322016 34.7544555,6.30377352 34.8498909,6.25055318 C34.8546703,7.04977214 34.7024123,7.82061646 34.3699026,8.49552748 Z" id="Shape" fill="#111111" fill-rule="nonzero" transform="translate(31.100000, 18.500000) rotate(-135.000000) translate(-31.100000, -18.500000) "></path>
                </g>
            </g>
        </g>
    </g>
</svg>