<?xml version="1.0" encoding="UTF-8"?>
<svg width="78px" height="86px" viewBox="0 0 78 86" version="1.1" xmlns="http://www.w3.org/2000/svg" xmlns:xlink="http://www.w3.org/1999/xlink">
    <!-- Generator: Sketch 49.1 (51147) - http://www.bohemiancoding.com/sketch -->
    <title>about_btn</title>
    <desc>Created with Sketch.</desc>
    <defs>
        <filter x="-22.6%" y="-14.3%" width="145.2%" height="140.0%" filterUnits="objectBoundingBox" id="filter-1">
            <feOffset dx="0" dy="4" in="SourceAlpha" result="shadowOffsetOuter1"></feOffset>
            <feGaussianBlur stdDeviation="4" in="shadowOffsetOuter1" result="shadowBlurOuter1"></feGaussianBlur>
            <feColorMatrix values="0 0 0 0 0.0470588235   0 0 0 0 0   0 0 0 0 0.2  0 0 0 0.1 0" type="matrix" in="shadowBlurOuter1" result="shadowMatrixOuter1"></feColorMatrix>
            <feMerge>
                <feMergeNode in="shadowMatrixOuter1"></feMergeNode>
                <feMergeNode in="SourceGraphic"></feMergeNode>
            </feMerge>
        </filter>
    </defs>
    <g id="Assets" stroke="none" stroke-width="1" fill="none" fill-rule="evenodd">
        <g id="Artboard-3" transform="translate(-5.000000, -2.000000)">
            <g id="about_btn" filter="url(#filter-1)" transform="translate(13.000000, 6.000000)">
                <path d="M2.76195972,23.2949779 C-6.69250985,50.8525367 9.10248798,76.1297171 35.2555745,68.6789163 C38.3335711,67.8020202 54.1080308,58.6843238 56.2106575,54.1833051 C59.777721,46.547418 62.4891018,37.7573995 61.9256801,33.3852542 C57.8105494,1.45189395 28.8151822,-11.4096397 10.4904765,11.9569594 C8.79583617,14.1178662 4.82868133,18.6110446 3.38922607,21.3670674 C4.23261369,18.9751748 4.02352491,19.6178116 2.76195972,23.2949779 Z" id="Path-4" fill="#FFFFFF" transform="translate(31.000000, 35.000000) scale(-1, 1) translate(-31.000000, -35.000000) "></path>
                <g id="question-mark-faq-more-information" transform="translate(9.000000, 13.000000)" fill="#449694" fill-rule="nonzero">
                    <path d="M22.5,3.50648437 C15.9089063,3.50648437 10.546875,8.86851562 10.546875,15.4596094 L10.546875,19.6783594 C10.546875,20.0666846 10.8616748,20.3814844 11.25,20.3814844 L16.875,20.3814844 C17.2633252,20.3814844 17.578125,20.0666846 17.578125,19.6783594 L17.578125,15.4596094 C17.578125,12.7455469 19.7866406,10.5377344 22.5,10.5377344 C25.2133594,10.5377344 27.421875,12.7455469 27.421875,15.4596094 L27.421875,18.2221875 L20.0144531,25.6296094 C19.3530823,26.287701 18.9822098,27.1828582 18.984375,28.1158594 L18.984375,33.7408594 C18.984375,34.1291846 19.2991748,34.4439844 19.6875,34.4439844 L25.3125,34.4439844 C25.7008252,34.4439844 26.015625,34.1291846 26.015625,33.7408594 L26.015625,29.5720312 L33.4230469,22.1646094 C34.0842851,21.506429 34.4551337,20.6113296 34.453125,19.6783594 L34.453125,15.4596094 C34.453125,8.86851562 29.0910938,3.50648437 22.5,3.50648437 Z M33.046875,19.6783594 C33.046875,20.2415625 32.8275,20.7710156 32.4288281,21.1703906 L24.8153906,28.7838281 C24.683257,28.915483 24.6091045,29.0944107 24.609375,29.2809375 L24.609375,33.0377344 L20.390625,33.0377344 L20.390625,28.1158594 C20.390625,27.5526562 20.61,27.0232031 21.0086719,26.6238281 L28.6221094,19.0103906 C28.7541771,18.8786916 28.8283177,18.6997926 28.828125,18.5132812 L28.828125,15.4596094 C28.828125,11.9707031 25.9896094,9.13148437 22.5,9.13148437 C19.0103906,9.13148437 16.171875,11.9707031 16.171875,15.4596094 L16.171875,18.9752344 L11.953125,18.9752344 L11.953125,15.4596094 C11.953125,9.6440625 16.6844531,4.91273437 22.5,4.91273437 C28.3155469,4.91273437 33.046875,9.6440625 33.046875,15.4596094 L33.046875,19.6783594 Z" id="Shape"></path>
                    <path d="M19.6875,41.4752344 L25.3125,41.4752344 C25.7008252,41.4752344 26.015625,41.1604346 26.015625,40.7721094 L26.015625,36.5533594 C26.015625,36.1650342 25.7008252,35.8502344 25.3125,35.8502344 L19.6875,35.8502344 C19.2991748,35.8502344 18.984375,36.1650342 18.984375,36.5533594 L18.984375,40.7721094 C18.984375,41.1604346 19.2991748,41.4752344 19.6875,41.4752344 Z M20.390625,37.2564844 L24.609375,37.2564844 L24.609375,40.0689844 L20.390625,40.0689844 L20.390625,37.2564844 Z" id="Shape"></path>
                    <path d="M7.31390625,7.85109375 L6.30210937,6.87445312 C5.96806776,7.22032376 5.64539621,7.57699776 5.33460937,7.94390625 L6.406875,8.85375 C6.69867187,8.50992187 7.00101562,8.17523437 7.31390625,7.85109375 Z" id="Shape"></path>
                    <path d="M43.5452344,21.0501562 L44.9486719,20.9552344 C44.9162118,20.4759592 44.8686099,19.9978298 44.8059375,19.5215625 L43.4123437,19.7050781 C43.47,20.1494531 43.515,20.5973437 43.5452344,21.0501562 Z" id="Shape"></path>
                    <path d="M11.5178906,4.47679687 L10.7845312,3.27726562 C10.3746094,3.52757812 9.973125,3.79125 9.58078125,4.066875 L10.3879687,5.21789062 C10.7569806,4.95941936 11.1337967,4.71227301 11.5178906,4.47679687 Z" id="Shape"></path>
                    <path d="M5.56523437,9.91125 L4.4353125,9.07382813 C4.14919261,9.45971214 3.87507717,9.85435396 3.61335938,10.2571875 L4.79320313,11.0228906 C5.0383694,10.6440332 5.29585055,10.2732884 5.56523438,9.91125 Z" id="Shape"></path>
                    <path d="M9.30726562,6.03 L8.42835937,4.93242187 C8.05289062,5.23335937 7.68726563,5.54554687 7.33289063,5.8696875 L8.28210937,6.90820312 C8.6146875,6.60515625 8.95640625,6.31195312 9.30726562,6.03 Z" id="Shape"></path>
                    <path d="M1.40625,22.5358594 L0,22.5379687 C0.000703125,23.0217187 0.016875,23.5026562 0.0478125,23.9786719 L1.45125,23.8865625 C1.42172691,23.4369293 1.4067191,22.9864606 1.40625,22.5358594 Z" id="Shape"></path>
                    <path d="M1.5834375,25.2323437 L0.1884375,25.4116406 C0.249609375,25.88625 0.32765625,26.3650781 0.419765625,26.8361719 L1.8,26.5647656 C1.71306572,26.1231478 1.64083832,25.6787617 1.5834375,25.2323437 Z" id="Shape"></path>
                    <path d="M1.57007812,19.8372656 L0.175078125,19.6642969 C0.115796796,20.1406799 0.0714781138,20.6188058 0.0421875,21.0979688 L1.445625,21.1844531 C1.47375,20.7309375 1.51523438,20.2823438 1.57007813,19.8372656 Z" id="Shape"></path>
                    <path d="M2.92429687,14.6186719 L1.62,14.0934375 C1.44070312,14.5392187 1.27546875,14.9913281 1.12429687,15.4504687 L2.46023437,15.8899219 C2.6015625,15.4596094 2.75625,15.035625 2.92429687,14.6186719 Z" id="Shape"></path>
                    <path d="M4.09289062,12.1795312 L2.86664062,11.491875 C2.6312409,11.9113054 2.40963779,12.338331 2.2021875,12.7722656 L3.46992187,13.3797656 C3.66539062,12.9726562 3.87351562,12.571875 4.09289062,12.1795312 Z" id="Shape"></path>
                    <path d="M2.10164062,27.883125 L0.741796875,28.2403125 C0.8634375,28.7029687 1.00195312,29.1684375 1.15382812,29.6226562 L2.48695312,29.176875 C2.34506018,28.7497472 2.21655987,28.3182863 2.10164063,27.883125 Z" id="Shape"></path>
                    <path d="M40.14,10.9195312 L41.3142187,10.1460937 C41.0502516,9.74518824 40.7737878,9.35265191 40.4852344,8.9690625 L39.3616406,9.81421875 C39.6323437,10.1742187 39.8917969,10.5433594 40.14,10.9195312 Z" id="Shape"></path>
                    <path d="M32.8422656,2.50382812 C32.414638,2.28250206 31.9801244,2.07474217 31.539375,1.88085938 L30.9733594,3.16828125 C31.3863905,3.34916211 31.7932584,3.5438021 32.1932812,3.751875 L32.8422656,2.50382813 Z" id="Shape"></path>
                    <path d="M13.9071094,3.22101563 L13.3333594,1.93710938 C12.8939062,2.13328125 12.4628906,2.34351563 12.0382031,2.56640625 L12.6935156,3.81164063 C13.0900781,3.60210938 13.4950781,3.40523438 13.9071094,3.22101563 Z" id="Shape"></path>
                    <path d="M39.5824219,7.84546875 C39.2693235,7.48116204 38.9447864,7.12684445 38.6092969,6.78304687 L37.6024219,7.76460937 C37.9167187,8.08734375 38.2211719,8.420625 38.5150781,8.76234375 L39.5824219,7.84546875 Z" id="Shape"></path>
                    <path d="M41.473125,13.2644531 L42.7380469,12.6485156 C42.5276429,12.217118 42.3037038,11.7924544 42.0665625,11.3751562 L40.8445313,12.0698437 C41.0660156,12.4607812 41.27625,12.85875 41.473125,13.2644531 Z" id="Shape"></path>
                    <path d="M27.4345313,0.533671875 C26.9651977,0.429113485 26.4926997,0.339303692 26.0177344,0.264375 L25.7990625,1.65375 C26.24625,1.7240625 26.6892188,1.8084375 27.1265625,1.90617187 L27.4345313,0.533671875 Z" id="Shape"></path>
                    <path d="M42.4975781,15.7626562 L43.8307031,15.3140625 C43.6772726,14.8585977 43.509375,14.408135 43.3272656,13.9633594 L42.0250781,14.4963281 C42.1966406,14.911875 42.3534375,15.3344531 42.4975781,15.7626562 Z" id="Shape"></path>
                    <path d="M30.1999219,1.34367187 C29.7481348,1.17882467 29.2910953,1.02874501 28.8295312,0.893671875 L28.4350781,2.24367188 C28.8682031,2.37023438 29.2964062,2.51085937 29.7175781,2.66484375 L30.1999219,1.34367187 Z" id="Shape"></path>
                    <path d="M19.0673437,1.67484375 L18.8409375,0.286875 C18.3642187,0.364921875 17.8924219,0.457734375 17.42625,0.5653125 L17.7419531,1.93570312 C18.1808698,1.83470678 18.6228905,1.74770959 19.0673437,1.67484375 Z" id="Shape"></path>
                    <path d="M24.586875,0.086484375 C24.1085935,0.0427189138 23.6290636,0.0138767758 23.1489844,-3.55271368e-15 L23.1089063,1.40554687 C23.5624219,1.41890625 24.0124219,1.445625 24.4589063,1.48640625 L24.586875,0.086484375 Z" id="Shape"></path>
                    <path d="M16.43625,2.28164062 L16.0326563,0.934453125 C15.5707031,1.07296875 15.114375,1.22625 14.6657813,1.39289062 L15.1558594,2.71054687 C15.5778435,2.5535933 16.0048707,2.41054738 16.43625,2.28164062 Z" id="Shape"></path>
                    <path d="M21.7560938,1.40976562 L21.706875,0.00421875 C21.2238281,0.02109375 20.745,0.0534375 20.2703906,0.09984375 L20.4075,1.4990625 C20.8560067,1.45544419 21.3057516,1.42566442 21.7560938,1.40976563 Z" id="Shape"></path>
                    <path d="M43.1915625,18.3719531 L44.5717969,18.0991406 C44.4781252,17.6276008 44.3697915,17.1590925 44.2469531,16.6942969 L42.8871094,17.055 C43.0024219,17.4895312 43.104375,17.9282812 43.1915625,18.3719531 Z" id="Shape"></path>
                    <path d="M2.0784375,17.1850781 L0.717890625,16.8328125 C0.597265831,17.2980232 0.49174175,17.7670191 0.401484375,18.2390625 L1.783125,18.5034375 C1.8675,18.0590625 1.96664062,17.6196094 2.0784375,17.1850781 Z" id="Shape"></path>
                    <path d="M36.4696875,4.8515625 L35.5964062,5.95335937 C35.9500781,6.23320312 36.2939062,6.525 36.6285937,6.82664062 L37.5707812,5.78320312 C37.2142969,5.46117187 36.8465625,5.15039062 36.4696875,4.8515625 Z" id="Shape"></path>
                    <path d="M36.6841406,38.1030469 L37.6319531,39.1429687 C37.9863281,38.8195312 38.3315625,38.4855469 38.6655469,38.1403125 L37.6558594,37.1615625 C37.3408594,37.4857031 37.0174219,37.8 36.6841406,38.1030469 Z" id="Shape"></path>
                    <path d="M34.5747656,39.7898437 L35.3819531,40.9415625 C35.774893,40.6659296 36.1592173,40.3782141 36.534375,40.0788281 L35.656875,38.9805469 C35.3053125,39.2610938 34.9439062,39.5310938 34.5747656,39.7898438 Z" id="Shape"></path>
                    <path d="M32.2685156,41.1911719 L32.9196094,42.4371094 C33.3452964,42.2147486 33.7636423,41.9786083 34.1739844,41.7290625 L33.4434375,40.5274219 C33.0595312,40.7608594 32.6671875,40.9823437 32.2685156,41.1911719 Z" id="Shape"></path>
                    <path d="M38.565,36.1610156 L39.6344531,37.074375 C39.9424219,36.7129687 40.2454687,36.3332812 40.5344531,35.9465625 L39.4066406,35.105625 C39.1379345,35.4667037 38.8572309,35.8186972 38.565,36.1610156 Z" id="Shape"></path>
                    <path d="M34.1008594,3.20835938 L33.3745312,4.4128125 C33.76125,4.64625 34.1402344,4.8909375 34.509375,5.14757812 L35.3116406,3.99234375 C34.9164628,3.71824193 34.5126648,3.45678156 34.1008594,3.20835938 Z" id="Shape"></path>
                    <path d="M41.5110937,31.6413281 L42.7774219,32.2523438 C42.98625,31.820625 43.1810156,31.3804687 43.3624219,30.9332812 L42.0588281,30.4045312 C41.8891855,30.822405 41.7065181,31.2348722 41.5110937,31.6413281 Z" id="Shape"></path>
                    <path d="M43.59375,22.3980469 L43.59375,22.4901562 C43.59375,22.944375 43.5789844,23.3950781 43.5508594,23.8415625 L44.9542969,23.9294531 C44.9847407,23.4505259 44.9999827,22.9707533 45,22.4908594 L45,22.39875 L43.59375,22.39875 L43.59375,22.3980469 Z" id="Shape"></path>
                    <path d="M40.1828906,33.9960938 L41.3613281,34.7646094 C41.6235937,34.3624219 41.8732031,33.9510938 42.1094531,33.5313281 L40.8846094,32.8408594 C40.6630267,33.2332895 40.4290019,33.6185629 40.1828906,33.9960938 Z" id="Shape"></path>
                    <path d="M43.2091406,26.521875 L44.589375,26.7883594 C44.6807813,26.319375 44.7567188,25.8440625 44.8178906,25.3652344 L43.4228906,25.1880469 C43.3656851,25.6347934 43.2943997,26.0796241 43.2091406,26.521875 Z" id="Shape"></path>
                    <path d="M42.5257031,29.1360937 L43.8602344,29.5769531 C44.0107031,29.1220312 44.1471094,28.6614844 44.2694531,28.1953125 L42.9082031,27.8395312 C42.795106,28.275838 42.6675355,28.7082643 42.5257031,29.1360937 Z" id="Shape"></path>
                    <path d="M29.8040625,42.2859375 L30.2899219,43.6057031 C30.7402754,43.4397224 31.1851193,43.2591584 31.62375,43.0642969 L31.0528125,41.7789844 C30.6435937,41.9610937 30.2266406,42.1305469 29.8040625,42.2859375 Z" id="Shape"></path>
                    <path d="M10.8576562,41.74875 C11.2682812,41.9976562 11.6880469,42.2339062 12.1155469,42.4560937 L12.7652344,41.2094531 C12.3654056,41.001146 11.9723893,40.7800157 11.5867969,40.5464062 L10.8576562,41.74875 Z" id="Shape"></path>
                    <path d="M8.49304687,40.0999219 C8.86851562,40.39875 9.25382812,40.6863281 9.64898437,40.9619531 L10.4540625,39.808125 C10.0842189,39.5503405 9.7226314,39.2809086 9.36984375,39.0002344 L8.49304687,40.0999219 Z" id="Shape"></path>
                    <path d="M27.2144531,43.0558594 L27.5259375,44.4269531 C27.9907031,44.3214844 28.4603906,44.1977344 28.9209375,44.060625 L28.5201562,42.7127344 C28.0905469,42.8407031 27.6553125,42.9553125 27.2144531,43.0558594 Z" id="Shape"></path>
                    <path d="M4.134375,32.8725 L2.9109375,33.564375 C3.14789062,33.9827344 3.3975,34.3933594 3.65976562,34.7948438 L4.83679687,34.0249219 C4.59070312,33.6494531 4.35585937,33.2655469 4.134375,32.8725 Z" id="Shape"></path>
                    <path d="M2.9559375,30.4439062 L1.65375,30.9747656 C1.83515625,31.4205469 2.030625,31.8585938 2.24015625,32.2903125 L3.50507812,31.6764844 C3.30890456,31.2715998 3.12576359,30.8605292 2.9559375,30.4439062 Z" id="Shape"></path>
                    <path d="M5.61234375,35.1316406 L4.4859375,35.9739844 C4.77351562,36.3585938 5.07445312,36.7340625 5.3859375,37.0989844 L6.45539062,36.185625 C6.16338278,35.843232 5.88222786,35.4917297 5.61234375,35.1316406 Z" id="Shape"></path>
                    <path d="M6.35695312,38.1649219 C6.69234375,38.5094531 7.03757812,38.8434375 7.39476562,39.1661719 L8.33835937,38.1241406 C8.00452615,37.8216923 7.68045414,37.5086416 7.36664062,37.1854688 L6.35695312,38.1649219 Z" id="Shape"></path>
                    <path d="M24.5467969,43.486875 L24.6825,44.8860937 C25.1606167,44.8401532 25.6371173,44.7787146 26.11125,44.701875 L25.8876562,43.3132031 C25.4446875,43.385625 24.9975,43.4432812 24.5467969,43.486875 Z" id="Shape"></path>
                    <path d="M21.8460937,43.5747656 L21.8032031,44.9803125 C22.283567,44.9950074 22.7642751,44.9945384 23.2446094,44.9789062 L23.1982031,43.5733594 C22.7496094,43.5874219 22.2953906,43.588125 21.8460937,43.5747656 Z" id="Shape"></path>
                    <path d="M16.1247656,44.0739844 C16.5856847,44.210309 17.0509326,44.3315455 17.5197656,44.4375 L17.8298437,43.0657031 C17.3905564,42.9665077 16.9546215,42.8530099 16.5227344,42.7253906 L16.1247656,44.0739844 Z" id="Shape"></path>
                    <path d="M13.4177344,43.081875 C13.8564844,43.2752344 14.3029687,43.4559375 14.7550781,43.621875 L15.2395313,42.3014062 C14.8148437,42.1453125 14.3957812,41.9765625 13.9844531,41.7951562 L13.4177344,43.081875 Z" id="Shape"></path>
                    <path d="M18.9365625,44.7103125 C19.4076563,44.7848437 19.884375,44.8453125 20.3653125,44.8910156 L20.4975,43.4910937 C20.0488801,43.4486877 19.6017057,43.3921754 19.1566406,43.3216406 L18.9365625,44.7103125 Z" id="Shape"></path>
                </g>
            </g>
        </g>
    </g>
</svg>