<?xml version="1.0" encoding="UTF-8"?>
<svg width="78px" height="86px" viewBox="0 0 78 86" version="1.1" xmlns="http://www.w3.org/2000/svg" xmlns:xlink="http://www.w3.org/1999/xlink">
    <!-- Generator: Sketch 49.1 (51147) - http://www.bohemiancoding.com/sketch -->
    <title>blog_btn</title>
    <desc>Created with Sketch.</desc>
    <defs>
        <filter x="-22.6%" y="-14.3%" width="145.2%" height="140.0%" filterUnits="objectBoundingBox" id="filter-1">
            <feOffset dx="0" dy="4" in="SourceAlpha" result="shadowOffsetOuter1"></feOffset>
            <feGaussianBlur stdDeviation="4" in="shadowOffsetOuter1" result="shadowBlurOuter1"></feGaussianBlur>
            <feColorMatrix values="0 0 0 0 0.0470588235   0 0 0 0 0   0 0 0 0 0.2  0 0 0 0.1 0" type="matrix" in="shadowBlurOuter1" result="shadowMatrixOuter1"></feColorMatrix>
            <feMerge>
                <feMergeNode in="shadowMatrixOuter1"></feMergeNode>
                <feMergeNode in="SourceGraphic"></feMergeNode>
            </feMerge>
        </filter>
    </defs>
    <g id="Assets" stroke="none" stroke-width="1" fill="none" fill-rule="evenodd">
        <g id="Artboard-3" transform="translate(-5.000000, -2.000000)" fill-rule="nonzero">
            <g id="blog_btn" filter="url(#filter-1)" transform="translate(13.000000, 6.000000)">
                <path d="M2.76195972,23.2949779 C-6.69250985,50.8525367 9.10248798,76.1297171 35.2555745,68.6789163 C38.3335711,67.8020202 54.1080308,58.6843238 56.2106575,54.1833051 C59.777721,46.547418 62.4891018,37.7573995 61.9256801,33.3852542 C57.8105494,1.45189395 28.8151822,-11.4096397 10.4904765,11.9569594 C8.79583617,14.1178662 4.82868133,18.6110446 3.38922607,21.3670674 C4.23261369,18.9751748 4.02352491,19.6178116 2.76195972,23.2949779 Z" id="Path-4" fill="#FFFFFF" transform="translate(31.000000, 35.000000) scale(-1, 1) translate(-31.000000, -35.000000) "></path>
                <g id="blog-commenting-seo-web-design" transform="translate(11.000000, 15.000000)" fill="#449694">
                    <path d="M39.3329824,19.3335929 L35.3330181,19.3335929 L35.3330181,0.666675617 C35.3330181,0.29848084 35.034544,0 34.6663574,0 L0.666660719,0 C0.298474171,0 0,0.29848084 0,0.666675617 L0,28.0003759 C0,29.8384006 1.49531999,31.3337539 3.3333036,31.3337539 L16.666518,31.3337539 L16.666518,36.0004833 C16.666518,36.368678 16.9649922,36.6671589 17.3331787,36.6671589 L30.5423942,36.6671589 L39.0929846,39.9565364 C39.3590545,40.0570843 39.6596065,39.9794088 39.8436446,39.7625337 C40.0267798,39.5446709 40.051416,39.2345707 39.9049773,38.9905234 L38.5109898,36.6671589 L39.3329824,36.6671589 C39.701169,36.6671589 39.9996432,36.368678 39.9996432,36.0004833 L39.9996432,20.0002685 C39.9996432,19.6320737 39.701169,19.3335929 39.3329824,19.3335929 Z M33.9996966,1.33335124 L33.9996966,5.33340493 L1.33332144,5.33340493 L1.33332144,1.33335124 L33.9996966,1.33335124 Z M16.666518,20.0002685 L16.666518,30.0004027 L3.3333036,30.0004027 C2.23064677,30.0004027 1.33332144,29.1030573 1.33332144,28.0003759 L1.33332144,6.66675617 L33.9996966,6.66675617 L33.9996966,19.3335929 L17.3331787,19.3335929 C16.9649922,19.3335929 16.666518,19.6320737 16.666518,20.0002685 Z M38.6663217,35.3338076 L37.3330003,35.3338076 C37.0931646,35.334419 36.8721031,35.4636878 36.7539581,35.6724107 C36.6358131,35.8811336 36.6387581,36.1372041 36.7616721,36.3431546 L37.7656631,38.0158436 L30.9063909,35.3771415 C30.8296105,35.3485197 30.7483346,35.3338446 30.6663931,35.3338076 L17.9998394,35.3338076 L17.9998394,20.6669441 L38.6663217,20.6669441 L38.6663217,35.3338076 Z" id="Shape"></path>
                    <polygon id="Shape" points="3 3 4 3 4 4 3 4"></polygon>
                    <polygon id="Shape" points="5 3 6 3 6 4 5 4"></polygon>
                    <polygon id="Shape" points="8 3 9 3 9 4 8 4"></polygon>
                    <path d="M13.3333334,9 L4.66666666,9 C4.29847683,9 4,9.28781694 4,9.64285714 L4,17.3571428 C4,17.712183 4.29847683,18 4.66666666,18 L13.3333334,18 C13.7015231,18 14,17.712183 14,17.3571428 L14,9.64285714 C14,9.28781694 13.7015231,9 13.3333334,9 Z M12.6666667,16.7142857 L5.33333333,16.7142857 L5.33333333,10.2857143 L12.6666667,10.2857143 L12.6666667,16.7142857 Z" id="Shape"></path>
                    <polygon id="Shape" points="15 9 31 9 31 10 15 10"></polygon>
                    <polygon id="Shape" points="15 11 31 11 31 12 15 12"></polygon>
                    <polygon id="Shape" points="15 14 31 14 31 15 15 15"></polygon>
                    <polygon id="Shape" points="15 17 31 17 31 18 15 18"></polygon>
                    <polygon id="Shape" points="4 19 14 19 14 20 4 20"></polygon>
                    <polygon id="Shape" points="4 22 14 22 14 23 4 23"></polygon>
                    <polygon id="Shape" points="4 25 14 25 14 26 4 26"></polygon>
                    <polygon id="Shape" points="4 28 14 28 14 29 4 29"></polygon>
                    <path d="M29,34 C32.3086666,34 35,31.3080001 35,28 C35,24.6919999 32.3086666,22 29,22 C25.6913334,22 23,24.6919999 23,28 C23,31.3080001 25.6913334,34 29,34 Z M29,23.3333333 C31.5726666,23.3333333 33.6666667,25.4266667 33.6666667,28 C33.6666667,30.5733333 31.5726666,32.6666667 29,32.6666667 C26.4273333,32.6666667 24.3333333,30.5733333 24.3333333,28 C24.3333333,25.4266667 26.4273333,23.3333333 29,23.3333333 Z" id="Shape"></path>
                    <polygon id="Shape" points="26 27 27 27 27 28 26 28"></polygon>
                    <polygon id="Shape" points="30 27 31 27 31 28 30 28"></polygon>
                    <path d="M29,32 C30.1026667,32 31,31.1026667 31,30 L29.6666667,30 C29.6507148,30.3566046 29.3569612,30.6375116 29,30.6375116 C28.6430388,30.6375116 28.3492852,30.3566046 28.3333333,30 L27,30 C27,31.1026667 27.8973333,32 29,32 Z" id="Shape"></path>
                </g>
            </g>
        </g>
    </g>
</svg>