<?xml version="1.0" encoding="UTF-8"?>
<svg width="78px" height="86px" viewBox="0 0 78 86" version="1.1" xmlns="http://www.w3.org/2000/svg" xmlns:xlink="http://www.w3.org/1999/xlink">
    <!-- Generator: Sketch 49.1 (51147) - http://www.bohemiancoding.com/sketch -->
    <title>buttons</title>
    <desc>Created with Sketch.</desc>
    <defs>
        <filter x="-22.6%" y="-14.3%" width="145.2%" height="140.0%" filterUnits="objectBoundingBox" id="filter-1">
            <feOffset dx="0" dy="4" in="SourceAlpha" result="shadowOffsetOuter1"></feOffset>
            <feGaussianBlur stdDeviation="4" in="shadowOffsetOuter1" result="shadowBlurOuter1"></feGaussianBlur>
            <feColorMatrix values="0 0 0 0 0.0470588235   0 0 0 0 0   0 0 0 0 0.2  0 0 0 0.1 0" type="matrix" in="shadowBlurOuter1" result="shadowMatrixOuter1"></feColorMatrix>
            <feMerge>
                <feMergeNode in="shadowMatrixOuter1"></feMergeNode>
                <feMergeNode in="SourceGraphic"></feMergeNode>
            </feMerge>
        </filter>
    </defs>
    <g id="Assets" stroke="none" stroke-width="1" fill="none" fill-rule="evenodd">
        <g id="Artboard-3" transform="translate(-5.000000, -2.000000)" fill-rule="nonzero">
            <g id="buttons" filter="url(#filter-1)" transform="translate(13.000000, 6.000000)">
                <g id="change_avatar_btn">
                    <path d="M2.76195972,23.2949779 C-6.69250985,50.8525367 9.10248798,76.1297171 35.2555745,68.6789163 C38.3335711,67.8020202 54.1080308,58.6843238 56.2106575,54.1833051 C59.777721,46.547418 62.4891018,37.7573995 61.9256801,33.3852542 C57.8105494,1.45189396 28.8151822,-11.4096397 10.4904765,11.9569594 C8.79583617,14.1178662 4.82868133,18.6110446 3.38922607,21.3670674 C4.23261369,18.9751748 4.02352491,19.6178116 2.76195972,23.2949779 Z" id="Path-4" fill="#FFFFFF" transform="translate(31.000000, 35.000000) scale(-1, 1) translate(-31.000000, -35.000000) "></path>
                    <g id="human-avatar-user-ui-account-round" transform="translate(8.000000, 13.000000)" fill="#449694">
                        <path d="M22.5,0 C10.0935,0 -1.40615431e-15,10.0935 -1.40615431e-15,22.5 C-0.00505495213,27.7274589 1.81878926,32.7919829 5.1555,36.816 C5.16375,36.82725 5.1645,36.8415 5.1735,36.852 C7.45999552,39.6119161 10.3728778,41.7855208 13.6695,43.19175 L13.78125,43.2405 C14.0445,43.3515 14.31075,43.45425 14.57775,43.55475 C14.68275,43.5945 14.78775,43.635 14.89425,43.67325 C15.272292,43.8087973 15.6539316,43.9340931 16.03875,44.049 C16.4266683,44.1664889 16.8181027,44.2720386 17.2125,44.3655 C17.39925,44.4105 17.58675,44.4555 17.775,44.49525 C17.985,44.54025 18.19725,44.58 18.41025,44.619 C18.58125,44.6505 18.7515,44.6835 18.924,44.71125 C19.16025,44.7495 19.398,44.7795 19.6365,44.81025 C19.79025,44.82975 19.94325,44.85225 20.09775,44.86875 C20.36775,44.89725 20.64,44.9175 20.913,44.93625 C21.03975,44.94525 21.16575,44.95875 21.29325,44.9655 C22.09758,45.0114571 22.9038635,45.0119579 23.70825,44.967 C23.83575,44.96025 23.96175,44.94675 24.0885,44.93775 C24.3615,44.91825 24.63375,44.89875 24.90375,44.87025 C25.05825,44.85375 25.21125,44.83125 25.365,44.81175 C25.6035,44.781 25.84125,44.751 26.0775,44.71275 C26.24925,44.685 26.42025,44.652 26.59125,44.6205 C26.8035,44.5815 27.01575,44.54175 27.2265,44.49675 C27.8105217,44.3693214 28.3896626,44.220471 28.96275,44.0505 C29.3475684,43.9355931 29.729208,43.8102973 30.10725,43.67475 C30.213,43.6365 30.318,43.596 30.42375,43.55625 C30.6915,43.45575 30.957,43.35225 31.22025,43.242 L31.332,43.19325 C34.6285058,41.7868185 37.5413437,39.613247 39.828,36.8535 C39.837,36.843 39.83775,36.828 39.846,36.8175 C43.1814413,32.7922751 45.0046257,27.727579 45,22.5 C45,10.0935 34.9065,0 22.5,0 Z M26.988,23.41275 C26.6925,23.60475 26.385,23.7765 26.06925,23.9265 C26.03175,23.9445 25.995,23.96325 25.9575,23.9805 C23.7583129,24.9682219 21.2416871,24.9682219 19.0425,23.9805 C19.005,23.96325 18.9675,23.9445 18.93075,23.9265 C18.6133949,23.7759126 18.3064607,23.60428 18.012,23.41275 C15.75075,21.93975 14.25,19.3935 14.25,16.5 C14.25,11.95125 17.95125,8.25 22.5,8.25 C27.04875,8.25 30.75,11.95125 30.75,16.5 C30.75,19.3935 29.24925,21.93975 26.988,23.41275 Z M17.733,24.99675 C17.796,25.032 17.85825,25.0695 17.922,25.10325 C18.1455,25.22175 18.372,25.33275 18.60375,25.4325 C18.7815,25.5105 18.96525,25.5765 19.14825,25.644 L19.25625,25.68375 C20.27325,26.04375 21.3615,26.25 22.5,26.25 C23.6385,26.25 24.72675,26.04375 25.743,25.68375 L25.851,25.644 C26.034,25.5765 26.21775,25.5105 26.3955,25.4325 C26.62725,25.33275 26.85375,25.22175 27.07725,25.10325 C27.141,25.06875 27.20325,25.032 27.26625,24.99675 C27.3735,24.93675 27.483,24.87975 27.588,24.81525 C32.868,26.52825 36.97125,30.83175 38.42175,36.1695 C36.5370455,38.3656502 34.2211484,40.1510762 31.61775,41.415 L31.58475,41.4315 C31.317,41.5605 31.04475,41.682 30.77025,41.8005 L30.58425,41.88 C30.2431879,42.0223689 29.8983099,42.1554182 29.55,42.279 C29.33325,42.35625 29.11575,42.4305 28.896,42.501 C28.7595,42.5445 28.62225,42.58575 28.485,42.62625 C28.29,42.68475 28.09425,42.741 27.89625,42.7935 C27.7293265,42.8372931 27.5618108,42.878797 27.39375,42.918 C27.2175,42.96 27.042,43.00275 26.86425,43.04025 C26.67,43.0815 26.47425,43.11675 26.27925,43.152 C26.121,43.18125 25.9635,43.212 25.80375,43.2375 C25.584,43.272 25.362,43.29975 25.14075,43.3275 C25.0005,43.3455 24.861,43.3665 24.71925,43.3815 C24.4665,43.4085 24.2115,43.42575 23.95725,43.44375 C23.844,43.45125 23.7315,43.464 23.61675,43.47 C22.8730128,43.509073 22.1277372,43.509073 21.384,43.47 C21.27,43.464 21.1575,43.452 21.0435,43.44375 C20.7885,43.4265 20.53425,43.4085 20.2815,43.3815 C20.13975,43.3665 20.00025,43.3455 19.86,43.3275 C19.63875,43.29975 19.41675,43.272 19.197,43.2375 C19.03725,43.212 18.87975,43.18125 18.7215,43.152 C18.5259862,43.1174917 18.330967,43.080238 18.1365,43.04025 C17.95875,43.00275 17.7825,42.96 17.607,42.918 C17.439,42.8775 17.271,42.83775 17.1045,42.7935 C16.9074854,42.7404774 16.7112165,42.684722 16.51575,42.62625 C16.3783038,42.5859783 16.2412959,42.5442259 16.10475,42.501 C15.7818439,42.3975486 15.4614993,42.2862657 15.144,42.16725 C14.8995,42.07575 14.6565,41.9805 14.4165,41.88 C14.35425,41.8545 14.2935,41.8275 14.23125,41.80125 C13.9456814,41.6790446 13.6628617,41.5505129 13.383,41.41575 C10.7792964,40.1523192 8.4633053,38.3668208 6.579,36.17025 C8.02875,30.83175 12.13275,26.52825 17.41275,24.816 C17.517,24.87975 17.62575,24.93675 17.733,24.99675 Z M39.54675,34.74225 C37.8285855,29.7003705 33.9735943,25.6733084 29.0115,23.73675 C30.99375,21.951 32.25,19.3725 32.25,16.5 C32.25,11.124 27.876,6.75 22.5,6.75 C17.124,6.75 12.75,11.124 12.75,16.5 C12.75,19.3725 14.00625,21.951 15.98925,23.73675 C11.03325,25.665 7.15425,29.72175 5.454,34.74225 C2.88013479,31.1794801 1.49641024,26.8952359 1.5,22.5 C1.5,10.92075 10.92075,1.5 22.5,1.5 C34.07925,1.5 43.5,10.92075 43.5,22.5 C43.5034501,26.8950967 42.1200252,31.1792258 39.54675,34.74225 Z" id="Shape"></path>
                    </g>
                </g>
            </g>
        </g>
    </g>
</svg>