<?xml version="1.0" encoding="UTF-8"?>
<svg width="135px" height="124px" viewBox="0 0 135 124" version="1.1" xmlns="http://www.w3.org/2000/svg" xmlns:xlink="http://www.w3.org/1999/xlink">
    <!-- Generator: Sketch 49.1 (51147) - http://www.bohemiancoding.com/sketch -->
    <title>share_to_blog_icn</title>
    <desc>Created with Sketch.</desc>
    <defs>
        <filter x="-11.8%" y="-8.8%" width="123.5%" height="124.8%" filterUnits="objectBoundingBox" id="filter-1">
            <feOffset dx="0" dy="4" in="SourceAlpha" result="shadowOffsetOuter1"></feOffset>
            <feGaussianBlur stdDeviation="4" in="shadowOffsetOuter1" result="shadowBlurOuter1"></feGaussianBlur>
            <feColorMatrix values="0 0 0 0 0.0470588235   0 0 0 0 0   0 0 0 0 0.2  0 0 0 0.1 0" type="matrix" in="shadowBlurOuter1" result="shadowMatrixOuter1"></feColorMatrix>
            <feMerge>
                <feMergeNode in="shadowMatrixOuter1"></feMergeNode>
                <feMergeNode in="SourceGraphic"></feMergeNode>
            </feMerge>
        </filter>
    </defs>
    <g id="Assets" stroke="none" stroke-width="1" fill="none" fill-rule="evenodd">
        <g id="Artboard-3" transform="translate(0.000000, -4.000000)">
            <g id="icon" filter="url(#filter-1)" transform="translate(8.000000, 8.000000)">
                <path d="M12.7376557,16.4722502 C69.8526279,-25.3873005 138.532161,18.316337 113.13945,82.7024917 C99.8116553,116.496658 35.9721986,123.834816 14.5050877,95.466184 C-1.73301266,74.0076519 -1.11516826,69.3902418 1.24759494,47.0880623 C2.82277042,32.2199426 6.65279065,22.0146719 12.7376557,16.4722502 Z" id="Path-6" fill="#449694"></path>
                <g id="stakeholder-shareholder-problem-solving-provider-party-stockholder" transform="translate(20.000000, 17.000000)" fill="#FFFFFF" fill-rule="nonzero">
                    <path d="M73.3333333,40 L72.6133333,40 C73.934368,38.5376853 74.6660065,36.6373255 74.6666667,34.6666666 C74.6666667,30.2546666 71.0786667,26.6666666 66.6666667,26.6666666 C62.2546667,26.6666666 58.6666667,30.2546666 58.6666667,34.6666666 C58.6673268,36.6373255 59.3989653,38.5376853 60.72,40 L54.6666667,40 C53.930287,40 53.3333333,39.4030463 53.3333333,38.6666666 L53.3333333,26.6666666 L70.6666667,26.6666666 C71.4030463,26.6666666 72,26.069713 72,25.3333333 L72,1.33333333 C72,0.596953666 71.4030463,0 70.6666667,0 L9.33333333,0 C8.59695367,0 8,0.596953666 8,1.33333333 L8,25.3333333 C8,26.069713 8.59695367,26.6666666 9.33333333,26.6666666 L26.6666667,26.6666666 L26.6666667,38.6666666 C26.6666667,39.4030463 26.069713,40 25.3333333,40 L19.28,40 C20.6010347,38.5376853 21.3326732,36.6373255 21.3333333,34.6666666 C21.3333333,30.2546666 17.7453333,26.6666666 13.3333333,26.6666666 C8.92133333,26.6666666 5.33333333,30.2546666 5.33333333,34.6666666 C5.33399348,36.6373255 6.065632,38.5376853 7.38666667,40 L6.66666667,40 C2.99066667,40 0,42.9906666 0,46.6666666 L0,58.6666666 C0,59.4030463 0.596953667,60 1.33333333,60 L5.04,60 L1.36,78.4053333 C1.28224876,78.7968064 1.38377474,79.2025312 1.63673722,79.5112487 C1.8896997,79.8199662 2.26754768,79.9992733 2.66666667,79.9999999 L9.33333333,79.9999999 C9.96195886,80.0001877 10.505322,79.5612747 10.6373333,78.9466666 L13.3333333,66.3626666 L16.0293333,78.9466666 C16.1613447,79.5612747 16.7047078,80.0001877 17.3333333,79.9999999 L24,79.9999999 C24.399119,79.9992733 24.776967,79.8199662 25.0299294,79.5112487 C25.2828919,79.2025312 25.3844179,78.7968064 25.3066667,78.4053333 L21.3333333,58.5346666 L21.3333333,48 L25.3333333,48 C30.4786667,48 34.6666667,43.812 34.6666667,38.6666666 L34.6666667,26.6666666 L45.3333333,26.6666666 L45.3333333,38.6666666 C45.3333333,43.812 49.5213333,48 54.6666667,48 L58.6666667,48 L58.6666667,58.5346666 L54.6933333,78.4039999 C54.6151278,78.7956726 54.7164425,79.2017841 54.9694586,79.5108252 C55.2224748,79.8198663 55.6005965,79.9993522 56,79.9999999 L62.6666667,79.9999999 C63.2952922,80.0001877 63.8386553,79.5612747 63.9706667,78.9466666 L66.6666667,66.3626666 L69.3626667,78.9466666 C69.494678,79.5612747 70.0380411,80.0001877 70.6666667,79.9999999 L77.3333333,79.9999999 C77.7324523,79.9992733 78.1103003,79.8199662 78.3632628,79.5112487 C78.6162253,79.2025312 78.7177512,78.7968064 78.64,78.4053333 L74.96,60 L78.6666667,60 C79.4030463,60 80,59.4030463 80,58.6666666 L80,46.6666666 C80,42.9906666 77.0093333,40 73.3333333,40 Z M61.3333333,34.6666666 C61.3333333,31.7253333 63.7253333,29.3333333 66.6666667,29.3333333 C69.608,29.3333333 72,31.7253333 72,34.6666666 C72,37.608 69.608,40 66.6666667,40 C63.7253333,40 61.3333333,37.608 61.3333333,34.6666666 Z M8,34.6666666 C8,31.7253333 10.392,29.3333333 13.3333333,29.3333333 C16.2746667,29.3333333 18.6666667,31.7253333 18.6666667,34.6666666 C18.6666667,37.608 16.2746667,40 13.3333333,40 C10.392,40 8,37.608 8,34.6666666 Z M32,38.6666666 C32,42.3426666 29.0093333,45.3333333 25.3333333,45.3333333 L20,45.3333333 C19.2636203,45.3333333 18.6666667,45.930287 18.6666667,46.6666666 L18.6666667,58.6666666 C18.6666667,58.7533333 18.676,58.8426666 18.6933333,58.928 L22.3733333,77.3333333 L18.4106667,77.3333333 L14.636,59.72 C14.503533,59.1061321 13.9606645,58.6679138 13.3326667,58.6679138 C12.7046688,58.6679138 12.1618003,59.1061321 12.0293333,59.72 L8.25466667,77.3333333 L4.29333333,77.3333333 L7.97333333,58.928 C7.99084591,58.8419856 7.99977858,58.7544454 8,58.6666666 L8,46.6666666 L5.33333333,46.6666666 L5.33333333,57.3333333 L2.66666667,57.3333333 L2.66666667,46.6666666 C2.66666667,44.4613333 4.46133333,42.6666666 6.66666667,42.6666666 L25.3333333,42.6666666 C27.5386667,42.6666666 29.3333333,40.872 29.3333333,38.6666666 L29.3333333,26.6666666 L32,26.6666666 L32,38.6666666 Z M38.6666667,16 L38.6666667,24 L10.6666667,24 L10.6666667,2.66666666 L38.6666667,2.66666666 L38.6666667,10.6666667 C38.6666667,11.4030463 39.2636203,12 40,12 L42.0733333,12 C42.5478997,11.9998641 42.9866265,11.7474946 43.2253333,11.3373333 C43.956,10.0826667 45.2426667,9.33333333 46.6666667,9.33333333 C48.872,9.33333333 50.6666667,11.128 50.6666667,13.3333333 C50.6666667,15.5386667 48.872,17.3333333 46.6666667,17.3333333 C45.2426667,17.3333333 43.956,16.584 43.2253333,15.3293333 C42.9864276,14.919372 42.5478268,14.667075 42.0733333,14.6666667 L40,14.6666667 C39.2636203,14.6666667 38.6666667,15.2636203 38.6666667,16 Z M41.3333333,17.3333333 L41.3613333,17.3333333 C42.6151233,19.0033626 44.5783921,19.9901778 46.6666667,20 C50.3426667,20 53.3333333,17.0093333 53.3333333,13.3333333 C53.3333333,9.65733333 50.3426667,6.66666666 46.6666667,6.66666666 C44.5826667,6.66666666 42.6133333,7.67199999 41.3613333,9.33333333 L41.3386667,2.66666666 L69.3333333,2.66666666 L69.3333333,24 L41.3333333,24 L41.3333333,17.3333333 Z M77.3333333,57.3333333 L74.6666667,57.3333333 L74.6666667,46.6666666 L72,46.6666666 L72,58.6666666 C72,58.7533333 72.0093333,58.8426666 72.0266667,58.928 L75.7066667,77.3333333 L71.744,77.3333333 L67.9693333,59.72 C67.8368663,59.1061321 67.2939979,58.6679138 66.666,58.6679138 C66.0380021,58.6679138 65.4951337,59.1061321 65.3626667,59.72 L61.588,77.3333333 L57.6266667,77.3333333 L61.308,58.928 C61.324,58.8426666 61.3333333,58.7533333 61.3333333,58.6666666 L61.3333333,46.6666666 C61.3333333,45.930287 60.7363797,45.3333333 60,45.3333333 L54.6666667,45.3333333 C50.9906667,45.3333333 48,42.3426666 48,38.6666666 L48,26.6666666 L50.6666667,26.6666666 L50.6666667,38.6666666 C50.6666667,40.872 52.4613333,42.6666666 54.6666667,42.6666666 L73.3333333,42.6666666 C75.5386667,42.6666666 77.3333333,44.4613333 77.3333333,46.6666666 L77.3333333,57.3333333 Z" id="Shape"></path>
                </g>
            </g>
        </g>
    </g>
</svg>