<?xml version="1.0" encoding="UTF-8"?>
<svg width="48px" height="60px" viewBox="0 0 48 60" version="1.1" xmlns="http://www.w3.org/2000/svg" xmlns:xlink="http://www.w3.org/1999/xlink">
    <!-- Generator: Sketch 49.1 (51147) - http://www.bohemiancoding.com/sketch -->
    <title>timer_icn</title>
    <desc>Created with Sketch.</desc>
    <defs></defs>
    <g id="Assets" stroke="none" stroke-width="1" fill="none" fill-rule="evenodd">
        <g id="Artboard-3" transform="translate(-20.000000, -11.000000)" fill="#FFFFFF" fill-rule="nonzero">
            <g id="timer_icn" transform="translate(20.000000, 11.000000)">
                <path d="M27,12.194 L27,10 L29,10 C29.5522847,10 30,9.55228475 30,9 L30,5 C30,4.44771525 29.5522847,4 29,4 L19,4 C18.4477153,4 18,4.44771525 18,5 L18,9 C18,9.55228475 18.4477153,10 19,10 L21,10 L21,12.194 C9.178,13.676 0,23.783 0,36 C0,49.233 10.767,60 24,60 C37.233,60 48,49.233 48,36 C48,23.783 38.822,13.676 27,12.194 Z M20,6 L28,6 L28,8 L20,8 L20,6 Z M23,10 L25,10 L25,12.025 C24.668,12.012 24.335,12 24,12 C23.665,12 23.332,12.012 23,12.025 L23,10 Z M24,58 C11.869,58 2,48.131 2,36 C2,23.869 11.869,14 24,14 C36.131,14 46,23.869 46,36 C46,48.131 36.131,58 24,58 Z" id="Shape"></path>
                <path d="M24,16 C12.972,16 4,24.972 4,36 C4,47.028 12.972,56 24,56 C35.028,56 44,47.028 44,36 C44,24.972 35.028,16 24,16 Z M24,54 C14.075,54 6,45.925 6,36 C6,26.075 14.075,18 24,18 C33.925,18 42,26.075 42,36 C42,45.925 33.925,54 24,54 Z" id="Shape"></path>
                <path d="M25,20 C24.4477153,20 24,20.4477153 24,21 L24,35 C24,35.5522847 24.4477153,36 25,36 L39,36 C39.5522847,36 40,35.5522847 40,35 C40,27.009 32.991,20 25,20 Z M26,34 L26,22.042 C32.541,22.588 37.42,28.422 37.952,34 L26,34 Z" id="Shape"></path>
                <polygon id="Shape" points="40.293 15.707 41.707 14.293 45.707 18.293 44.293 19.707"></polygon>
                <polygon id="Shape" points="19 0 21 0 21 2 19 2"></polygon>
                <polygon id="Shape" points="23 0 25 0 25 2 23 2"></polygon>
                <polygon id="Shape" points="27 0 29 0 29 2 27 2"></polygon>
            </g>
        </g>
    </g>
</svg>