<?xml version="1.0" encoding="UTF-8"?>
<svg width="376px" height="410px" viewBox="0 0 376 410" version="1.1" xmlns="http://www.w3.org/2000/svg" xmlns:xlink="http://www.w3.org/1999/xlink">
    <!-- Generator: Sketch 49.1 (51147) - http://www.bohemiancoding.com/sketch -->
    <title>zigzag_stim_how_to_bg</title>
    <desc>Created with Sketch.</desc>
    <defs></defs>
    <g id="Assets" stroke="none" stroke-width="1" fill="none" fill-rule="evenodd">
        <g id="Artboard-2" transform="translate(-505.000000, -131.000000)" fill="#FCFCFA">
            <polygon id="zigzag_stim_how_to_bg" points="880 508 881 508 881 520.437024 865.980027 540.983565 852.91424 520.437024 839.848454 540.983565 826.782668 520.437024 813.716882 540.983565 800.651096 520.437024 787.585309 540.983565 774.519523 520.437024 761.453741 540.983558 748.398407 520.453453 735.332617 541 722.260767 520.443923 709.390159 540.683538 697.170069 521.466892 684.104283 539.793727 672.606391 521.466892 661.108499 539.793727 649.087975 521.466892 638.635347 539.750937 627.137455 521.466892 615.639563 539.793727 604.553737 521.466892 592.643779 539.750937 580.638044 521.245196 569.125364 539.750937 557.627472 521.466892 546.12958 539.750937 533.586425 521.466892 520.520639 540.983565 505 521.245196 505 131.024348 520.520639 141.657813 533.586425 131.14378 546.12958 140.993771 557.627472 131.14378 569.125364 140.993771 580.638044 131.024348 592.643779 140.993771 604.553737 131.14378 615.639563 141.016823 627.137455 131.14378 638.635347 140.993771 649.087975 131.14378 661.108499 141.016823 672.606391 131.14378 684.104283 141.016823 697.170069 131.14378 709.390159 141.496182 721.779969 131 722.741565 131 735.332617 141.666667 747.923669 131 748.873145 131 761.453741 141.657809 774.034338 131 775.004709 131 787.585309 141.657813 800.16591 131 801.136281 131 813.716882 141.657813 826.297482 131 827.267854 131 839.848454 141.657813 852.429055 131 853.399426 131 865.980027 141.657813 880 131.325911"></polygon>
        </g>
    </g>
</svg>