<?xml version="1.0" encoding="UTF-8"?>
<svg width="21px" height="38px" viewBox="0 0 21 38" version="1.1" xmlns="http://www.w3.org/2000/svg" xmlns:xlink="http://www.w3.org/1999/xlink">
    <!-- Generator: Sketch 49.1 (51147) - http://www.bohemiancoding.com/sketch -->
    <title>back_btn_white</title>
    <desc>Created with Sketch.</desc>
    <defs></defs>
    <g id="Assets" stroke="none" stroke-width="1" fill="none" fill-rule="evenodd">
        <g id="Artboard-3" transform="translate(-33.000000, -22.000000)" fill="#FFFFFF" fill-rule="nonzero">
            <g id="back_btn_white" transform="translate(33.000000, 22.000000)">
                <g id="back_icn">
                    <path d="M18.6620265,0.66135849 L0.402303202,17.9464554 C-0.134101067,18.4542287 -0.134101067,19.2773285 0.402303202,19.7851018 L18.6620265,37.0701987 C19.2067828,37.5858782 20.0595894,37.5858782 20.6043457,37.0701987 L20.6043457,37.0701987 C21.1120834,36.5895618 21.134053,35.7883259 20.6534162,35.2805882 C20.6375163,35.2637917 20.6211591,35.2474342 20.604363,35.231534 L3.31646878,18.8657786 L20.604363,2.50002316 C21.1120917,2.01937676 21.1340462,1.21814043 20.6533998,0.710411715 C20.6374996,0.693615599 20.6211421,0.677258383 20.6043457,0.66135849 L20.6043457,0.66135849 C20.0595894,0.145678982 19.2067828,0.145678982 18.6620265,0.66135849 Z" id="Shape"></path>
                </g>
            </g>
        </g>
    </g>
</svg>