<?xml version="1.0" encoding="UTF-8"?>
<svg width="345px" height="187px" viewBox="0 0 345 187" version="1.1" xmlns="http://www.w3.org/2000/svg" xmlns:xlink="http://www.w3.org/1999/xlink">
    <!-- Generator: Sketch 49.1 (51147) - http://www.bohemiancoding.com/sketch -->
    <title>zigzag_moodboard_card</title>
    <desc>Created with Sketch.</desc>
    <defs></defs>
    <g id="Assets" stroke="none" stroke-width="1" fill="none" fill-rule="evenodd">
        <g id="Artboard-2" transform="translate(-505.000000, -684.000000)" fill="#FFFFFF">
            <path d="M850,684.38924 L850,866.839289 C850,869.048428 848.209139,870.839289 846,870.839289 L509,870.839289 C506.790861,870.839289 505,869.048428 505,866.839289 L505,684.211612 L519.28229,689.379905 L531.305594,684.269661 L542.847965,689.057154 L553.428472,684.269661 L564.008978,689.057154 L574.603094,684.211612 L585.650924,689.057154 L596.61062,684.269661 L606.811938,689.068358 L617.392445,684.269661 L627.972952,689.057154 L637.591594,684.269661 L648.653033,689.068358 L659.23354,684.269661 L669.814047,689.068358 L681.837351,684.269661 L693.082433,689.301346 L704.926131,684.001806 L716.955015,689.384209 L728.978321,684.004302 L740.992006,689.379904 L753.015306,684 L765.038609,689.379905 L777.061912,684 L789.085216,689.379905 L801.108519,684 L813.131822,689.379905 L825.155125,684 L837.178429,689.379905 L850,684.38924 Z" id="zigzag_moodboard_card"></path>
        </g>
    </g>
</svg>