<?xml version="1.0" encoding="UTF-8"?>
<svg width="346px" height="13px" viewBox="0 0 346 13" version="1.1" xmlns="http://www.w3.org/2000/svg" xmlns:xlink="http://www.w3.org/1999/xlink">
    <!-- Generator: Sketch 49.1 (51147) - http://www.bohemiancoding.com/sketch -->
    <title>divider_zigzag_grey</title>
    <desc>Created with Sketch.</desc>
    <defs></defs>
    <g id="Assets" stroke="none" stroke-width="1" fill="none" fill-rule="evenodd">
        <g id="Artboard-3" transform="translate(-31.000000, -18.000000)" stroke="#979797">
            <polyline id="divider_zigzag_grey" points="31 19.4323253 45.2822903 29.9912083 57.3055936 19.55092 68.8479647 29.3318235 79.4284716 19.55092 90.0089784 29.3318235 100.603094 19.4323253 111.650924 29.3318235 122.61062 19.55092 132.811938 29.354714 143.392445 19.55092 153.972952 29.3318235 163.591594 19.55092 174.653033 29.354714 185.23354 19.55092 195.814047 29.354714 207.837351 19.55092 219.082433 29.8307112 230.926131 19.0036907 242.955015 30 254.978321 19.0087889 266.992006 29.9912047 279.015306 19 291.038609 29.9912083 303.061912 19 315.085216 29.9912083 327.108519 19 339.131822 29.9912083 351.155125 19 363.178429 29.9912083 377 19"></polyline>
        </g>
    </g>
</svg>