<?xml version="1.0" encoding="UTF-8"?>
<svg width="48px" height="48px" viewBox="0 0 48 48" version="1.1" xmlns="http://www.w3.org/2000/svg" xmlns:xlink="http://www.w3.org/1999/xlink">
    <!-- Generator: Sketch 49.1 (51147) - http://www.bohemiancoding.com/sketch -->
    <title>moodboard_icn</title>
    <desc>Created with Sketch.</desc>
    <defs></defs>
    <g id="Assets" stroke="none" stroke-width="1" fill="none" fill-rule="evenodd">
        <g id="Artboard-3" transform="translate(-20.000000, -17.000000)" fill="#FFFFFF" fill-rule="nonzero">
            <g id="moodboard_icn" transform="translate(44.000000, 41.000000) scale(-1, 1) translate(-44.000000, -41.000000) translate(20.000000, 17.000000)">
                <g id="searching-love-magnifier-looking-dating">
                    <path d="M15.2,3.14754098 C8.5832,3.14754098 3.2,8.4424918 3.2,14.9508197 C3.2,21.4591475 8.5832,26.7540984 15.2,26.7540984 C21.8168,26.7540984 27.2,21.4591475 27.2,14.9508197 C27.2,8.4424918 21.8168,3.14754098 15.2,3.14754098 Z M15.2,25.1803279 C9.4656,25.1803279 4.8,20.5912131 4.8,14.9508197 C4.8,9.31042623 9.4656,4.72131148 15.2,4.72131148 C20.9344,4.72131148 25.6,9.31042623 25.6,14.9508197 C25.6,20.5912131 20.9344,25.1803279 15.2,25.1803279 Z" id="Shape"></path>
                    <path d="M34.1656,29.3453115 C34.0156821,29.1976002 33.8121965,29.1145958 33.6,29.1145958 C33.3878035,29.1145958 33.1843179,29.1976002 33.0344,29.3453115 L32,30.3627541 L26.4816,24.9348197 C28.9088,22.2845902 30.4,18.7900328 30.4,14.9508197 C30.4,6.70662295 23.5816,0 15.2,0 C6.8184,0 0,6.70662295 0,14.9508197 C0,23.1950164 6.8184,29.9016393 15.2,29.9016393 C19.1032,29.9016393 22.656,28.4348852 25.3504,26.0474754 L30.8688,31.4754098 L29.8344,32.4928525 C29.6842269,32.6403127 29.5998391,32.8404625 29.5998391,33.0491803 C29.5998391,33.2578982 29.6842269,33.4580479 29.8344,33.6055082 L43.4344,46.9825574 C43.5841081,47.1306565 43.7876723,47.2139291 44,47.2139291 C44.2123277,47.2139291 44.4158919,47.1306565 44.5656,46.9825574 L47.7656,43.8350164 C47.9157731,43.6875561 48.0001609,43.4874064 48.0001609,43.2786885 C48.0001609,43.0699707 47.9157731,42.8698209 47.7656,42.7223607 L34.1656,29.3453115 Z M15.2,28.3278689 C7.7008,28.3278689 1.6,22.327082 1.6,14.9508197 C1.6,7.57455738 7.7008,1.57377049 15.2,1.57377049 C22.6992,1.57377049 28.8,7.57455738 28.8,14.9508197 C28.8,22.327082 22.6992,28.3278689 15.2,28.3278689 Z M44,45.3135738 L31.5312,33.0491803 L33.6,31.0142951 L46.0688,43.2786885 L44,45.3135738 Z" id="Shape"></path>
                    <path d="M18.4,10.2295082 C17.1404589,10.2296933 15.954666,10.8137449 15.2,11.8056393 C14.445334,10.8137449 13.2595411,10.2296933 12,10.2295082 C9.7944,10.2295082 8,11.9944918 8,14.1639344 C8,16.333377 9.7944,18.0983607 12,18.0983607 C13.3232,18.0983607 14.4,19.1575082 14.4,20.4590164 C14.4,20.8936011 14.7581722,21.2459016 15.2,21.2459016 C15.6418278,21.2459016 16,20.8936011 16,20.4590164 C16,19.1575082 17.0768,18.0983607 18.4,18.0983607 C20.6056,18.0983607 22.4,16.333377 22.4,14.1639344 C22.4,11.9944918 20.6056,10.2295082 18.4,10.2295082 Z M18.4,16.5245902 C17.1404589,16.5247753 15.954666,17.1088268 15.2,18.1007213 C14.445334,17.1088268 13.2595411,16.5247753 12,16.5245902 C10.6768,16.5245902 9.6,15.4654426 9.6,14.1639344 C9.6,12.8624262 10.6768,11.8032787 12,11.8032787 C13.3232,11.8032787 14.4,12.8624262 14.4,14.1639344 C14.4,14.5985191 14.7581722,14.9508197 15.2,14.9508197 C15.6418278,14.9508197 16,14.5985191 16,14.1639344 C16,12.8624262 17.0768,11.8032787 18.4,11.8032787 C19.7232,11.8032787 20.8,12.8624262 20.8,14.1639344 C20.8,15.4654426 19.7232,16.5245902 18.4,16.5245902 Z" id="Shape"></path>
                </g>
            </g>
        </g>
    </g>
</svg>