<?xml version="1.0" encoding="UTF-8"?>
<svg width="17px" height="10px" viewBox="0 0 17 10" version="1.1" xmlns="http://www.w3.org/2000/svg" xmlns:xlink="http://www.w3.org/1999/xlink">
    <!-- Generator: Sketch 49.1 (51147) - http://www.bohemiancoding.com/sketch -->
    <title>up_icn</title>
    <desc>Created with Sketch.</desc>
    <defs></defs>
    <g id="Assets" stroke="none" stroke-width="1" fill="none" fill-rule="evenodd">
        <g id="Artboard-4" transform="translate(-18.000000, -19.000000)" fill="#449694" fill-rule="nonzero">
            <g id="up_icn" transform="translate(26.500000, 24.000000) rotate(-270.000000) translate(-26.500000, -24.000000) translate(21.500000, 14.500000)">
                <path d="M8.88667929,1.17682885 L0.191572953,9.07967986 C-0.0638576511,9.31183688 -0.0638576511,9.68816312 0.191572953,9.92032014 L8.88667929,17.8231712 C9.14891866,18.0615166 9.54935381,18.0615166 9.81159318,17.8231712 L9.81159318,17.8231712 C10.043734,17.6121819 10.0608807,17.2529541 9.84989141,17.0208133 C9.83774399,17.0074481 9.82496602,16.9946699 9.81160105,16.9825222 L1.57927085,9.5 L9.81160105,2.01747779 C10.0437379,1.8064842 10.0608778,1.44725602 9.84988426,1.2151192 C9.83773658,1.20175424 9.82495838,1.18897627 9.81159318,1.17682885 L9.81159318,1.17682885 C9.54935381,0.938483439 9.14891866,0.938483439 8.88667929,1.17682885 Z" id="Shape"></path>
            </g>
        </g>
    </g>
</svg>