<svg viewBox="0 0 190 200" xmlns="http://www.w3.org/2000/svg" xmlns:xlink="http://www.w3.org/1999/xlink">
  <defs>
    <filter x="-13.1%" y="-7.9%" width="126.2%" height="124.9%" filterUnits="objectBoundingBox" id="filter-1">
      <feOffset dy="4" in="SourceAlpha" result="shadowOffsetOuter1"/>
      <feGaussianBlur stdDeviation="4" in="shadowOffsetOuter1" result="shadowBlurOuter1"/>
      <feColorMatrix values="0 0 0 0 0.0470588235 0 0 0 0 0 0 0 0 0 0.2 0 0 0 0.1 0" in="shadowBlurOuter1" result="shadowMatrixOuter1"/>
      <feMerge>
        <feMergeNode in="shadowMatrixOuter1"/>
        <feMergeNode in="SourceGraphic"/>
      </feMerge>
    </filter>
    <linearGradient x1="0%" y1="0%" y2="100%" id="linearGradient-2">
      <stop stop-color="#264652" offset="0%"/>
      <stop stop-color="#47B1C9" offset="52.983%"/>
      <stop stop-color="#FF8497" offset="100%"/>
    </linearGradient>
    <path d="M5.003 56.622c-26.33 77.394 56.346 137.08 129.18 116.155 23.114-6.64 36.005-55.05 33.511-74.567C155.174.234 54.107-40.229 6.75 51.208c2.349-6.718 1.766-4.913-1.747 5.414z" id="path-3"/>
    <filter x="-8.3%" y="-5.6%" width="116.7%" height="115.8%" filterUnits="objectBoundingBox" id="filter-5">
      <feOffset dy="4" in="SourceAlpha" result="shadowOffsetOuter1"/>
      <feGaussianBlur stdDeviation="4" in="shadowOffsetOuter1" result="shadowBlurOuter1"/>
      <feComposite in="shadowBlurOuter1" in2="SourceAlpha" operator="out" result="shadowBlurOuter1"/>
      <feColorMatrix values="0 0 0 0 0.0470588235 0 0 0 0 0 0 0 0 0 0.2 0 0 0 0.1 0" in="shadowBlurOuter1"/>
    </filter>
  </defs>
  <g id="Assets" fill="none" fill-rule="evenodd">
    <g id="avatars_heads" transform="translate(-9 -329)">
      <g id="charachter" filter="url(#filter-1)" transform="translate(20 333)">
        <mask id="mask-4" fill="#fff">
          <use xlink:href="#path-3"/>
        </mask>
        <g id="Mask">
          <use fill="#000" filter="url(#filter-5)" xlink:href="#path-3"/>
          <use fill-opacity=".66" fill="url(#linearGradient-2)" xlink:href="#path-3"/>
        </g>
        <g id="avatar_3" mask="url(#mask-4)">
          <g transform="translate(9 22)">
            <g id="top" transform="translate(8 89)">
              <path d="M106.67 11.365c4.98 4.185 12.74 80.598 16.052 134.087.72 11.624-8.12 21.63-19.744 22.35-.676.042-1.354.051-2.032.028l-65.763-2.274c-8.831-.305-15.743-7.712-15.438-16.543a16 16 0 0 1 .12-1.477c5.691-44.494 8.483-67.952 8.377-70.375-.166-3.762-4.281-57.05 3.597-63.293 13.294-10.536 70.263-6.342 74.831-2.503z" id="shirt" fill="#FBE7E9"/>
              <g id="sleeve" transform="translate(0 10.94)" fill="#8295B5">
                <path d="M36.156.39C25.276 5 18.831 10.286 16.824 16.246 14.816 22.205 9.372 45.423.49 85.897c-.655 7.885-.655 13.645 0 17.28.655 3.635 1.55 14.976 2.688 34.025h30.468L36.157.39z" id="Path-16"/>
              </g>
              <g id="gilet_left" transform="translate(17 .995)" fill="#445B67">
                <path d="M30.16 175.43c-1.04 1.913-3.51 3.31-7.406 4.194L.988 167.53l.52-4.711c-.335-.486 3.373-32.05 4.82-43.61l4.86-43.98c-.497-8.09-3.83-56.428 3.651-62.357C19.373 9.28 28.986 7.4 39.87 6.635c2.151-.151 2.155 10.648 3.571 13.032 5.207 8.768 2.426 57.261-8.344 145.48-2.35 5.13-3.995 8.557-4.935 10.283z" id="Combined-Shape"/>
                <path d="M42.506 0c-1.35 3.111-1.82 5.558-1.411 7.339.408 1.78 2.642 7.023 6.701 15.726 1.388 35.954 1.388 62.513 0 79.677-1.387 17.164-5.737 44.422-13.05 81.774l-11.992-4.892c3.896-.884 6.365-2.281 7.407-4.194 1.042-1.913 2.57-7.853 4.585-17.823l10.229-129.65c-4.855-6.416-7.442-11.425-7.76-15.027-.318-3.602 1.446-7.912 5.29-12.93z" id="Path-31"/>
              </g>
              <g id="gilet_right" transform="matrix(-1 0 0 1 141.4 .597)">
                <g id="sleeve" transform="translate(0 9.945)" fill="#8295B5">
                  <path d="M36.156.39C25.276 5 18.831 10.286 16.824 16.246 14.816 22.205 9.372 45.423.49 85.897c-.655 7.885-.655 13.645 0 17.28.655 3.635 1.55 14.976 2.688 34.025h30.468L36.157.39z" id="Path-16"/>
                </g>
                <g id="gilet" transform="translate(18)" fill="#445B67">
                  <path d="M29.174 175.81c-1.042 1.914-3.51 3.312-7.407 4.195L0 167.91l.52-4.712c-.335-.487 3.373-32.06 4.82-43.623l4.86-43.995c-.497-8.091-3.829-56.446 3.652-62.376C18.386 9.61 28 7.728 38.882 6.963c2.152-.151 2.156 10.651 3.572 13.036 5.208 8.77 2.426 57.279-8.344 145.525-2.35 5.132-3.996 8.56-4.936 10.287z" id="Combined-Shape"/>
                  <path d="M41.689 0c-1.345 3.12-1.814 5.572-1.406 7.357.407 1.786 2.634 7.04 6.68 15.765 1.383 36.044 1.383 62.67 0 79.877-1.383 17.207-5.72 44.534-13.009 81.979L22 180.073c3.884-.885 6.345-2.286 7.383-4.204 1.039-1.917 2.562-7.873 4.571-17.867L44.15 28.027c-4.84-6.432-7.418-11.454-7.735-15.065C36.098 9.352 37.856 5.031 41.69 0z" id="Path-31"/>
                </g>
              </g>
            </g>
            <g id="scarf" transform="rotate(-16 345.172 45.789)" stroke="#7FB7B5" fill="#8D4763">
              <path d="M50.249 9.868C55.716 3.668 60.947.378 65.94 0c1.517 4.4 2.348 7.45 2.492 9.147.168 1.994-1.773 3.858-1.469 5.145.899 3.798 2.945 9.13 6.14 15.993-4.77 7.63-7.84 13.3-9.21 17.013-1.37 3.713-13.991 40.576-37.865 110.59-6.762.845-11.538.845-14.327 0-2.79-.845-3.7-2.32-2.73-4.424l31.043-85.069-33.09 87.791c-1.378 1.653-2.358 2.624-2.94 2.914-.582.29-1.648.34-3.2.149-1.047-12.928-1.047-23.136 0-30.625 1.048-7.488 3.777-16.79 8.188-27.902 4.346-14.373 8.099-25.035 11.257-31.986 3.158-6.951 13.164-26.574 30.019-58.868z" id="Path-6"/>
              <path d="M79.35 28.033c3.548-8.02 5.895-17.65 8.686-15.899 2.51 1.576 3.401 10.6 1.663 18.499a2.64 2.64 0 0 1 1.23.39c4 2.51.2 15.866-8.487 29.83-3.968 6.378-8.214 16.967-12.097 20.715-1.623 1.567-3.678 2.476-5.755 2.938-5.702 11.167-9.85 19.916-12.445 26.246-2.805 6.844-4.298 18.246-4.478 34.208-.01 1.693-.122 2.83-.338 3.413-.217.582-.78 1.265-1.69 2.048-1.525-1.457-2.878-2.14-4.058-2.048-1.18.092-2.758 1.002-4.733 2.73l5.452-31.625-5.452 29.577c-1.503.91-2.63 1.366-3.381 1.366-.752 0-1.991-.455-3.72-1.366l15.974-69.701c1.87-7.804 5.364-15.199 10.481-22.184 4.837-6.603 12.552-16.315 23.147-29.137z" id="Combined-Shape"/>
            </g>
            <g id="body_change_colour" transform="translate(42 17)">
              <path d="M4.248 28.1c-.567-3.14-1.138-6.195-.265-8.676C8.455 6.704 22.438.046 35.069.046 45.43.046 57.822-1.08 63.24 7.797c2.386 3.91 2.328 11.873 2.12 18.915 1.553 1.04 2.64 3.438 2.64 6.23 0 3.043-1.292 5.619-3.072 6.477-.636 6.63-2.472 12.771-5.67 18.344-3.365 5.86-8.06 10.13-13.383 12.568.234.684.35 1.422.322 2.187l-.406 11.553c-.12 3.386-2.982 6.036-6.394 5.918l-8.287-.287c-3.412-.119-6.082-2.96-5.962-6.347l.406-11.552a6.13 6.13 0 0 1 .136-1.09C15.492 66.271 7.693 54.865 5.545 41.414a2.946 2.946 0 0 1-1.174.247C1.957 41.661 0 38.625 0 34.88c0-3.681 1.89-6.678 4.248-6.78z" id="head" fill="#EDB597"/>
            </g>
            <g id="scarf_part_2" transform="translate(57 84)">
              <path d="M30 21c5.126-8.203 5.894-14.85 2.453-17-2.225-1.39-.97 4.557-3.453 11-1.357 3.523-8.188 5.84-10 8.74-.04.065-3.82 17.413-2 19.26 2.768 2.81 9.907-17.05 13-22z" id="Oval-10" fill="#8D4763"/>
              <path d="M19 23v.74C16.454 35.35 15.787 41.77 17 43" id="Oval-10" stroke="#7FB7B5"/>
              <path d="M5.2.4c1.51 6.713 3.177 11.38 5 14 1.823 2.62 4.756 5.487 8.8 8.6-.961.6-1.628.933-2 1-.372.067-5.972.867-16.8 2.4l5-26z" id="Path-11" fill="#8D4763"/>
            </g>
            <g id="face" transform="translate(68 47)">
              <path d="M17.65 4.143c2.517 12.608 7.253 17.027-4.13 16.535" id="Path-9" stroke="#55383C"/>
              <path d="M6.24 25.893c8.801 3.875 4.621 3.872 12.48 1.389" id="Path-8" stroke="#CC5C61"/>
              <g id="eyes" fill="#55383C">
                <ellipse id="eye" cx="23.92" cy="2.071" rx="2.08" ry="2.071"/>
                <ellipse id="eye" cx="2.08" cy="2.071" rx="2.08" ry="2.071"/>
              </g>
            </g>
            <g id="hair" transform="translate(37)">
              <path d="M67 31c.998 1.179 1.664 8.179 2 21 1-4.487 1.587-7.487 1.763-9 .333-2.864-.283-4.015 0-5.8.099-.62.177-1.59.237-2.2.168-1.693.089-4.026-.237-7-3.022 1.393-4.277 2.393-3.763 3zM5.892 46.676c1.768.698 3.037 1.502 3.808 2.412.998 1.18 2.164 4.817 3.5 10.912.149-6.56.149-11.56 0-15-.149-3.44.184-6.44 1-9-3.385 1.127-5.718 2.156-7 3.088-1.202.874-2.156 2.98-2.862 6.316-.047.223 1.033 1.067 1.554 1.272z" id="Path-13" fill="#87857C"/>
              <path d="M35.698 0c-9.746 2.403-16.223 4.736-19.431 7-2.832 1.998-7.32 6.908-13.465 14.73a13 13 0 0 0-2.77 7.621C-.051 31.97.028 33.852.267 35 .622 36.707 2.533 41.707 6 50c-.117-2.448-.029-4.114.267-5 .295-.886 1.295-2.552 3-5l2 2c.631.632 1.631 1.965 3 4-.59-.016-.59-1.349 0-4 .589-2.651 1.922-4.318 4-5l2 5c.582-2.3 1.248-3.967 2-5 .751-1.033 2.751-3.033 6-6l-3 8c7.865-8.346 13.865-13.346 18-15 4.134-1.654 9.468-1.654 16 0-1.074 1.222-1.74 2.222-2 3s-.593 2.778-1 6c1.078-1.662 1.911-2.662 2.5-3 2.711-1.556 4.597-1.075 5.233-1 1.265.149 2.568 1.792 3 3 .288.806 1.621 4.472 4 11l1.267-23c-5.36-8.229-9.694-13.229-13-15-3.307-1.771-7.973-2.771-14-3l-9.57-2z" id="Path-12" fill="#FAF389"/>
            </g>
          </g>
        </g>
      </g>
    </g>
  </g>
</svg>
