<svg viewBox="0 0 190 200" xmlns="http://www.w3.org/2000/svg" xmlns:xlink="http://www.w3.org/1999/xlink">
  <defs>
    <filter x="-13.1%" y="-7.9%" width="126.2%" height="124.9%" filterUnits="objectBoundingBox" id="filter-1">
      <feOffset dy="4" in="SourceAlpha" result="shadowOffsetOuter1"/>
      <feGaussianBlur stdDeviation="4" in="shadowOffsetOuter1" result="shadowBlurOuter1"/>
      <feColorMatrix values="0 0 0 0 0.0470588235 0 0 0 0 0 0 0 0 0 0.2 0 0 0 0.1 0" in="shadowBlurOuter1" result="shadowMatrixOuter1"/>
      <feMerge>
        <feMergeNode in="shadowMatrixOuter1"/>
        <feMergeNode in="SourceGraphic"/>
      </feMerge>
    </filter>
    <linearGradient x1="0%" y1="0%" y2="100%" id="linearGradient-2">
      <stop stop-color="#9155C7" offset="0%"/>
      <stop stop-color="#C965A6" offset="52.983%"/>
      <stop stop-color="#FF8077" offset="100%"/>
    </linearGradient>
    <path d="M5.003 56.622c-26.33 77.394 56.346 137.08 129.18 116.155 23.114-6.64 36.005-55.05 33.511-74.567C155.174.234 54.107-40.229 6.75 51.208c2.349-6.718 1.766-4.913-1.747 5.414z" id="path-3"/>
    <filter x="-8.3%" y="-5.6%" width="116.7%" height="115.8%" filterUnits="objectBoundingBox" id="filter-5">
      <feOffset dy="4" in="SourceAlpha" result="shadowOffsetOuter1"/>
      <feGaussianBlur stdDeviation="4" in="shadowOffsetOuter1" result="shadowBlurOuter1"/>
      <feComposite in="shadowBlurOuter1" in2="SourceAlpha" operator="out" result="shadowBlurOuter1"/>
      <feColorMatrix values="0 0 0 0 0.0470588235 0 0 0 0 0 0 0 0 0 0.2 0 0 0 0.1 0" in="shadowBlurOuter1"/>
    </filter>
    <path d="M11.749 129.995a17.105 17.105 0 0 1-7.904-13.8C3.738 113.331-.377 69.304.196 38.584.476 23.553 3.024 11.756 5.494 9.43c2.842-2.676 4.775-4.8 10.746-6.344 7.881-2.038 24.692-1.904 33.796-2.038 14.8-.219 24.458.154 29.791 0 11.1-.32 21.7 4.029 26.06 8.382 9.82 9.802 7.239 19.71 7.238 21.681-.002 6.687.478 19.842 0 33.692-.877 25.449-2.967 54.128-2.954 55.586a15.023 15.023 0 0 1-5.577 11.832v10.44l-6.607 6.268c-11.313 1.524-21.042 2.224-29.188 2.098-8.145-.126-21.001-1.175-38.569-3.147l-18.066-2.67-1.136-15.22.721.004z" id="path-6"/>
  </defs>
  <g id="Assets" fill="none" fill-rule="evenodd">
    <g id="avatars_heads" transform="translate(-234 -329)">
      <g id="charachter" filter="url(#filter-1)" transform="translate(245 333)">
        <mask id="mask-4" fill="#fff">
          <use xlink:href="#path-3"/>
        </mask>
        <g id="Mask">
          <use fill="#000" filter="url(#filter-5)" xlink:href="#path-3"/>
          <use fill-opacity=".66" fill="url(#linearGradient-2)" xlink:href="#path-3"/>
        </g>
        <g id="character" mask="url(#mask-4)">
          <g transform="translate(-68 11)">
            <g id="upper" transform="rotate(15 -281.075 402.107)">
              <g id="top" transform="rotate(-15 148.139 15.725)">
                <g id="sleeve" transform="matrix(-1 0 0 1 31.293 4.195)" fill="#163747">
                  <path d="M2.566.99c8.964 4.708 14.523 10.302 16.679 16.78 1.073 3.228 4.669 18.59 5.497 29.093.555 7.052 2.215 19.662 4.979 37.83.627 7.647.627 13.232 0 16.757-.628 3.525-1.486 16.653-2.576 39.386H.005v-5.115L2.566.99z" id="Path-16"/>
                </g>
                <g id="sleeve" transform="translate(114.644 4.195)" fill="#163747">
                  <path d="M0 0c10.223 4.06 16.679 8.236 19.367 12.526 7.322 11.683 7.061 29.822 7.417 34.337.556 7.052 2.215 19.662 4.979 37.83.627 7.647.627 13.232 0 16.757-.627 3.525-1.498 16.653-2.612 39.386H3.73L.086 72.516 0 4.195V0z" id="Path-16"/>
                </g>
                <g id="shirt" transform="translate(17.7)">
                  <mask id="mask-7" fill="#fff">
                    <use xlink:href="#path-6"/>
                  </mask>
                  <use id="Mask" fill="#163747" xlink:href="#path-6"/>
                  <path d="M88.323 151.224c.48-2.155.713-3.943.7-5.365-.41-45.328-1.345-75.731-1.737-90.754-.78-29.877-2.462-45.86-2.519-47.385-.102-2.73-.803-5.732-2.103-9.008l8.122.843c4.866 6.062 5.936 51.898 5.834 55.55-.23 8.218 1.863 72.69 1.779 91.621-.015 3.299-.837 4.68-.98 4.687l-9.096-.189zm-57.703-1.301l-9-.344c-.139-.008-.94-1.374-.954-4.638-.082-18.739 2.311-82.918 2.086-91.052-.1-3.615 1.08-49.32 5.822-55.318l8.045-.86c-1.446 3.484-2.218 6.576-2.318 9.278-.055 1.51-1.694 17.328-2.454 46.9-.382 14.869-1.647 45.329-2.045 90.193-.013 1.407.26 3.354.818 5.84z" id="Combined-Shape" stroke="#67B1AC" stroke-width="2" fill="#67B1AC" mask="url(#mask-7)"/>
                </g>
              </g>
            </g>
            <g id="face+hair" transform="translate(148 68)">
              <g id="face" transform="translate(.36 .012)">
                <g id="eyes" fill="#4C2F1C">
                  <ellipse id="eye" cx="1.958" cy="3.668" rx="1.958" ry="3.668"/>
                  <ellipse id="eye" cx="24.947" cy="3.668" rx="1.958" ry="3.668"/>
                </g>
                <path d="M10.11 3.47c1.186 6.778-.347 8.266-.627 15.377-.014.35.535.536.877.546 1.228.037 2.436-.48 3.662-.41 1.9.108 3.737.794 5.634.94 1.16.09.466-2.238-1.273-3.53" id="Path-29" stroke="#979797"/>
                <path d="M7.493 27.948c3.306 3.949 12.413 6.613 14.762.053" id="Path-2" stroke="#CC5C61"/>
              </g>
            </g>
            <g id="head_whole" transform="translate(106)">
              <g transform="matrix(-1 0 0 1 90.575 .213)">
                <g id="body_change_colour" transform="translate(0 42)" fill="#EFDD93">
                  <path d="M47.056 82.81c2.322.144 4.614.305 6.853.48-1.846 4.074-9.169 7.796-17.917 7.698-9.277-.104-17.38-3.183-18.729-7.665 2.38-.062 5.216-.524 7.71-.518l1.064-.004.108-7.96c.005-.302.03-.599.078-.888C15.806 69.39 7.834 57.587 5.643 43.66c-.38.167-.78.256-1.194.256C1.992 43.917 0 40.78 0 36.913c0-3.868 1.992-7.004 4.449-7.004.588 0 1.15.18 1.663.506.546-1.949 1.074-3.88.963-5.628-.093-1.467-1.931-2.755-1.5-4C10.127 7.652 22.835.941 35.69.941c10.547 0 23.156-1.163 28.67 8.005 2.429 4.037 2.37 12.26 2.157 19.532 1.581 1.075 2.688 3.55 2.688 6.434 0 3.143-1.316 5.803-3.127 6.69-.647 6.846-2.516 13.188-5.771 18.943-3.382 5.98-8.086 10.354-13.424 12.887.187.595.285 1.23.276 1.887l-.102 7.49z" id="head"/>
                </g>
                <g id="face" transform="matrix(-1 0 0 1 52.25 72.764)">
                  <path d="M6.307 25.121c3.352 3.907 12.584 6.542 14.965.053" id="Path-2" stroke="#CC5C61"/>
                  <ellipse id="Oval-7" fill="#4C2F1C" cx="2.35" cy="3.999" rx="1.985" ry="3.629"/>
                  <ellipse id="Oval-7" fill="#4C2F1C" cx="25.654" cy="3.999" rx="1.985" ry="3.629"/>
                  <path d="M11.15 1.051c1.2 6.705-.352 8.176-.637 15.211-.014.347.543.53.89.54 1.244.037 2.469-.475 3.711-.406 1.926.107 3.788.786 5.712.93 1.176.089.472-2.213-1.29-3.492" id="Path-29" stroke="#979797"/>
                </g>
                <path d="M41.375 55.709c-8.538 0-17.777-.463-24.717-2.293-2.36 2.738-4.31 5.64-5.853 8.709-.292.58.845 7.466 0 9.613-1.464 3.72-5.176 3.527-5.937 5.879-.576-11.588-.84-18.682-.791-21.282.048-2.6.365-8.755.95-18.466V34.27c0-10.803 16.011-16.274 36.348-16.274.88 0 1.752.013 2.616.04 3.493-.71 6.607-1.715 9.342-3.014C59.22 12.226 64.446 7.38 69.013.483V0c.102.001.205.005.309.01 9.082.514 20.28 18.43 20.28 33.295 0 14.32-10.393 20.657-19.268 21.26-1.01.15-2.068.28-3.163.393.182 2 .32 3.554.416 4.663.105 1.228-1.191 17.66-2.454 14.422-.846-2.17-1.937-12.737-2.417-13.64-1.044-1.964-2.23-3.597-3.556-4.898-6.489.267-13.13.204-17.785.204z" id="hair" fill="#FFC194"/>
              </g>
              <g id="glasses" transform="translate(17.336 63.84)">
                <path d="M12.512 6.807a1.5 1.5 0 0 0-1.5 1.5v5.715a6.5 6.5 0 0 0 6.5 6.5h7.025a6.5 6.5 0 0 0 6.5-6.5V9.307a2.5 2.5 0 0 0-2.5-2.5H12.512zM40.896 6.807a1.5 1.5 0 0 0-1.5 1.5v5.715a6.5 6.5 0 0 0 6.5 6.5h7.025a6.5 6.5 0 0 0 6.5-6.5V9.307a2.5 2.5 0 0 0-2.5-2.5H40.896z" id="Rectangle-3" stroke="#333"/>
                <path d="M39.678 7.358h.27v5.255h-1.125c-.341-1.2-1.826-2.102-3.606-2.102-1.78 0-3.265.903-3.606 2.102h-1.125V7.358h.27c.649.612 2.401 1.05 4.46 1.05 2.06 0 3.813-.438 4.462-1.05z" id="Combined-Shape" fill="#333"/>
              </g>
            </g>
          </g>
        </g>
      </g>
    </g>
  </g>
</svg>
