<svg viewBox="0 0 190 200" xmlns="http://www.w3.org/2000/svg" xmlns:xlink="http://www.w3.org/1999/xlink">
  <style type="text/css">
    @keyframes blink {
      0% {
        transform: scaleX(1) scaleY(1);
      }
      1% {
        transform: scaleX(1) scaleY(0);
      }
      10% {
        transform: scaleX(1) scaleY(1);
      }
      100% {
        transform: scaleX(1) scaleY(1);
      }
    }

    .eye {
      animation: blink 5s ease infinite;
    }
  </style>
  <defs>
    <filter x="-13.1%" y="-7.9%" width="126.2%" height="124.9%" filterUnits="objectBoundingBox" id="filter-1">
      <feOffset dy="4" in="SourceAlpha" result="shadowOffsetOuter1"/>
      <feGaussianBlur stdDeviation="4" in="shadowOffsetOuter1" result="shadowBlurOuter1"/>
      <feColorMatrix values="0 0 0 0 0.0470588235 0 0 0 0 0 0 0 0 0 0.2 0 0 0 0.1 0" in="shadowBlurOuter1" result="shadowMatrixOuter1"/>
      <feMerge>
        <feMergeNode in="shadowMatrixOuter1"/>
        <feMergeNode in="SourceGraphic"/>
      </feMerge>
    </filter>
    <linearGradient x1="0%" y1="0%" y2="100%" id="linearGradient-2">
      <stop stop-color="#FFE6D8" offset="0%"/>
      <stop stop-color="#FFCECB" offset="52.983%"/>
      <stop stop-color="#DD8EA1" offset="100%"/>
    </linearGradient>
    <path d="M5.003 56.622c-26.33 77.394 56.346 137.08 129.18 116.155 23.114-6.64 36.005-55.05 33.511-74.567C155.174.234 54.107-40.229 6.75 51.208c2.349-6.718 1.766-4.913-1.747 5.414z" id="path-3"/>
    <filter x="-8.3%" y="-5.6%" width="116.7%" height="115.8%" filterUnits="objectBoundingBox" id="filter-5">
      <feOffset dy="4" in="SourceAlpha" result="shadowOffsetOuter1"/>
      <feGaussianBlur stdDeviation="4" in="shadowOffsetOuter1" result="shadowBlurOuter1"/>
      <feComposite in="shadowBlurOuter1" in2="SourceAlpha" operator="out" result="shadowBlurOuter1"/>
      <feColorMatrix values="0 0 0 0 0.0470588235 0 0 0 0 0 0 0 0 0 0.2 0 0 0 0.1 0" in="shadowBlurOuter1"/>
    </filter>
  </defs>
  <g id="Assets" fill="none" fill-rule="evenodd">
    <g id="avatars_heads" transform="translate(-9 -46)">
      <g id="charachter" filter="url(#filter-1)" transform="translate(20 50)">
        <mask id="mask-4" fill="#fff">
          <use xlink:href="#path-3"/>
        </mask>
        <g id="Mask">
          <use fill="#000" filter="url(#filter-5)" xlink:href="#path-3"/>
          <use fill-opacity=".66" fill="url(#linearGradient-2)" xlink:href="#path-3"/>
        </g>
        <g id="avatar_2" mask="url(#mask-4)">
          <g transform="translate(-33 22)">
            <g id="body_change_colour" transform="translate(55 19)">
              <path d="M93.336 49.758c-2.862 13.65-11.708 24.488-23.034 28.35.09.522.136 1.06.136 1.607v8.326a7.76 7.76 0 0 1-9.47 7.568 12.15 12.15 0 0 1-9.472-11.85v-4.044c0-.585.054-1.159.155-1.715-11.184-3.955-19.898-14.73-22.729-28.267a6.341 6.341 0 1 1-.881-12.591C29.349 16.777 43.664.738 61.13.738c17.468 0 31.783 16.038 33.091 36.4h.016a6.341 6.341 0 1 1-.902 12.619z" id="head" fill="#885B3E"/>
            </g>
            <g id="sleeve" transform="matrix(-1 0 0 1 76.965 118.094)">
              <path d="M4.776 0c11.878 4.694 18.85 10.13 20.918 16.306 1.03 3.077-.794 14.362 0 24.376.533 6.724 2.125 18.747 4.777 36.07.601 7.291.601 12.617 0 15.977-.602 3.361-2.194 6.93-4.777 10.706L28 130.282H1.965v-4.876L0 0h4.776z" id="Path-16" fill="#18C9CF"/>
            </g>
            <g id="sleeve" transform="translate(155.035 118.094)">
              <path d="M4.776 0c11.878 4.694 18.85 10.13 20.918 16.306 1.03 3.077-.794 14.362 0 24.376.533 6.724 2.125 18.747 4.777 36.07.601 7.291.601 12.617 0 15.977-.602 3.361-2.194 6.93-4.777 10.706l2.27 26.847h-21l-.008-6.68-6.874-58.46L0 0h4.776z" id="Path-16" fill="#18C9CF"/>
            </g>
            <g id="shirt" transform="translate(61.812 108.212)">
              <path d="M12.847 126.852c-5.259-2.565-8.928-7.87-9.159-14.064-.102-2.73-4.05-44.709-3.5-74 .27-14.331 2.713-25.579 5.083-27.796C17.443-.398 68.41.472 79.059.167c10.648-.305 16.405 3.968 20.588 8.119 9.42 9.346 8.876 21.5 8.875 23.378-.002 6.376.458 18.92 0 32.124-.841 24.265-2.846 51.61-2.834 53a14.327 14.327 0 0 1-5.35 11.31v9.926l-5.35-1.134H19.923l-7.075 1.134v-11.172z" id="Combined-Shape" fill="#00859E"/>
              <path d="M52.688 4.788c-.287-.068-.287.766 0 2.5.288 1.735.646 3.059 1.073 3.972 3.826 8.321 4.23 11.593 4.301 20.946.747 99.168 9.513 91.407 9.558 97.885.012 1.784-.585 3.52-.952 5.265-.082.387-.184.784-.391 1.121-.046.075-.123-.125-.184-.188" id="Path-19" stroke="#81F4DD"/>
              <circle id="Oval-3" stroke="#81F4DD" fill="#81F4DD" cx="53.365" cy="32.612" r="1.976"/>
              <circle id="Oval-3" stroke="#81F4DD" fill="#81F4DD" cx="53.365" cy="42.824" r="1.976"/>
            </g>
            <g id="face" transform="translate(76.141)">
              <path d="M32.776 79.87c2.078.847 3.67 1.34 4.777 1.483 1.107.142 3.358.142 6.753 0" id="Path-27" stroke="#CC5C61"/>
              <g class="eyes" transform="translate(26 56)" fill="#27221B">
                <ellipse class="eye" cx="28.847" cy="2.965" rx="2.306" ry="2.471"/>
                <ellipse class="eye" cx="2.659" cy="2.965" rx="2.306" ry="2.471"/>
              </g>
              <path d="M5.588 33.777c-7.635-9.428-7.423-23.66 2.004-31.294C13.905-2.63 19.48.86 24.766 6.553c-1.347-3.398 8.63 1.647 11.622-.776 5.351-4.333 14.654-.283 18.988 5.069 2.765 3.414.768.843 1.81 0 4.064-3.292 6.216-.899 9.508 3.166 1.67 2.062 3.406-3.802 5.105-1.647.811-2.756 5.893 1.647 8.895 1.647 5.23 0 8.4 6.134 8.4 11.365 0 .206-.003.41-.01.61-.303 8.727-1.017 15.7-1.967 20.966-.357 1.98-.852 4.295-1.484 6.944.002 1.297-.297 2.385-.822 3.331-.935 3.675-2.088 7.882-3.459 12.62-.297-2.275-.791-4.114-1.482-5.518-.582-1.183-1.726-2.598-3.433-4.243a6.59 6.59 0 0 1-2.219-10.534c-4.297-.897-7.524-4.707-7.524-9.27 0-3.32 1.707-6.24 4.291-7.93-7.629 1.795-17.334 3.33-20.268 5.706-6.03 4.883-18.26 5.684-29.318 3.117-.245 1.115-1.853 2.398-1.976 3.966-.298 3.802-2.934 10.214-2.635 18.27-1.998-9.678-.46-15.76-.66-17.282-.158-1.218-.19-3.254-.095-6.108-4.521-1.483-8.294-3.589-10.445-6.245z" id="Combined-Shape" fill="#27221B" transform="matrix(-1 0 0 1 89.258 0)"/>
              <path d="M32 70c4.147 1.225 7.147 1.725 9 1.5 1.69-.205 3.775-.649 5.5-1.5 1.11-.548 2.088-2.412 1.5-3-.663-.663-1.751-.994-3-4-.423-1.02-.923-3.02-1.5-6" id="Path-5" stroke="#363636"/>
              <path d="M29.482 103.4c4.594 1.17 8.08 1.755 10.46 1.755 2.378 0 5.865-.585 10.458-1.755v8.891c-5.51 1.02-9.628 1.45-12.353 1.287-2.724-.162-6.458-1.059-11.2-2.69l2.635-7.488z" id="Path-28" fill="#81F4DD"/>
            </g>
          </g>
        </g>
      </g>
    </g>
  </g>
</svg>
