<?xml version="1.0" encoding="UTF-8"?>
<svg width="96px" height="92px" viewBox="0 0 96 92" version="1.1" xmlns="http://www.w3.org/2000/svg" xmlns:xlink="http://www.w3.org/1999/xlink">
    <!-- Generator: Sketch 49.1 (51147) - http://www.bohemiancoding.com/sketch -->
    <title>instruction_icn</title>
    <desc>Created with Sketch.</desc>
    <defs>
        <filter x="-17.5%" y="-13.0%" width="135.0%" height="136.4%" filterUnits="objectBoundingBox" id="filter-1">
            <feOffset dx="0" dy="4" in="SourceAlpha" result="shadowOffsetOuter1"></feOffset>
            <feGaussianBlur stdDeviation="4" in="shadowOffsetOuter1" result="shadowBlurOuter1"></feGaussianBlur>
            <feColorMatrix values="0 0 0 0 0.0470588235   0 0 0 0 0   0 0 0 0 0.2  0 0 0 0.1 0" type="matrix" in="shadowBlurOuter1" result="shadowMatrixOuter1"></feColorMatrix>
            <feMerge>
                <feMergeNode in="shadowMatrixOuter1"></feMergeNode>
                <feMergeNode in="SourceGraphic"></feMergeNode>
            </feMerge>
        </filter>
    </defs>
    <g id="Assets" stroke="none" stroke-width="1" fill="none" fill-rule="evenodd">
        <g id="Artboard-3" transform="translate(-20.000000, -22.000000)">
            <g id="instruction_icn" filter="url(#filter-1)" transform="translate(28.000000, 26.000000)">
                <path d="M8.59383836,11.1029429 C47.1281537,-17.1120366 93.4648439,12.3459298 76.3328964,55.7447241 C67.3409029,78.5233182 24.269714,83.4695242 9.78628899,64.3479535 C-1.16922855,49.8840609 -0.752381446,46.7717454 0.841727048,31.7392014 C1.90446604,21.7175054 4.48850315,14.8387526 8.59383836,11.1029429 Z" id="Path-6" fill="#FFFFFF"></path>
                <g id="how_to_icon" transform="translate(15.609756, 14.620253)" fill="#449694" fill-rule="nonzero">
                    <path d="M44.7154472,0 L8.1300813,0 C5.88861789,0 4.06504065,1.82184599 4.06504065,4.06118143 L4.06504065,5.68565401 L2.43902439,5.68565401 C1.09430894,5.68565401 0,6.77892405 0,8.12236287 C0,9.46580169 1.09430894,10.5590717 2.43902439,10.5590717 L4.06504065,10.5590717 L4.06504065,13.8080169 L2.43902439,13.8080169 C1.09430894,13.8080169 0,14.9012869 0,16.2447257 C0,17.5881646 1.09430894,18.6814346 2.43902439,18.6814346 L4.06504065,18.6814346 L4.06504065,21.9303797 L2.43902439,21.9303797 C1.09430894,21.9303797 0,23.0236498 0,24.3670886 C0,25.7105274 1.09430894,26.8037975 2.43902439,26.8037975 L4.06504065,26.8037975 L4.06504065,30.0527426 L2.43902439,30.0527426 C1.09430894,30.0527426 0,31.1460127 0,32.4894515 C0,33.8328903 1.09430894,34.9261603 2.43902439,34.9261603 L4.06504065,34.9261603 L4.06504065,38.1751055 L2.43902439,38.1751055 C1.09430894,38.1751055 0,39.2683755 0,40.6118143 C0,41.9552532 1.09430894,43.0485232 2.43902439,43.0485232 L4.06504065,43.0485232 L4.06504065,44.6729958 C4.06504065,46.9123312 5.88861789,48.7341772 8.1300813,48.7341772 L44.7154472,48.7341772 C46.9569106,48.7341772 48.7804878,46.9123312 48.7804878,44.6729958 L48.7804878,4.06118143 C48.7804878,1.82184599 46.9569106,0 44.7154472,0 Z M1.62601626,8.12236287 C1.62601626,7.67482068 1.99105691,7.31012658 2.43902439,7.31012658 L7.31707317,7.31012658 C7.76504065,7.31012658 8.1300813,7.67482068 8.1300813,8.12236287 C8.1300813,8.56990506 7.76504065,8.93459916 7.31707317,8.93459916 L2.43902439,8.93459916 C1.99105691,8.93459916 1.62601626,8.56990506 1.62601626,8.12236287 Z M1.62601626,16.2447257 C1.62601626,15.7971835 1.99105691,15.4324895 2.43902439,15.4324895 L7.31707317,15.4324895 C7.76504065,15.4324895 8.1300813,15.7971835 8.1300813,16.2447257 C8.1300813,16.6922679 7.76504065,17.056962 7.31707317,17.056962 L2.43902439,17.056962 C1.99105691,17.056962 1.62601626,16.6922679 1.62601626,16.2447257 Z M1.62601626,24.3670886 C1.62601626,23.9195464 1.99105691,23.5548523 2.43902439,23.5548523 L7.31707317,23.5548523 C7.76504065,23.5548523 8.1300813,23.9195464 8.1300813,24.3670886 C8.1300813,24.8146308 7.76504065,25.1793249 7.31707317,25.1793249 L2.43902439,25.1793249 C1.99105691,25.1793249 1.62601626,24.8146308 1.62601626,24.3670886 Z M1.62601626,32.4894515 C1.62601626,32.0419093 1.99105691,31.6772152 2.43902439,31.6772152 L7.31707317,31.6772152 C7.76504065,31.6772152 8.1300813,32.0419093 8.1300813,32.4894515 C8.1300813,32.9369937 7.76504065,33.3016878 7.31707317,33.3016878 L2.43902439,33.3016878 C1.99105691,33.3016878 1.62601626,32.9369937 1.62601626,32.4894515 Z M1.62601626,40.6118143 C1.62601626,40.1642722 1.99105691,39.7995781 2.43902439,39.7995781 L7.31707317,39.7995781 C7.76504065,39.7995781 8.1300813,40.1642722 8.1300813,40.6118143 C8.1300813,41.0593565 7.76504065,41.4240506 7.31707317,41.4240506 L2.43902439,41.4240506 C1.99105691,41.4240506 1.62601626,41.0593565 1.62601626,40.6118143 Z M47.1544715,44.6729958 C47.1544715,46.0164346 46.0601626,47.1097046 44.7154472,47.1097046 L8.1300813,47.1097046 C6.78536585,47.1097046 5.69105691,46.0164346 5.69105691,44.6729958 L5.69105691,43.0485232 L7.31707317,43.0485232 C8.66178862,43.0485232 9.75609756,41.9552532 9.75609756,40.6118143 C9.75609756,39.2683755 8.66178862,38.1751055 7.31707317,38.1751055 L5.69105691,38.1751055 L5.69105691,34.9261603 L7.31707317,34.9261603 C8.66178862,34.9261603 9.75609756,33.8328903 9.75609756,32.4894515 C9.75609756,31.1460127 8.66178862,30.0527426 7.31707317,30.0527426 L5.69105691,30.0527426 L5.69105691,26.8037975 L7.31707317,26.8037975 C8.66178862,26.8037975 9.75609756,25.7105274 9.75609756,24.3670886 C9.75609756,23.0236498 8.66178862,21.9303797 7.31707317,21.9303797 L5.69105691,21.9303797 L5.69105691,18.6814346 L7.31707317,18.6814346 C8.66178862,18.6814346 9.75609756,17.5881646 9.75609756,16.2447257 C9.75609756,14.9012869 8.66178862,13.8080169 7.31707317,13.8080169 L5.69105691,13.8080169 L5.69105691,10.5590717 L7.31707317,10.5590717 C8.66178862,10.5590717 9.75609756,9.46580169 9.75609756,8.12236287 C9.75609756,6.77892405 8.66178862,5.68565401 7.31707317,5.68565401 L5.69105691,5.68565401 L5.69105691,4.06118143 C5.69105691,2.71774262 6.78536585,1.62447257 8.1300813,1.62447257 L44.7154472,1.62447257 C46.0601626,1.62447257 47.1544715,2.71774262 47.1544715,4.06118143 L47.1544715,44.6729958 Z" id="Shape"></path>
                    <path d="M15.4573171,14.6202532 L40.152439,14.6202532 C40.6070637,14.6202532 40.9756098,14.2711486 40.9756098,13.8405063 L40.9756098,7.60253165 C40.9756098,7.17188936 40.6070637,6.82278481 40.152439,6.82278481 L15.4573171,6.82278481 C15.0026924,6.82278481 14.6341463,7.17188936 14.6341463,7.60253165 L14.6341463,13.8405063 C14.6341463,14.2711486 15.0026924,14.6202532 15.4573171,14.6202532 Z M16.2804878,8.38227848 L39.3292683,8.38227848 L39.3292683,13.0607595 L16.2804878,13.0607595 L16.2804878,8.38227848 Z" id="Shape"></path>
                    <path d="M35.2682927,17.5443038 L20.3414634,17.5443038 C19.8834712,17.5443038 19.5121951,17.9079544 19.5121951,18.3565401 L19.5121951,31.3523207 C19.5121951,31.8009064 19.8834712,32.164557 20.3414634,32.164557 L35.2682927,32.164557 C35.7262849,32.164557 36.097561,31.8009064 36.097561,31.3523207 L36.097561,18.3565401 C36.097561,17.9079544 35.7262849,17.5443038 35.2682927,17.5443038 Z M34.4390244,25.3304008 L31.7082439,22.6557068 C31.5528412,22.5032367 31.341911,22.4175581 31.1219512,22.4175581 C30.9019915,22.4175581 30.6910613,22.5032367 30.5356585,22.6557068 L26.1463415,26.9548734 L24.2448293,25.0924156 C24.0894265,24.9399456 23.8784964,24.854267 23.6585366,24.854267 C23.4385768,24.854267 23.2276467,24.9399456 23.0722439,25.0924156 L21.1707317,26.9548734 L21.1707317,23.1568565 C23.2543987,22.8083054 24.8865791,21.2096478 25.242439,19.1687764 L34.4390244,19.1687764 L34.4390244,25.3304008 Z M23.5407805,19.1687764 C23.2381495,20.305794 22.3315918,21.1937323 21.1707317,21.4901477 L21.1707317,19.1687764 L23.5407805,19.1687764 Z M21.1707317,30.5400844 L21.1707317,29.2518776 L23.6585366,26.8151688 L25.5600488,28.6776266 C25.7154515,28.8300966 25.9263817,28.9157752 26.1463415,28.9157752 C26.3663012,28.9157752 26.5772314,28.8300966 26.7326341,28.6776266 L31.1219512,24.3784599 L34.4390244,27.6274051 L34.4390244,30.5400844 L21.1707317,30.5400844 Z" id="Shape"></path>
                    <polygon id="Shape" points="18.5365854 36.0632911 20.4878049 36.0632911 20.4878049 38.0126582 18.5365854 38.0126582"></polygon>
                    <polygon id="Shape" points="21.4634146 36.0632911 23.4146341 36.0632911 23.4146341 38.0126582 21.4634146 38.0126582"></polygon>
                    <polygon id="Shape" points="25.3658537 36.0632911 27.3170732 36.0632911 27.3170732 38.0126582 25.3658537 38.0126582"></polygon>
                    <polygon id="Shape" points="28.2926829 36.0632911 30.2439024 36.0632911 30.2439024 38.0126582 28.2926829 38.0126582"></polygon>
                    <polygon id="Shape" points="31.2195122 36.0632911 33.1707317 36.0632911 33.1707317 38.0126582 31.2195122 38.0126582"></polygon>
                    <polygon id="Shape" points="35.1219512 36.0632911 37.0731707 36.0632911 37.0731707 38.0126582 35.1219512 38.0126582"></polygon>
                    <polygon id="Shape" points="16.5853659 38.9873418 39.0243902 38.9873418 39.0243902 40.9367089 16.5853659 40.9367089"></polygon>
                    <polygon id="Shape" points="12.6829268 41.9113924 41.9512195 41.9113924 41.9512195 43.8607595 12.6829268 43.8607595"></polygon>
                    <polygon id="Shape" points="17.5609756 9.74683544 37.0731707 9.74683544 37.0731707 11.6962025 17.5609756 11.6962025"></polygon>
                </g>
            </g>
        </g>
    </g>
</svg>